<svg xmlns="http://www.w3.org/2000/svg" xmlns:xlink="http://www.w3.org/1999/xlink" width="120" zoomAndPan="magnify" viewBox="0 0 90 89.999999" height="120" preserveAspectRatio="xMidYMid meet" version="1.0"><defs><g/><clipPath id="257cb01f3a"><path d="M 62 47 L 71.46875 47 L 71.46875 56 L 62 56 Z M 62 47 " clip-rule="nonzero"/></clipPath><clipPath id="147cff9b91"><path d="M 51.21875 51 L 58 51 L 58 53 L 51.21875 53 Z M 51.21875 51 " clip-rule="nonzero"/></clipPath><clipPath id="e1eb05a5c7"><path d="M 18.3125 66.050781 L 25.105469 66.050781 L 25.105469 67.113281 L 18.3125 67.113281 Z M 18.3125 66.050781 " clip-rule="nonzero"/></clipPath><clipPath id="8f954b26cd"><path d="M 18.84375 66.050781 L 24.574219 66.050781 C 24.714844 66.050781 24.847656 66.105469 24.949219 66.207031 C 25.050781 66.304688 25.105469 66.441406 25.105469 66.582031 C 25.105469 66.722656 25.050781 66.859375 24.949219 66.957031 C 24.847656 67.058594 24.714844 67.113281 24.574219 67.113281 L 18.84375 67.113281 C 18.703125 67.113281 18.566406 67.058594 18.46875 66.957031 C 18.367188 66.859375 18.3125 66.722656 18.3125 66.582031 C 18.3125 66.441406 18.367188 66.304688 18.46875 66.207031 C 18.566406 66.105469 18.703125 66.050781 18.84375 66.050781 Z M 18.84375 66.050781 " clip-rule="nonzero"/></clipPath><clipPath id="4974888b8a"><path d="M 19.285156 63.257812 L 25.105469 63.257812 L 25.105469 64.320312 L 19.285156 64.320312 Z M 19.285156 63.257812 " clip-rule="nonzero"/></clipPath><clipPath id="ab9024e340"><path d="M 19.820312 63.257812 L 24.574219 63.257812 C 24.714844 63.257812 24.847656 63.3125 24.949219 63.410156 C 25.050781 63.511719 25.105469 63.648438 25.105469 63.789062 C 25.105469 63.929688 25.050781 64.066406 24.949219 64.164062 C 24.847656 64.265625 24.714844 64.320312 24.574219 64.320312 L 19.820312 64.320312 C 19.675781 64.320312 19.542969 64.265625 19.441406 64.164062 C 19.34375 64.066406 19.285156 63.929688 19.285156 63.789062 C 19.285156 63.648438 19.34375 63.511719 19.441406 63.410156 C 19.542969 63.3125 19.675781 63.257812 19.820312 63.257812 Z M 19.820312 63.257812 " clip-rule="nonzero"/></clipPath><clipPath id="ee7bee7230"><path d="M 20.136719 60.460938 L 25.105469 60.460938 L 25.105469 61.527344 L 20.136719 61.527344 Z M 20.136719 60.460938 " clip-rule="nonzero"/></clipPath><clipPath id="b22576a3cd"><path d="M 20.667969 60.460938 L 24.574219 60.460938 C 24.714844 60.460938 24.847656 60.519531 24.949219 60.617188 C 25.050781 60.71875 25.105469 60.855469 25.105469 60.996094 C 25.105469 61.136719 25.050781 61.273438 24.949219 61.371094 C 24.847656 61.472656 24.714844 61.527344 24.574219 61.527344 L 20.667969 61.527344 C 20.527344 61.527344 20.390625 61.472656 20.289062 61.371094 C 20.191406 61.273438 20.136719 61.136719 20.136719 60.996094 C 20.136719 60.855469 20.191406 60.71875 20.289062 60.617188 C 20.390625 60.519531 20.527344 60.460938 20.667969 60.460938 Z M 20.667969 60.460938 " clip-rule="nonzero"/></clipPath></defs><rect x="-9" width="108" fill="#ffffff" y="-9" height="107.999999" fill-opacity="1"/><rect x="-9" width="108" fill="#f8f3ed" y="-9" height="107.999999" fill-opacity="1"/><path fill="#a8814d" d="M 56.703125 55.285156 L 55.015625 55.285156 C 54.78125 55.285156 54.59375 55.09375 54.59375 54.855469 C 54.59375 54.621094 54.78125 54.425781 55.015625 54.425781 L 56.703125 54.425781 C 56.933594 54.425781 57.125 54.621094 57.125 54.855469 C 57.125 55.09375 56.933594 55.285156 56.703125 55.285156 Z M 56.703125 55.285156 " fill-opacity="1" fill-rule="nonzero"/><g clip-path="url(#257cb01f3a)"><path fill="#a8814d" d="M 70.414062 55.285156 L 69.359375 55.285156 C 69.125 55.285156 68.9375 55.09375 68.9375 54.855469 C 68.9375 54.621094 69.125 54.425781 69.359375 54.425781 L 70.0625 54.425781 L 70.632812 51.347656 C 70.625 49.773438 69.296875 48.429688 67.671875 48.429688 L 64.898438 48.429688 L 63.558594 54.425781 L 65.984375 54.425781 C 66.214844 54.425781 66.40625 54.621094 66.40625 54.855469 C 66.40625 55.09375 66.214844 55.285156 65.984375 55.285156 L 63.03125 55.285156 C 62.902344 55.285156 62.78125 55.226562 62.699219 55.125 C 62.621094 55.023438 62.589844 54.886719 62.617188 54.761719 L 64.152344 47.90625 C 64.195312 47.710938 64.367188 47.574219 64.5625 47.574219 L 67.671875 47.574219 C 69.761719 47.574219 71.46875 49.300781 71.46875 51.429688 L 70.828125 54.933594 C 70.789062 55.136719 70.617188 55.285156 70.414062 55.285156 Z M 70.414062 55.285156 " fill-opacity="1" fill-rule="nonzero"/></g><path fill="#a8814d" d="M 67.671875 56.996094 C 66.507812 56.996094 65.5625 56.039062 65.5625 54.855469 C 65.5625 53.675781 66.507812 52.714844 67.671875 52.714844 C 68.832031 52.714844 69.78125 53.675781 69.78125 54.855469 C 69.78125 56.039062 68.832031 56.996094 67.671875 56.996094 Z M 67.671875 53.570312 C 66.972656 53.570312 66.40625 54.148438 66.40625 54.855469 C 66.40625 55.566406 66.972656 56.140625 67.671875 56.140625 C 68.367188 56.140625 68.9375 55.566406 68.9375 54.855469 C 68.9375 54.148438 68.367188 53.570312 67.671875 53.570312 Z M 67.671875 53.570312 " fill-opacity="1" fill-rule="nonzero"/><path fill="#a8814d" d="M 58.390625 56.996094 C 57.226562 56.996094 56.28125 56.039062 56.28125 54.855469 C 56.28125 53.675781 57.226562 52.714844 58.390625 52.714844 C 59.550781 52.714844 60.5 53.675781 60.5 54.855469 C 60.5 56.039062 59.550781 56.996094 58.390625 56.996094 Z M 58.390625 53.570312 C 57.691406 53.570312 57.125 54.148438 57.125 54.855469 C 57.125 55.566406 57.691406 56.140625 58.390625 56.140625 C 59.085938 56.140625 59.65625 55.566406 59.65625 54.855469 C 59.65625 54.148438 59.085938 53.570312 58.390625 53.570312 Z M 58.390625 53.570312 " fill-opacity="1" fill-rule="nonzero"/><path fill="#a8814d" d="M 56.703125 47.574219 L 53.328125 47.574219 C 53.09375 47.574219 52.90625 47.378906 52.90625 47.144531 C 52.90625 46.90625 53.09375 46.714844 53.328125 46.714844 L 56.703125 46.714844 C 56.933594 46.714844 57.125 46.90625 57.125 47.144531 C 57.125 47.378906 56.933594 47.574219 56.703125 47.574219 Z M 56.703125 47.574219 " fill-opacity="1" fill-rule="nonzero"/><path fill="#a8814d" d="M 56.703125 50.144531 L 52.484375 50.144531 C 52.25 50.144531 52.0625 49.953125 52.0625 49.714844 C 52.0625 49.476562 52.25 49.285156 52.484375 49.285156 L 56.703125 49.285156 C 56.933594 49.285156 57.125 49.476562 57.125 49.714844 C 57.125 49.953125 56.933594 50.144531 56.703125 50.144531 Z M 56.703125 50.144531 " fill-opacity="1" fill-rule="nonzero"/><g clip-path="url(#147cff9b91)"><path fill="#a8814d" d="M 56.703125 52.714844 L 51.640625 52.714844 C 51.40625 52.714844 51.21875 52.523438 51.21875 52.285156 C 51.21875 52.046875 51.40625 51.855469 51.640625 51.855469 L 56.703125 51.855469 C 56.933594 51.855469 57.125 52.046875 57.125 52.285156 C 57.125 52.523438 56.933594 52.714844 56.703125 52.714844 Z M 56.703125 52.714844 " fill-opacity="1" fill-rule="nonzero"/></g><path fill="#a8814d" d="M 63.03125 55.285156 L 60.078125 55.285156 C 59.84375 55.285156 59.65625 55.09375 59.65625 54.855469 C 59.65625 54.621094 59.84375 54.425781 60.078125 54.425781 L 62.691406 54.425781 L 64.609375 45.859375 L 55.015625 45.859375 C 54.78125 45.859375 54.59375 45.667969 54.59375 45.429688 C 54.59375 45.195312 54.78125 45.003906 55.015625 45.003906 L 65.140625 45.003906 C 65.265625 45.003906 65.390625 45.0625 65.46875 45.164062 C 65.550781 45.265625 65.578125 45.398438 65.550781 45.523438 L 63.441406 54.949219 C 63.398438 55.144531 63.226562 55.285156 63.03125 55.285156 Z M 63.03125 55.285156 " fill-opacity="1" fill-rule="nonzero"/><path stroke-linecap="butt" transform="matrix(0.748093, 0.000724026, -0.000725871, 0.75, 0.000798888, 56.584276)" fill="none" stroke-linejoin="miter" d="M -0.0005806 0.502216 L 141.364085 0.501164 " stroke="#a8814d" stroke-width="1" stroke-opacity="1" stroke-miterlimit="4"/><g fill="#02093d" fill-opacity="1"><g transform="translate(5.940436, 52.807547)"><g><path d="M 2.796875 -6.109375 C 3.578125 -6.109375 4.285156 -5.898438 4.921875 -5.484375 L 4.484375 -4.59375 C 3.867188 -4.96875 3.28125 -5.15625 2.71875 -5.15625 C 2.40625 -5.15625 2.160156 -5.097656 1.984375 -4.984375 C 1.804688 -4.878906 1.71875 -4.722656 1.71875 -4.515625 C 1.71875 -4.316406 1.800781 -4.144531 1.96875 -4 C 2.132812 -3.863281 2.335938 -3.757812 2.578125 -3.6875 C 2.816406 -3.625 3.078125 -3.539062 3.359375 -3.4375 C 3.648438 -3.332031 3.914062 -3.222656 4.15625 -3.109375 C 4.394531 -3.003906 4.59375 -2.832031 4.75 -2.59375 C 4.914062 -2.351562 5 -2.0625 5 -1.71875 C 5 -1.1875 4.785156 -0.757812 4.359375 -0.4375 C 3.929688 -0.125 3.378906 0.03125 2.703125 0.03125 C 2.242188 0.03125 1.796875 -0.0507812 1.359375 -0.21875 C 0.929688 -0.394531 0.550781 -0.628906 0.21875 -0.921875 L 0.671875 -1.8125 C 0.972656 -1.53125 1.304688 -1.3125 1.671875 -1.15625 C 2.046875 -1 2.394531 -0.921875 2.71875 -0.921875 C 3.082031 -0.921875 3.363281 -0.984375 3.5625 -1.109375 C 3.757812 -1.242188 3.859375 -1.429688 3.859375 -1.671875 C 3.859375 -1.878906 3.773438 -2.050781 3.609375 -2.1875 C 3.453125 -2.332031 3.25 -2.4375 3 -2.5 C 2.757812 -2.5625 2.5 -2.640625 2.21875 -2.734375 C 1.9375 -2.835938 1.671875 -2.941406 1.421875 -3.046875 C 1.179688 -3.148438 0.976562 -3.320312 0.8125 -3.5625 C 0.65625 -3.800781 0.578125 -4.085938 0.578125 -4.421875 C 0.578125 -4.929688 0.78125 -5.335938 1.1875 -5.640625 C 1.59375 -5.953125 2.128906 -6.109375 2.796875 -6.109375 Z M 2.796875 -6.109375 "/></g></g></g><g fill="#02093d" fill-opacity="1"><g transform="translate(11.336356, 52.807547)"><g><path d="M 6.0625 0 L 5.03125 0 L 5.03125 -2.515625 L 1.828125 -2.515625 L 1.828125 0 L 0.796875 0 L 0.796875 -6.0625 L 1.828125 -6.0625 L 1.828125 -3.4375 L 5.03125 -3.4375 L 5.03125 -6.0625 L 6.0625 -6.0625 Z M 6.0625 0 "/></g></g></g><g fill="#02093d" fill-opacity="1"><g transform="translate(18.198371, 52.807547)"><g><path d="M 1.828125 0 L 0.796875 0 L 0.796875 -6.0625 L 1.828125 -6.0625 Z M 1.828125 0 "/></g></g></g><g fill="#02093d" fill-opacity="1"><g transform="translate(20.818254, 52.807547)"><g><path d="M 0.796875 -6.0625 L 3.21875 -6.0625 C 3.976562 -6.0625 4.566406 -5.878906 4.984375 -5.515625 C 5.410156 -5.160156 5.625 -4.65625 5.625 -4 C 5.625 -3.3125 5.410156 -2.773438 4.984375 -2.390625 C 4.566406 -2.015625 3.976562 -1.828125 3.21875 -1.828125 L 1.828125 -1.828125 L 1.828125 0 L 0.796875 0 Z M 1.828125 -5.15625 L 1.828125 -2.75 L 3.171875 -2.75 C 4.148438 -2.75 4.640625 -3.15625 4.640625 -3.96875 C 4.640625 -4.757812 4.148438 -5.15625 3.171875 -5.15625 Z M 1.828125 -5.15625 "/></g></g></g><g fill="#02093d" fill-opacity="1"><g transform="translate(26.656601, 52.807547)"><g><path d="M 0.796875 -6.0625 L 3.21875 -6.0625 C 3.976562 -6.0625 4.566406 -5.878906 4.984375 -5.515625 C 5.410156 -5.160156 5.625 -4.65625 5.625 -4 C 5.625 -3.3125 5.410156 -2.773438 4.984375 -2.390625 C 4.566406 -2.015625 3.976562 -1.828125 3.21875 -1.828125 L 1.828125 -1.828125 L 1.828125 0 L 0.796875 0 Z M 1.828125 -5.15625 L 1.828125 -2.75 L 3.171875 -2.75 C 4.148438 -2.75 4.640625 -3.15625 4.640625 -3.96875 C 4.640625 -4.757812 4.148438 -5.15625 3.171875 -5.15625 Z M 1.828125 -5.15625 "/></g></g></g><g fill="#02093d" fill-opacity="1"><g transform="translate(32.494949, 52.807547)"><g><path d="M 1.828125 0 L 0.796875 0 L 0.796875 -6.0625 L 1.828125 -6.0625 Z M 1.828125 0 "/></g></g></g><g fill="#02093d" fill-opacity="1"><g transform="translate(35.114832, 52.807547)"><g><path d="M 6.0625 0 L 5.0625 0 L 1.828125 -4.359375 L 1.828125 0 L 0.796875 0 L 0.796875 -6.0625 L 1.796875 -6.0625 L 5.0625 -1.703125 L 5.0625 -6.0625 L 6.0625 -6.0625 Z M 6.0625 0 "/></g></g></g><g fill="#02093d" fill-opacity="1"><g transform="translate(41.985528, 52.807547)"><g><path d="M 4.953125 -2.984375 L 5.84375 -2.984375 L 5.84375 -0.75 C 5.53125 -0.507812 5.160156 -0.316406 4.734375 -0.171875 C 4.316406 -0.0234375 3.898438 0.046875 3.484375 0.046875 C 2.585938 0.046875 1.832031 -0.25 1.21875 -0.84375 C 0.601562 -1.4375 0.296875 -2.164062 0.296875 -3.03125 C 0.296875 -3.894531 0.609375 -4.617188 1.234375 -5.203125 C 1.859375 -5.796875 2.628906 -6.09375 3.546875 -6.09375 C 3.972656 -6.09375 4.390625 -6.015625 4.796875 -5.859375 C 5.210938 -5.710938 5.570312 -5.507812 5.875 -5.25 L 5.296875 -4.484375 C 4.796875 -4.953125 4.210938 -5.1875 3.546875 -5.1875 C 2.929688 -5.1875 2.40625 -4.976562 1.96875 -4.5625 C 1.539062 -4.144531 1.328125 -3.632812 1.328125 -3.03125 C 1.328125 -2.425781 1.539062 -1.914062 1.96875 -1.5 C 2.40625 -1.082031 2.9375 -0.875 3.5625 -0.875 C 4.03125 -0.875 4.492188 -1.015625 4.953125 -1.296875 Z M 4.953125 -2.984375 "/></g></g></g><g clip-path="url(#e1eb05a5c7)"><g clip-path="url(#8f954b26cd)"><path fill="#a8814d" d="M 18.3125 66.050781 L 25.105469 66.050781 L 25.105469 67.113281 L 18.3125 67.113281 Z M 18.3125 66.050781 " fill-opacity="1" fill-rule="nonzero"/></g></g><g clip-path="url(#4974888b8a)"><g clip-path="url(#ab9024e340)"><path fill="#a8814d" d="M 19.285156 63.257812 L 25.105469 63.257812 L 25.105469 64.320312 L 19.285156 64.320312 Z M 19.285156 63.257812 " fill-opacity="1" fill-rule="nonzero"/></g></g><g clip-path="url(#ee7bee7230)"><g clip-path="url(#b22576a3cd)"><path fill="#a8814d" d="M 20.136719 60.460938 L 25.105469 60.460938 L 25.105469 61.527344 L 20.136719 61.527344 Z M 20.136719 60.460938 " fill-opacity="1" fill-rule="nonzero"/></g></g><g fill="#02093d" fill-opacity="1"><g transform="translate(27.656756, 66.409027)"><g><path d="M 0.796875 -6.0625 L 3.28125 -6.0625 C 4.1875 -6.0625 4.9375 -5.773438 5.53125 -5.203125 C 6.125 -4.640625 6.421875 -3.914062 6.421875 -3.03125 C 6.421875 -2.15625 6.125 -1.429688 5.53125 -0.859375 C 4.9375 -0.285156 4.179688 0 3.265625 0 L 0.796875 0 Z M 1.828125 -5.15625 L 1.828125 -0.921875 L 3.3125 -0.921875 C 3.90625 -0.921875 4.398438 -1.117188 4.796875 -1.515625 C 5.191406 -1.910156 5.390625 -2.414062 5.390625 -3.03125 C 5.390625 -3.644531 5.1875 -4.148438 4.78125 -4.546875 C 4.375 -4.953125 3.867188 -5.15625 3.265625 -5.15625 Z M 1.828125 -5.15625 "/></g></g></g><g fill="#02093d" fill-opacity="1"><g transform="translate(34.37992, 66.409027)"><g><path d="M 1.828125 0 L 0.796875 0 L 0.796875 -6.0625 L 1.828125 -6.0625 Z M 1.828125 0 "/></g></g></g><g fill="#02093d" fill-opacity="1"><g transform="translate(36.999785, 66.409027)"><g><path d="M 2.796875 -6.109375 C 3.578125 -6.109375 4.285156 -5.898438 4.921875 -5.484375 L 4.484375 -4.59375 C 3.867188 -4.96875 3.28125 -5.15625 2.71875 -5.15625 C 2.40625 -5.15625 2.160156 -5.097656 1.984375 -4.984375 C 1.804688 -4.878906 1.71875 -4.722656 1.71875 -4.515625 C 1.71875 -4.316406 1.800781 -4.144531 1.96875 -4 C 2.132812 -3.863281 2.335938 -3.757812 2.578125 -3.6875 C 2.816406 -3.625 3.078125 -3.539062 3.359375 -3.4375 C 3.648438 -3.332031 3.914062 -3.222656 4.15625 -3.109375 C 4.394531 -3.003906 4.59375 -2.832031 4.75 -2.59375 C 4.914062 -2.351562 5 -2.0625 5 -1.71875 C 5 -1.1875 4.785156 -0.757812 4.359375 -0.4375 C 3.929688 -0.125 3.378906 0.03125 2.703125 0.03125 C 2.242188 0.03125 1.796875 -0.0507812 1.359375 -0.21875 C 0.929688 -0.394531 0.550781 -0.628906 0.21875 -0.921875 L 0.671875 -1.8125 C 0.972656 -1.53125 1.304688 -1.3125 1.671875 -1.15625 C 2.046875 -1 2.394531 -0.921875 2.71875 -0.921875 C 3.082031 -0.921875 3.363281 -0.984375 3.5625 -1.109375 C 3.757812 -1.242188 3.859375 -1.429688 3.859375 -1.671875 C 3.859375 -1.878906 3.773438 -2.050781 3.609375 -2.1875 C 3.453125 -2.332031 3.25 -2.4375 3 -2.5 C 2.757812 -2.5625 2.5 -2.640625 2.21875 -2.734375 C 1.9375 -2.835938 1.671875 -2.941406 1.421875 -3.046875 C 1.179688 -3.148438 0.976562 -3.320312 0.8125 -3.5625 C 0.65625 -3.800781 0.578125 -4.085938 0.578125 -4.421875 C 0.578125 -4.929688 0.78125 -5.335938 1.1875 -5.640625 C 1.59375 -5.953125 2.128906 -6.109375 2.796875 -6.109375 Z M 2.796875 -6.109375 "/></g></g></g><g fill="#02093d" fill-opacity="1"><g transform="translate(42.395667, 66.409027)"><g><path d="M 3.484375 -6.09375 C 3.910156 -6.09375 4.328125 -6.007812 4.734375 -5.84375 C 5.140625 -5.6875 5.492188 -5.457031 5.796875 -5.15625 L 5.1875 -4.40625 C 4.96875 -4.644531 4.707031 -4.832031 4.40625 -4.96875 C 4.113281 -5.113281 3.8125 -5.1875 3.5 -5.1875 C 2.894531 -5.1875 2.378906 -4.976562 1.953125 -4.5625 C 1.535156 -4.15625 1.328125 -3.648438 1.328125 -3.046875 C 1.328125 -2.453125 1.535156 -1.945312 1.953125 -1.53125 C 2.378906 -1.113281 2.894531 -0.90625 3.5 -0.90625 C 4.132812 -0.90625 4.695312 -1.144531 5.1875 -1.625 L 5.796875 -0.953125 C 5.484375 -0.648438 5.117188 -0.40625 4.703125 -0.21875 C 4.285156 -0.0390625 3.867188 0.046875 3.453125 0.046875 C 2.554688 0.046875 1.804688 -0.25 1.203125 -0.84375 C 0.597656 -1.4375 0.296875 -2.171875 0.296875 -3.046875 C 0.296875 -3.898438 0.601562 -4.617188 1.21875 -5.203125 C 1.832031 -5.796875 2.585938 -6.09375 3.484375 -6.09375 Z M 3.484375 -6.09375 "/></g></g></g><g fill="#02093d" fill-opacity="1"><g transform="translate(48.442177, 66.409027)"><g><path d="M 1.21875 -5.203125 C 1.84375 -5.796875 2.609375 -6.09375 3.515625 -6.09375 C 4.421875 -6.09375 5.179688 -5.796875 5.796875 -5.203125 C 6.421875 -4.617188 6.734375 -3.894531 6.734375 -3.03125 C 6.734375 -2.164062 6.421875 -1.4375 5.796875 -0.84375 C 5.179688 -0.25 4.421875 0.046875 3.515625 0.046875 C 2.609375 0.046875 1.84375 -0.25 1.21875 -0.84375 C 0.601562 -1.4375 0.296875 -2.164062 0.296875 -3.03125 C 0.296875 -3.894531 0.601562 -4.617188 1.21875 -5.203125 Z M 3.515625 -5.171875 C 2.921875 -5.171875 2.40625 -4.960938 1.96875 -4.546875 C 1.539062 -4.140625 1.328125 -3.632812 1.328125 -3.03125 C 1.328125 -2.4375 1.539062 -1.925781 1.96875 -1.5 C 2.40625 -1.082031 2.921875 -0.875 3.515625 -0.875 C 4.109375 -0.875 4.617188 -1.082031 5.046875 -1.5 C 5.472656 -1.925781 5.6875 -2.4375 5.6875 -3.03125 C 5.6875 -3.632812 5.472656 -4.140625 5.046875 -4.546875 C 4.617188 -4.960938 4.109375 -5.171875 3.515625 -5.171875 Z M 3.515625 -5.171875 "/></g></g></g><g fill="#02093d" fill-opacity="1"><g transform="translate(55.468969, 66.409027)"><g><path d="M 5.953125 -6.0625 L 5.953125 -2.515625 C 5.953125 -1.722656 5.71875 -1.097656 5.25 -0.640625 C 4.78125 -0.179688 4.132812 0.046875 3.3125 0.046875 C 2.5 0.046875 1.851562 -0.179688 1.375 -0.640625 C 0.90625 -1.097656 0.671875 -1.722656 0.671875 -2.515625 L 0.671875 -6.0625 L 1.703125 -6.0625 L 1.703125 -2.515625 C 1.703125 -2.003906 1.847656 -1.601562 2.140625 -1.3125 C 2.429688 -1.019531 2.828125 -0.875 3.328125 -0.875 C 3.828125 -0.875 4.21875 -1.019531 4.5 -1.3125 C 4.789062 -1.601562 4.9375 -2.003906 4.9375 -2.515625 L 4.9375 -6.0625 Z M 5.953125 -6.0625 "/></g></g></g><g fill="#02093d" fill-opacity="1"><g transform="translate(62.096707, 66.409027)"><g><path d="M 6.0625 0 L 5.0625 0 L 1.828125 -4.359375 L 1.828125 0 L 0.796875 0 L 0.796875 -6.0625 L 1.796875 -6.0625 L 5.0625 -1.703125 L 5.0625 -6.0625 L 6.0625 -6.0625 Z M 6.0625 0 "/></g></g></g><g fill="#02093d" fill-opacity="1"><g transform="translate(68.967346, 66.409027)"><g><path d="M 4.9375 -5.15625 L 3.015625 -5.15625 L 3.015625 0 L 2 0 L 2 -5.15625 L 0.078125 -5.15625 L 0.078125 -6.0625 L 4.9375 -6.0625 Z M 4.9375 -5.15625 "/></g></g></g><g fill="#02093d" fill-opacity="1"><g transform="translate(28.338456, 71.620326)"><g><path d="M 0.34375 -1.46875 C 0.519531 -1.632812 0.734375 -1.71875 0.984375 -1.71875 C 1.242188 -1.71875 1.457031 -1.632812 1.625 -1.46875 C 1.800781 -1.300781 1.890625 -1.09375 1.890625 -0.84375 C 1.890625 -0.601562 1.800781 -0.398438 1.625 -0.234375 C 1.457031 -0.0664062 1.242188 0.015625 0.984375 0.015625 C 0.734375 0.015625 0.519531 -0.0664062 0.34375 -0.234375 C 0.164062 -0.398438 0.078125 -0.601562 0.078125 -0.84375 C 0.078125 -1.09375 0.164062 -1.300781 0.34375 -1.46875 Z M 0.984375 -1.453125 C 0.816406 -1.453125 0.671875 -1.394531 0.546875 -1.28125 C 0.429688 -1.164062 0.375 -1.019531 0.375 -0.84375 C 0.375 -0.675781 0.429688 -0.535156 0.546875 -0.421875 C 0.671875 -0.304688 0.816406 -0.25 0.984375 -0.25 C 1.148438 -0.25 1.289062 -0.304688 1.40625 -0.421875 C 1.53125 -0.535156 1.59375 -0.675781 1.59375 -0.84375 C 1.59375 -1.019531 1.53125 -1.164062 1.40625 -1.28125 C 1.289062 -1.394531 1.148438 -1.453125 0.984375 -1.453125 Z M 0.984375 -1.453125 "/></g></g></g><g fill="#02093d" fill-opacity="1"><g transform="translate(31.418102, 71.620326)"><g><path d="M 1.703125 0 L 1.421875 0 L 0.515625 -1.21875 L 0.515625 0 L 0.21875 0 L 0.21875 -1.703125 L 0.5 -1.703125 L 1.421875 -0.484375 L 1.421875 -1.703125 L 1.703125 -1.703125 Z M 1.703125 0 "/></g></g></g><g fill="#02093d" fill-opacity="1"><g transform="translate(34.453756, 71.620326)"><g/></g></g><g fill="#02093d" fill-opacity="1"><g transform="translate(36.184309, 71.620326)"><g><path d="M 1.328125 -0.390625 L 0.46875 -0.390625 L 0.296875 0 L 0 0 L 0.75 -1.703125 L 1.046875 -1.703125 L 1.796875 0 L 1.484375 0 Z M 1.21875 -0.640625 L 0.890625 -1.40625 L 0.578125 -0.640625 Z M 1.21875 -0.640625 "/></g></g></g><g fill="#02093d" fill-opacity="1"><g transform="translate(39.087987, 71.620326)"><g><path d="M 0.515625 -0.265625 L 1.25 -0.265625 L 1.25 0 L 0.21875 0 L 0.21875 -1.703125 L 0.515625 -1.703125 Z M 0.515625 -0.265625 "/></g></g></g><g fill="#02093d" fill-opacity="1"><g transform="translate(41.493086, 71.620326)"><g><path d="M 0.515625 -0.265625 L 1.25 -0.265625 L 1.25 0 L 0.21875 0 L 0.21875 -1.703125 L 0.515625 -1.703125 Z M 0.515625 -0.265625 "/></g></g></g><g fill="#02093d" fill-opacity="1"><g transform="translate(43.898185, 71.620326)"><g/></g></g><g fill="#02093d" fill-opacity="1"><g transform="translate(45.628738, 71.620326)"><g><path d="M 0.34375 -1.46875 C 0.519531 -1.632812 0.734375 -1.71875 0.984375 -1.71875 C 1.242188 -1.71875 1.457031 -1.632812 1.625 -1.46875 C 1.800781 -1.300781 1.890625 -1.09375 1.890625 -0.84375 C 1.890625 -0.601562 1.800781 -0.398438 1.625 -0.234375 C 1.457031 -0.0664062 1.242188 0.015625 0.984375 0.015625 C 0.734375 0.015625 0.519531 -0.0664062 0.34375 -0.234375 C 0.164062 -0.398438 0.078125 -0.601562 0.078125 -0.84375 C 0.078125 -1.09375 0.164062 -1.300781 0.34375 -1.46875 Z M 0.984375 -1.453125 C 0.816406 -1.453125 0.671875 -1.394531 0.546875 -1.28125 C 0.429688 -1.164062 0.375 -1.019531 0.375 -0.84375 C 0.375 -0.675781 0.429688 -0.535156 0.546875 -0.421875 C 0.671875 -0.304688 0.816406 -0.25 0.984375 -0.25 C 1.148438 -0.25 1.289062 -0.304688 1.40625 -0.421875 C 1.53125 -0.535156 1.59375 -0.675781 1.59375 -0.84375 C 1.59375 -1.019531 1.53125 -1.164062 1.40625 -1.28125 C 1.289062 -1.394531 1.148438 -1.453125 0.984375 -1.453125 Z M 0.984375 -1.453125 "/></g></g></g><g fill="#02093d" fill-opacity="1"><g transform="translate(48.708384, 71.620326)"><g><path d="M 1.3125 0 L 1 -0.515625 C 0.976562 -0.515625 0.953125 -0.515625 0.921875 -0.515625 L 0.515625 -0.515625 L 0.515625 0 L 0.21875 0 L 0.21875 -1.703125 L 0.921875 -1.703125 C 1.140625 -1.703125 1.304688 -1.648438 1.421875 -1.546875 C 1.546875 -1.453125 1.609375 -1.3125 1.609375 -1.125 C 1.609375 -0.988281 1.578125 -0.875 1.515625 -0.78125 C 1.453125 -0.6875 1.363281 -0.617188 1.25 -0.578125 L 1.640625 0 Z M 0.515625 -0.765625 L 0.921875 -0.765625 C 1.191406 -0.765625 1.328125 -0.878906 1.328125 -1.109375 C 1.328125 -1.335938 1.191406 -1.453125 0.921875 -1.453125 L 0.515625 -1.453125 Z M 0.515625 -0.765625 "/></g></g></g><g fill="#02093d" fill-opacity="1"><g transform="translate(51.575402, 71.620326)"><g><path d="M 0.21875 -1.703125 L 0.921875 -1.703125 C 1.179688 -1.703125 1.394531 -1.617188 1.5625 -1.453125 C 1.726562 -1.296875 1.8125 -1.09375 1.8125 -0.84375 C 1.8125 -0.601562 1.722656 -0.398438 1.546875 -0.234375 C 1.378906 -0.078125 1.171875 0 0.921875 0 L 0.21875 0 Z M 0.515625 -1.453125 L 0.515625 -0.265625 L 0.9375 -0.265625 C 1.101562 -0.265625 1.238281 -0.316406 1.34375 -0.421875 C 1.457031 -0.535156 1.515625 -0.675781 1.515625 -0.84375 C 1.515625 -1.019531 1.457031 -1.164062 1.34375 -1.28125 C 1.226562 -1.394531 1.085938 -1.453125 0.921875 -1.453125 Z M 0.515625 -1.453125 "/></g></g></g><g fill="#02093d" fill-opacity="1"><g transform="translate(54.569507, 71.620326)"><g><path d="M 1.4375 -1.453125 L 0.515625 -1.453125 L 0.515625 -0.984375 L 1.34375 -0.984375 L 1.34375 -0.734375 L 0.515625 -0.734375 L 0.515625 -0.265625 L 1.46875 -0.265625 L 1.46875 0 L 0.21875 0 L 0.21875 -1.703125 L 1.4375 -1.703125 Z M 1.4375 -1.453125 "/></g></g></g><g fill="#02093d" fill-opacity="1"><g transform="translate(57.272777, 71.620326)"><g><path d="M 1.3125 0 L 1 -0.515625 C 0.976562 -0.515625 0.953125 -0.515625 0.921875 -0.515625 L 0.515625 -0.515625 L 0.515625 0 L 0.21875 0 L 0.21875 -1.703125 L 0.921875 -1.703125 C 1.140625 -1.703125 1.304688 -1.648438 1.421875 -1.546875 C 1.546875 -1.453125 1.609375 -1.3125 1.609375 -1.125 C 1.609375 -0.988281 1.578125 -0.875 1.515625 -0.78125 C 1.453125 -0.6875 1.363281 -0.617188 1.25 -0.578125 L 1.640625 0 Z M 0.515625 -0.765625 L 0.921875 -0.765625 C 1.191406 -0.765625 1.328125 -0.878906 1.328125 -1.109375 C 1.328125 -1.335938 1.191406 -1.453125 0.921875 -1.453125 L 0.515625 -1.453125 Z M 0.515625 -0.765625 "/></g></g></g><g fill="#02093d" fill-opacity="1"><g transform="translate(60.139794, 71.620326)"><g><path d="M 0.78125 -1.71875 C 1 -1.71875 1.195312 -1.660156 1.375 -1.546875 L 1.265625 -1.296875 C 1.085938 -1.398438 0.921875 -1.453125 0.765625 -1.453125 C 0.679688 -1.453125 0.613281 -1.4375 0.5625 -1.40625 C 0.507812 -1.375 0.484375 -1.328125 0.484375 -1.265625 C 0.484375 -1.210938 0.503906 -1.164062 0.546875 -1.125 C 0.597656 -1.082031 0.65625 -1.050781 0.71875 -1.03125 C 0.789062 -1.019531 0.863281 -1 0.9375 -0.96875 C 1.019531 -0.9375 1.09375 -0.90625 1.15625 -0.875 C 1.226562 -0.84375 1.285156 -0.789062 1.328125 -0.71875 C 1.378906 -0.65625 1.40625 -0.578125 1.40625 -0.484375 C 1.40625 -0.335938 1.34375 -0.21875 1.21875 -0.125 C 1.101562 -0.03125 0.953125 0.015625 0.765625 0.015625 C 0.628906 0.015625 0.5 -0.0078125 0.375 -0.0625 C 0.257812 -0.113281 0.15625 -0.179688 0.0625 -0.265625 L 0.1875 -0.515625 C 0.269531 -0.429688 0.363281 -0.367188 0.46875 -0.328125 C 0.570312 -0.285156 0.671875 -0.265625 0.765625 -0.265625 C 0.867188 -0.265625 0.945312 -0.28125 1 -0.3125 C 1.050781 -0.351562 1.078125 -0.40625 1.078125 -0.46875 C 1.078125 -0.53125 1.054688 -0.578125 1.015625 -0.609375 C 0.972656 -0.648438 0.914062 -0.679688 0.84375 -0.703125 C 0.78125 -0.722656 0.707031 -0.742188 0.625 -0.765625 C 0.539062 -0.796875 0.460938 -0.828125 0.390625 -0.859375 C 0.328125 -0.890625 0.269531 -0.9375 0.21875 -1 C 0.175781 -1.070312 0.15625 -1.15625 0.15625 -1.25 C 0.15625 -1.382812 0.210938 -1.492188 0.328125 -1.578125 C 0.441406 -1.671875 0.59375 -1.71875 0.78125 -1.71875 Z M 0.78125 -1.71875 "/></g></g></g></svg>