<svg xmlns="http://www.w3.org/2000/svg" xmlns:xlink="http://www.w3.org/1999/xlink" width="150" zoomAndPan="magnify" viewBox="0 0 112.5 112.499997" height="150" preserveAspectRatio="xMidYMid meet" version="1.0"><defs><g/><clipPath id="9830f4a820"><path d="M 0 0 L 112.003906 0 L 112.003906 112.003906 L 0 112.003906 Z M 0 0 " clip-rule="nonzero"/></clipPath><clipPath id="716232c057"><path d="M 78 59 L 89.519531 59 L 89.519531 70 L 78 70 Z M 78 59 " clip-rule="nonzero"/></clipPath><clipPath id="a44b13803a"><path d="M 82 65 L 88 65 L 88 71.25 L 82 71.25 Z M 82 65 " clip-rule="nonzero"/></clipPath><clipPath id="54dd33e90d"><path d="M 70 65 L 76 65 L 76 71.25 L 70 71.25 Z M 70 65 " clip-rule="nonzero"/></clipPath><clipPath id="1cc13c674a"><path d="M 64.019531 64 L 72 64 L 72 66 L 64.019531 66 Z M 64.019531 64 " clip-rule="nonzero"/></clipPath><clipPath id="0c76b5c36a"><path d="M 68 56.25 L 83 56.25 L 83 70 L 68 70 Z M 68 56.25 " clip-rule="nonzero"/></clipPath><clipPath id="78b0303d59"><path d="M 0 66 L 112.003906 66 L 112.003906 76 L 0 76 Z M 0 66 " clip-rule="nonzero"/></clipPath><clipPath id="8d8f25ccf7"><path d="M 22.890625 82.5625 L 31.382812 82.5625 L 31.382812 83.890625 L 22.890625 83.890625 Z M 22.890625 82.5625 " clip-rule="nonzero"/></clipPath><clipPath id="e942ef07a3"><path d="M 23.554688 82.5625 L 30.714844 82.5625 C 30.890625 82.5625 31.0625 82.632812 31.1875 82.757812 C 31.3125 82.882812 31.382812 83.050781 31.382812 83.226562 C 31.382812 83.402344 31.3125 83.574219 31.1875 83.699219 C 31.0625 83.824219 30.890625 83.890625 30.714844 83.890625 L 23.554688 83.890625 C 23.378906 83.890625 23.210938 83.824219 23.085938 83.699219 C 22.960938 83.574219 22.890625 83.402344 22.890625 83.226562 C 22.890625 83.050781 22.960938 82.882812 23.085938 82.757812 C 23.210938 82.632812 23.378906 82.5625 23.554688 82.5625 Z M 23.554688 82.5625 " clip-rule="nonzero"/></clipPath><clipPath id="b788f398a3"><path d="M 24.109375 79.070312 L 31.382812 79.070312 L 31.382812 80.402344 L 24.109375 80.402344 Z M 24.109375 79.070312 " clip-rule="nonzero"/></clipPath><clipPath id="379da7c3db"><path d="M 24.773438 79.070312 L 30.714844 79.070312 C 30.890625 79.070312 31.0625 79.140625 31.1875 79.265625 C 31.3125 79.390625 31.382812 79.558594 31.382812 79.734375 C 31.382812 79.910156 31.3125 80.082031 31.1875 80.207031 C 31.0625 80.332031 30.890625 80.402344 30.714844 80.402344 L 24.773438 80.402344 C 24.597656 80.402344 24.425781 80.332031 24.304688 80.207031 C 24.179688 80.082031 24.109375 79.910156 24.109375 79.734375 C 24.109375 79.558594 24.179688 79.390625 24.304688 79.265625 C 24.425781 79.140625 24.597656 79.070312 24.773438 79.070312 Z M 24.773438 79.070312 " clip-rule="nonzero"/></clipPath><clipPath id="b2f84e1c44"><path d="M 25.167969 75.578125 L 31.382812 75.578125 L 31.382812 76.910156 L 25.167969 76.910156 Z M 25.167969 75.578125 " clip-rule="nonzero"/></clipPath><clipPath id="07c55b31f4"><path d="M 25.835938 75.578125 L 30.714844 75.578125 C 30.890625 75.578125 31.0625 75.648438 31.1875 75.773438 C 31.3125 75.898438 31.382812 76.066406 31.382812 76.242188 C 31.382812 76.421875 31.3125 76.589844 31.1875 76.714844 C 31.0625 76.839844 30.890625 76.910156 30.714844 76.910156 L 25.835938 76.910156 C 25.65625 76.910156 25.488281 76.839844 25.363281 76.714844 C 25.238281 76.589844 25.167969 76.421875 25.167969 76.242188 C 25.167969 76.066406 25.238281 75.898438 25.363281 75.773438 C 25.488281 75.648438 25.65625 75.578125 25.835938 75.578125 Z M 25.835938 75.578125 " clip-rule="nonzero"/></clipPath></defs><g clip-path="url(#9830f4a820)"><path fill="#ffffff" d="M 0 0 L 112.5 0 L 112.5 112.5 L 0 112.5 Z M 0 0 " fill-opacity="1" fill-rule="nonzero"/><path fill="#f8f3ed" d="M 0 0 L 112.5 0 L 112.5 112.5 L 0 112.5 Z M 0 0 " fill-opacity="1" fill-rule="nonzero"/></g><path fill="#a8814d" d="M 70.925781 69.105469 L 68.800781 69.105469 C 68.507812 69.105469 68.269531 68.867188 68.269531 68.570312 C 68.269531 68.273438 68.507812 68.035156 68.800781 68.035156 L 70.925781 68.035156 C 71.222656 68.035156 71.457031 68.273438 71.457031 68.570312 C 71.457031 68.867188 71.222656 69.105469 70.925781 69.105469 Z M 70.925781 69.105469 " fill-opacity="1" fill-rule="nonzero"/><g clip-path="url(#716232c057)"><path fill="#a8814d" d="M 88.191406 69.105469 L 86.863281 69.105469 C 86.570312 69.105469 86.332031 68.867188 86.332031 68.570312 C 86.332031 68.273438 86.570312 68.035156 86.863281 68.035156 L 87.753906 68.035156 L 88.46875 64.1875 C 88.457031 62.21875 86.789062 60.535156 84.738281 60.535156 L 81.253906 60.535156 L 79.5625 68.035156 L 82.613281 68.035156 C 82.910156 68.035156 83.144531 68.273438 83.144531 68.570312 C 83.144531 68.867188 82.910156 69.105469 82.613281 69.105469 L 78.894531 69.105469 C 78.734375 69.105469 78.582031 69.03125 78.480469 68.902344 C 78.378906 68.777344 78.34375 68.609375 78.378906 68.453125 L 80.308594 59.882812 C 80.363281 59.636719 80.578125 59.464844 80.828125 59.464844 L 84.738281 59.464844 C 87.375 59.464844 89.519531 61.628906 89.519531 64.285156 L 88.714844 68.667969 C 88.667969 68.921875 88.449219 69.105469 88.191406 69.105469 Z M 88.191406 69.105469 " fill-opacity="1" fill-rule="nonzero"/></g><g clip-path="url(#a44b13803a)"><path fill="#a8814d" d="M 84.738281 71.246094 C 83.277344 71.246094 82.082031 70.046875 82.082031 68.570312 C 82.082031 67.09375 83.277344 65.890625 84.738281 65.890625 C 86.203125 65.890625 87.394531 67.09375 87.394531 68.570312 C 87.394531 70.046875 86.203125 71.246094 84.738281 71.246094 Z M 84.738281 66.964844 C 83.863281 66.964844 83.144531 67.683594 83.144531 68.570312 C 83.144531 69.457031 83.863281 70.175781 84.738281 70.175781 C 85.617188 70.175781 86.332031 69.457031 86.332031 68.570312 C 86.332031 67.683594 85.617188 66.964844 84.738281 66.964844 Z M 84.738281 66.964844 " fill-opacity="1" fill-rule="nonzero"/></g><g clip-path="url(#54dd33e90d)"><path fill="#a8814d" d="M 73.050781 71.246094 C 71.589844 71.246094 70.394531 70.046875 70.394531 68.570312 C 70.394531 67.09375 71.589844 65.890625 73.050781 65.890625 C 74.515625 65.890625 75.707031 67.09375 75.707031 68.570312 C 75.707031 70.046875 74.515625 71.246094 73.050781 71.246094 Z M 73.050781 66.964844 C 72.175781 66.964844 71.457031 67.683594 71.457031 68.570312 C 71.457031 69.457031 72.175781 70.175781 73.050781 70.175781 C 73.929688 70.175781 74.644531 69.457031 74.644531 68.570312 C 74.644531 67.683594 73.929688 66.964844 73.050781 66.964844 Z M 73.050781 66.964844 " fill-opacity="1" fill-rule="nonzero"/></g><path fill="#a8814d" d="M 70.925781 59.464844 L 66.675781 59.464844 C 66.382812 59.464844 66.144531 59.226562 66.144531 58.929688 C 66.144531 58.632812 66.382812 58.394531 66.675781 58.394531 L 70.925781 58.394531 C 71.222656 58.394531 71.457031 58.632812 71.457031 58.929688 C 71.457031 59.226562 71.222656 59.464844 70.925781 59.464844 Z M 70.925781 59.464844 " fill-opacity="1" fill-rule="nonzero"/><path fill="#a8814d" d="M 70.925781 62.679688 L 65.613281 62.679688 C 65.320312 62.679688 65.082031 62.4375 65.082031 62.144531 C 65.082031 61.847656 65.320312 61.609375 65.613281 61.609375 L 70.925781 61.609375 C 71.222656 61.609375 71.457031 61.847656 71.457031 62.144531 C 71.457031 62.4375 71.222656 62.679688 70.925781 62.679688 Z M 70.925781 62.679688 " fill-opacity="1" fill-rule="nonzero"/><g clip-path="url(#1cc13c674a)"><path fill="#a8814d" d="M 70.925781 65.890625 L 64.550781 65.890625 C 64.257812 65.890625 64.019531 65.652344 64.019531 65.355469 C 64.019531 65.0625 64.257812 64.820312 64.550781 64.820312 L 70.925781 64.820312 C 71.222656 64.820312 71.457031 65.0625 71.457031 65.355469 C 71.457031 65.652344 71.222656 65.890625 70.925781 65.890625 Z M 70.925781 65.890625 " fill-opacity="1" fill-rule="nonzero"/></g><g clip-path="url(#0c76b5c36a)"><path fill="#a8814d" d="M 78.894531 69.105469 L 75.175781 69.105469 C 74.882812 69.105469 74.644531 68.867188 74.644531 68.570312 C 74.644531 68.273438 74.882812 68.035156 75.175781 68.035156 L 78.472656 68.035156 L 80.886719 57.324219 L 68.800781 57.324219 C 68.507812 57.324219 68.269531 57.082031 68.269531 56.789062 C 68.269531 56.492188 68.507812 56.253906 68.800781 56.253906 L 81.550781 56.253906 C 81.714844 56.253906 81.867188 56.328125 81.96875 56.453125 C 82.070312 56.582031 82.105469 56.746094 82.070312 56.90625 L 79.414062 68.6875 C 79.359375 68.933594 79.144531 69.105469 78.894531 69.105469 Z M 78.894531 69.105469 " fill-opacity="1" fill-rule="nonzero"/></g><g clip-path="url(#78b0303d59)"><path stroke-linecap="butt" transform="matrix(0.75126, 0.000727091, -0.000725871, 0.75, 0.00090877, 70.824086)" fill="none" stroke-linejoin="miter" d="M -0.000726386 0.500178 L 176.707693 0.500743 " stroke="#a8814d" stroke-width="1" stroke-opacity="1" stroke-miterlimit="4"/></g><g fill="#02093d" fill-opacity="1"><g transform="translate(7.425545, 66.009435)"><g><path d="M 3.484375 -7.640625 C 4.472656 -7.640625 5.359375 -7.378906 6.140625 -6.859375 L 5.609375 -5.734375 C 4.835938 -6.203125 4.097656 -6.4375 3.390625 -6.4375 C 3.003906 -6.4375 2.703125 -6.367188 2.484375 -6.234375 C 2.265625 -6.097656 2.15625 -5.898438 2.15625 -5.640625 C 2.15625 -5.390625 2.253906 -5.175781 2.453125 -5 C 2.660156 -4.820312 2.914062 -4.691406 3.21875 -4.609375 C 3.519531 -4.523438 3.847656 -4.421875 4.203125 -4.296875 C 4.554688 -4.171875 4.882812 -4.035156 5.1875 -3.890625 C 5.5 -3.753906 5.753906 -3.535156 5.953125 -3.234375 C 6.148438 -2.929688 6.25 -2.566406 6.25 -2.140625 C 6.25 -1.484375 5.984375 -0.953125 5.453125 -0.546875 C 4.921875 -0.148438 4.234375 0.046875 3.390625 0.046875 C 2.804688 0.046875 2.242188 -0.0625 1.703125 -0.28125 C 1.160156 -0.5 0.6875 -0.789062 0.28125 -1.15625 L 0.828125 -2.265625 C 1.210938 -1.910156 1.632812 -1.632812 2.09375 -1.4375 C 2.550781 -1.25 2.988281 -1.15625 3.40625 -1.15625 C 3.851562 -1.15625 4.203125 -1.234375 4.453125 -1.390625 C 4.703125 -1.554688 4.828125 -1.785156 4.828125 -2.078125 C 4.828125 -2.335938 4.722656 -2.554688 4.515625 -2.734375 C 4.316406 -2.910156 4.066406 -3.039062 3.765625 -3.125 C 3.460938 -3.207031 3.132812 -3.304688 2.78125 -3.421875 C 2.425781 -3.546875 2.09375 -3.675781 1.78125 -3.8125 C 1.476562 -3.945312 1.222656 -4.160156 1.015625 -4.453125 C 0.816406 -4.753906 0.71875 -5.113281 0.71875 -5.53125 C 0.71875 -6.175781 0.972656 -6.6875 1.484375 -7.0625 C 1.992188 -7.445312 2.660156 -7.640625 3.484375 -7.640625 Z M 3.484375 -7.640625 "/></g></g></g><g fill="#02093d" fill-opacity="1"><g transform="translate(14.170444, 66.009435)"><g><path d="M 7.578125 0 L 6.296875 0 L 6.296875 -3.140625 L 2.28125 -3.140625 L 2.28125 0 L 1 0 L 1 -7.59375 L 2.28125 -7.59375 L 2.28125 -4.296875 L 6.296875 -4.296875 L 6.296875 -7.59375 L 7.578125 -7.59375 Z M 7.578125 0 "/></g></g></g><g fill="#02093d" fill-opacity="1"><g transform="translate(22.747963, 66.009435)"><g><path d="M 2.28125 0 L 1 0 L 1 -7.59375 L 2.28125 -7.59375 Z M 2.28125 0 "/></g></g></g><g fill="#02093d" fill-opacity="1"><g transform="translate(26.022817, 66.009435)"><g><path d="M 1 -7.59375 L 4.015625 -7.59375 C 4.972656 -7.59375 5.710938 -7.363281 6.234375 -6.90625 C 6.765625 -6.457031 7.03125 -5.820312 7.03125 -5 C 7.03125 -4.132812 6.765625 -3.460938 6.234375 -2.984375 C 5.710938 -2.515625 4.972656 -2.28125 4.015625 -2.28125 L 2.28125 -2.28125 L 2.28125 0 L 1 0 Z M 2.28125 -6.4375 L 2.28125 -3.4375 L 3.96875 -3.4375 C 5.1875 -3.4375 5.796875 -3.945312 5.796875 -4.96875 C 5.796875 -5.945312 5.1875 -6.4375 3.96875 -6.4375 Z M 2.28125 -6.4375 "/></g></g></g><g fill="#02093d" fill-opacity="1"><g transform="translate(33.320751, 66.009435)"><g><path d="M 1 -7.59375 L 4.015625 -7.59375 C 4.972656 -7.59375 5.710938 -7.363281 6.234375 -6.90625 C 6.765625 -6.457031 7.03125 -5.820312 7.03125 -5 C 7.03125 -4.132812 6.765625 -3.460938 6.234375 -2.984375 C 5.710938 -2.515625 4.972656 -2.28125 4.015625 -2.28125 L 2.28125 -2.28125 L 2.28125 0 L 1 0 Z M 2.28125 -6.4375 L 2.28125 -3.4375 L 3.96875 -3.4375 C 5.1875 -3.4375 5.796875 -3.945312 5.796875 -4.96875 C 5.796875 -5.945312 5.1875 -6.4375 3.96875 -6.4375 Z M 2.28125 -6.4375 "/></g></g></g><g fill="#02093d" fill-opacity="1"><g transform="translate(40.618685, 66.009435)"><g><path d="M 2.28125 0 L 1 0 L 1 -7.59375 L 2.28125 -7.59375 Z M 2.28125 0 "/></g></g></g><g fill="#02093d" fill-opacity="1"><g transform="translate(43.893538, 66.009435)"><g><path d="M 7.578125 0 L 6.328125 0 L 2.28125 -5.4375 L 2.28125 0 L 1 0 L 1 -7.59375 L 2.25 -7.59375 L 6.328125 -2.140625 L 6.328125 -7.59375 L 7.578125 -7.59375 Z M 7.578125 0 "/></g></g></g><g fill="#02093d" fill-opacity="1"><g transform="translate(52.481908, 66.009435)"><g><path d="M 6.1875 -3.734375 L 7.3125 -3.734375 L 7.3125 -0.9375 C 6.914062 -0.632812 6.453125 -0.394531 5.921875 -0.21875 C 5.390625 -0.0390625 4.867188 0.046875 4.359375 0.046875 C 3.234375 0.046875 2.285156 -0.320312 1.515625 -1.0625 C 0.753906 -1.800781 0.375 -2.710938 0.375 -3.796875 C 0.375 -4.878906 0.765625 -5.785156 1.546875 -6.515625 C 2.328125 -7.253906 3.289062 -7.625 4.4375 -7.625 C 4.96875 -7.625 5.488281 -7.523438 6 -7.328125 C 6.519531 -7.140625 6.972656 -6.882812 7.359375 -6.5625 L 6.625 -5.609375 C 6 -6.191406 5.269531 -6.484375 4.4375 -6.484375 C 3.664062 -6.484375 3.007812 -6.222656 2.46875 -5.703125 C 1.9375 -5.179688 1.671875 -4.546875 1.671875 -3.796875 C 1.671875 -3.035156 1.9375 -2.394531 2.46875 -1.875 C 3.007812 -1.351562 3.671875 -1.09375 4.453125 -1.09375 C 5.035156 -1.09375 5.613281 -1.265625 6.1875 -1.609375 Z M 6.1875 -3.734375 "/></g></g></g><g clip-path="url(#8d8f25ccf7)"><g clip-path="url(#e942ef07a3)"><path fill="#a8814d" d="M 22.890625 82.5625 L 31.382812 82.5625 L 31.382812 83.890625 L 22.890625 83.890625 Z M 22.890625 82.5625 " fill-opacity="1" fill-rule="nonzero"/></g></g><g clip-path="url(#b788f398a3)"><g clip-path="url(#379da7c3db)"><path fill="#a8814d" d="M 24.109375 79.070312 L 31.382812 79.070312 L 31.382812 80.402344 L 24.109375 80.402344 Z M 24.109375 79.070312 " fill-opacity="1" fill-rule="nonzero"/></g></g><g clip-path="url(#b2f84e1c44)"><g clip-path="url(#07c55b31f4)"><path fill="#a8814d" d="M 25.167969 75.578125 L 31.382812 75.578125 L 31.382812 76.910156 L 25.167969 76.910156 Z M 25.167969 75.578125 " fill-opacity="1" fill-rule="nonzero"/></g></g><g fill="#02093d" fill-opacity="1"><g transform="translate(34.570944, 83.011283)"><g><path d="M 1 -7.59375 L 4.109375 -7.59375 C 5.242188 -7.59375 6.179688 -7.234375 6.921875 -6.515625 C 7.660156 -5.796875 8.03125 -4.882812 8.03125 -3.78125 C 8.03125 -2.6875 7.65625 -1.78125 6.90625 -1.0625 C 6.164062 -0.351562 5.222656 0 4.078125 0 L 1 0 Z M 2.28125 -6.4375 L 2.28125 -1.15625 L 4.140625 -1.15625 C 4.890625 -1.15625 5.507812 -1.398438 6 -1.890625 C 6.5 -2.390625 6.75 -3.019531 6.75 -3.78125 C 6.75 -4.550781 6.492188 -5.1875 5.984375 -5.6875 C 5.472656 -6.1875 4.84375 -6.4375 4.09375 -6.4375 Z M 2.28125 -6.4375 "/></g></g></g><g fill="#02093d" fill-opacity="1"><g transform="translate(42.974898, 83.011283)"><g><path d="M 2.28125 0 L 1 0 L 1 -7.59375 L 2.28125 -7.59375 Z M 2.28125 0 "/></g></g></g><g fill="#02093d" fill-opacity="1"><g transform="translate(46.249729, 83.011283)"><g><path d="M 3.484375 -7.640625 C 4.472656 -7.640625 5.359375 -7.378906 6.140625 -6.859375 L 5.609375 -5.734375 C 4.835938 -6.203125 4.097656 -6.4375 3.390625 -6.4375 C 3.003906 -6.4375 2.703125 -6.367188 2.484375 -6.234375 C 2.265625 -6.097656 2.15625 -5.898438 2.15625 -5.640625 C 2.15625 -5.390625 2.253906 -5.175781 2.453125 -5 C 2.660156 -4.820312 2.914062 -4.691406 3.21875 -4.609375 C 3.519531 -4.523438 3.847656 -4.421875 4.203125 -4.296875 C 4.554688 -4.171875 4.882812 -4.035156 5.1875 -3.890625 C 5.5 -3.753906 5.753906 -3.535156 5.953125 -3.234375 C 6.148438 -2.929688 6.25 -2.566406 6.25 -2.140625 C 6.25 -1.484375 5.984375 -0.953125 5.453125 -0.546875 C 4.921875 -0.148438 4.234375 0.046875 3.390625 0.046875 C 2.804688 0.046875 2.242188 -0.0625 1.703125 -0.28125 C 1.160156 -0.5 0.6875 -0.789062 0.28125 -1.15625 L 0.828125 -2.265625 C 1.210938 -1.910156 1.632812 -1.632812 2.09375 -1.4375 C 2.550781 -1.25 2.988281 -1.15625 3.40625 -1.15625 C 3.851562 -1.15625 4.203125 -1.234375 4.453125 -1.390625 C 4.703125 -1.554688 4.828125 -1.785156 4.828125 -2.078125 C 4.828125 -2.335938 4.722656 -2.554688 4.515625 -2.734375 C 4.316406 -2.910156 4.066406 -3.039062 3.765625 -3.125 C 3.460938 -3.207031 3.132812 -3.304688 2.78125 -3.421875 C 2.425781 -3.546875 2.09375 -3.675781 1.78125 -3.8125 C 1.476562 -3.945312 1.222656 -4.160156 1.015625 -4.453125 C 0.816406 -4.753906 0.71875 -5.113281 0.71875 -5.53125 C 0.71875 -6.175781 0.972656 -6.6875 1.484375 -7.0625 C 1.992188 -7.445312 2.660156 -7.640625 3.484375 -7.640625 Z M 3.484375 -7.640625 "/></g></g></g><g fill="#02093d" fill-opacity="1"><g transform="translate(52.994581, 83.011283)"><g><path d="M 4.359375 -7.625 C 4.890625 -7.625 5.410156 -7.519531 5.921875 -7.3125 C 6.429688 -7.101562 6.875 -6.816406 7.25 -6.453125 L 6.5 -5.515625 C 6.21875 -5.816406 5.890625 -6.050781 5.515625 -6.21875 C 5.140625 -6.394531 4.757812 -6.484375 4.375 -6.484375 C 3.625 -6.484375 2.984375 -6.222656 2.453125 -5.703125 C 1.929688 -5.191406 1.671875 -4.5625 1.671875 -3.8125 C 1.671875 -3.0625 1.929688 -2.425781 2.453125 -1.90625 C 2.984375 -1.394531 3.625 -1.140625 4.375 -1.140625 C 5.164062 -1.140625 5.875 -1.4375 6.5 -2.03125 L 7.25 -1.1875 C 6.863281 -0.8125 6.410156 -0.507812 5.890625 -0.28125 C 5.367188 -0.0625 4.84375 0.046875 4.3125 0.046875 C 3.195312 0.046875 2.257812 -0.320312 1.5 -1.0625 C 0.75 -1.800781 0.375 -2.71875 0.375 -3.8125 C 0.375 -4.882812 0.753906 -5.785156 1.515625 -6.515625 C 2.285156 -7.253906 3.234375 -7.625 4.359375 -7.625 Z M 4.359375 -7.625 "/></g></g></g><g fill="#02093d" fill-opacity="1"><g transform="translate(60.552718, 83.011283)"><g><path d="M 1.53125 -6.515625 C 2.300781 -7.253906 3.253906 -7.625 4.390625 -7.625 C 5.523438 -7.625 6.476562 -7.253906 7.25 -6.515625 C 8.03125 -5.785156 8.421875 -4.878906 8.421875 -3.796875 C 8.421875 -2.710938 8.03125 -1.800781 7.25 -1.0625 C 6.476562 -0.320312 5.523438 0.046875 4.390625 0.046875 C 3.253906 0.046875 2.300781 -0.320312 1.53125 -1.0625 C 0.757812 -1.800781 0.375 -2.710938 0.375 -3.796875 C 0.375 -4.878906 0.757812 -5.785156 1.53125 -6.515625 Z M 4.40625 -6.46875 C 3.65625 -6.46875 3.007812 -6.207031 2.46875 -5.6875 C 1.9375 -5.175781 1.671875 -4.546875 1.671875 -3.796875 C 1.671875 -3.046875 1.9375 -2.40625 2.46875 -1.875 C 3.007812 -1.351562 3.648438 -1.09375 4.390625 -1.09375 C 5.140625 -1.09375 5.78125 -1.351562 6.3125 -1.875 C 6.84375 -2.40625 7.109375 -3.046875 7.109375 -3.796875 C 7.109375 -4.546875 6.84375 -5.175781 6.3125 -5.6875 C 5.78125 -6.207031 5.144531 -6.46875 4.40625 -6.46875 Z M 4.40625 -6.46875 "/></g></g></g><g fill="#02093d" fill-opacity="1"><g transform="translate(69.336208, 83.011283)"><g><path d="M 7.453125 -7.59375 L 7.453125 -3.140625 C 7.453125 -2.148438 7.15625 -1.367188 6.5625 -0.796875 C 5.976562 -0.234375 5.171875 0.046875 4.140625 0.046875 C 3.117188 0.046875 2.3125 -0.234375 1.71875 -0.796875 C 1.132812 -1.367188 0.84375 -2.148438 0.84375 -3.140625 L 0.84375 -7.59375 L 2.125 -7.59375 L 2.125 -3.140625 C 2.125 -2.503906 2.304688 -2.003906 2.671875 -1.640625 C 3.035156 -1.273438 3.53125 -1.09375 4.15625 -1.09375 C 4.78125 -1.09375 5.269531 -1.269531 5.625 -1.625 C 5.988281 -1.988281 6.171875 -2.492188 6.171875 -3.140625 L 6.171875 -7.59375 Z M 7.453125 -7.59375 "/></g></g></g><g fill="#02093d" fill-opacity="1"><g transform="translate(77.62088, 83.011283)"><g><path d="M 7.578125 0 L 6.328125 0 L 2.28125 -5.4375 L 2.28125 0 L 1 0 L 1 -7.59375 L 2.25 -7.59375 L 6.328125 -2.140625 L 6.328125 -7.59375 L 7.578125 -7.59375 Z M 7.578125 0 "/></g></g></g><g fill="#02093d" fill-opacity="1"><g transform="translate(86.209177, 83.011283)"><g><path d="M 6.1875 -6.4375 L 3.78125 -6.4375 L 3.78125 0 L 2.5 0 L 2.5 -6.4375 L 0.09375 -6.4375 L 0.09375 -7.59375 L 6.1875 -7.59375 Z M 6.1875 -6.4375 "/></g></g></g><g fill="#02093d" fill-opacity="1"><g transform="translate(35.42307, 89.525397)"><g><path d="M 0.4375 -1.84375 C 0.65625 -2.050781 0.921875 -2.15625 1.234375 -2.15625 C 1.554688 -2.15625 1.828125 -2.050781 2.046875 -1.84375 C 2.265625 -1.632812 2.375 -1.375 2.375 -1.0625 C 2.375 -0.757812 2.265625 -0.503906 2.046875 -0.296875 C 1.828125 -0.0859375 1.554688 0.015625 1.234375 0.015625 C 0.921875 0.015625 0.65625 -0.0859375 0.4375 -0.296875 C 0.21875 -0.503906 0.109375 -0.757812 0.109375 -1.0625 C 0.109375 -1.375 0.21875 -1.632812 0.4375 -1.84375 Z M 1.25 -1.828125 C 1.03125 -1.828125 0.84375 -1.753906 0.6875 -1.609375 C 0.539062 -1.460938 0.46875 -1.28125 0.46875 -1.0625 C 0.46875 -0.851562 0.539062 -0.675781 0.6875 -0.53125 C 0.84375 -0.382812 1.023438 -0.3125 1.234375 -0.3125 C 1.453125 -0.3125 1.632812 -0.382812 1.78125 -0.53125 C 1.925781 -0.675781 2 -0.851562 2 -1.0625 C 2 -1.28125 1.925781 -1.460938 1.78125 -1.609375 C 1.632812 -1.753906 1.457031 -1.828125 1.25 -1.828125 Z M 1.25 -1.828125 "/></g></g></g><g fill="#02093d" fill-opacity="1"><g transform="translate(39.272628, 89.525397)"><g><path d="M 2.140625 0 L 1.78125 0 L 0.640625 -1.53125 L 0.640625 0 L 0.28125 0 L 0.28125 -2.140625 L 0.640625 -2.140625 L 1.78125 -0.609375 L 1.78125 -2.140625 L 2.140625 -2.140625 Z M 2.140625 0 "/></g></g></g><g fill="#02093d" fill-opacity="1"><g transform="translate(43.067195, 89.525397)"><g/></g></g><g fill="#02093d" fill-opacity="1"><g transform="translate(45.230387, 89.525397)"><g><path d="M 1.671875 -0.484375 L 0.578125 -0.484375 L 0.375 0 L 0 0 L 0.953125 -2.140625 L 1.3125 -2.140625 L 2.25 0 L 1.875 0 Z M 1.53125 -0.8125 L 1.125 -1.765625 L 0.71875 -0.8125 Z M 1.53125 -0.8125 "/></g></g></g><g fill="#02093d" fill-opacity="1"><g transform="translate(48.859984, 89.525397)"><g><path d="M 0.640625 -0.328125 L 1.578125 -0.328125 L 1.578125 0 L 0.28125 0 L 0.28125 -2.140625 L 0.640625 -2.140625 Z M 0.640625 -0.328125 "/></g></g></g><g fill="#02093d" fill-opacity="1"><g transform="translate(51.866358, 89.525397)"><g><path d="M 0.640625 -0.328125 L 1.578125 -0.328125 L 1.578125 0 L 0.28125 0 L 0.28125 -2.140625 L 0.640625 -2.140625 Z M 0.640625 -0.328125 "/></g></g></g><g fill="#02093d" fill-opacity="1"><g transform="translate(54.872732, 89.525397)"><g/></g></g><g fill="#02093d" fill-opacity="1"><g transform="translate(57.035922, 89.525397)"><g><path d="M 0.4375 -1.84375 C 0.65625 -2.050781 0.921875 -2.15625 1.234375 -2.15625 C 1.554688 -2.15625 1.828125 -2.050781 2.046875 -1.84375 C 2.265625 -1.632812 2.375 -1.375 2.375 -1.0625 C 2.375 -0.757812 2.265625 -0.503906 2.046875 -0.296875 C 1.828125 -0.0859375 1.554688 0.015625 1.234375 0.015625 C 0.921875 0.015625 0.65625 -0.0859375 0.4375 -0.296875 C 0.21875 -0.503906 0.109375 -0.757812 0.109375 -1.0625 C 0.109375 -1.375 0.21875 -1.632812 0.4375 -1.84375 Z M 1.25 -1.828125 C 1.03125 -1.828125 0.84375 -1.753906 0.6875 -1.609375 C 0.539062 -1.460938 0.46875 -1.28125 0.46875 -1.0625 C 0.46875 -0.851562 0.539062 -0.675781 0.6875 -0.53125 C 0.84375 -0.382812 1.023438 -0.3125 1.234375 -0.3125 C 1.453125 -0.3125 1.632812 -0.382812 1.78125 -0.53125 C 1.925781 -0.675781 2 -0.851562 2 -1.0625 C 2 -1.28125 1.925781 -1.460938 1.78125 -1.609375 C 1.632812 -1.753906 1.457031 -1.828125 1.25 -1.828125 Z M 1.25 -1.828125 "/></g></g></g><g fill="#02093d" fill-opacity="1"><g transform="translate(60.88548, 89.525397)"><g><path d="M 1.640625 0 L 1.25 -0.65625 C 1.226562 -0.644531 1.195312 -0.640625 1.15625 -0.640625 L 0.640625 -0.640625 L 0.640625 0 L 0.28125 0 L 0.28125 -2.140625 L 1.15625 -2.140625 C 1.425781 -2.140625 1.632812 -2.078125 1.78125 -1.953125 C 1.9375 -1.828125 2.015625 -1.644531 2.015625 -1.40625 C 2.015625 -1.238281 1.972656 -1.09375 1.890625 -0.96875 C 1.816406 -0.851562 1.710938 -0.769531 1.578125 -0.71875 L 2.046875 0 Z M 0.640625 -0.96875 L 1.15625 -0.96875 C 1.5 -0.96875 1.671875 -1.113281 1.671875 -1.40625 C 1.671875 -1.675781 1.5 -1.8125 1.15625 -1.8125 L 0.640625 -1.8125 Z M 0.640625 -0.96875 "/></g></g></g><g fill="#02093d" fill-opacity="1"><g transform="translate(64.469252, 89.525397)"><g><path d="M 0.28125 -2.140625 L 1.15625 -2.140625 C 1.476562 -2.140625 1.742188 -2.035156 1.953125 -1.828125 C 2.160156 -1.628906 2.265625 -1.375 2.265625 -1.0625 C 2.265625 -0.757812 2.160156 -0.503906 1.953125 -0.296875 C 1.742188 -0.0976562 1.476562 0 1.15625 0 L 0.28125 0 Z M 0.640625 -1.8125 L 0.640625 -0.328125 L 1.171875 -0.328125 C 1.378906 -0.328125 1.550781 -0.394531 1.6875 -0.53125 C 1.832031 -0.675781 1.90625 -0.851562 1.90625 -1.0625 C 1.90625 -1.28125 1.832031 -1.457031 1.6875 -1.59375 C 1.539062 -1.738281 1.363281 -1.8125 1.15625 -1.8125 Z M 0.640625 -1.8125 "/></g></g></g><g fill="#02093d" fill-opacity="1"><g transform="translate(68.211884, 89.525397)"><g><path d="M 1.8125 -1.8125 L 0.640625 -1.8125 L 0.640625 -1.234375 L 1.6875 -1.234375 L 1.6875 -0.921875 L 0.640625 -0.921875 L 0.640625 -0.328125 L 1.84375 -0.328125 L 1.84375 0 L 0.28125 0 L 0.28125 -2.140625 L 1.8125 -2.140625 Z M 1.8125 -1.8125 "/></g></g></g><g fill="#02093d" fill-opacity="1"><g transform="translate(71.590971, 89.525397)"><g><path d="M 1.640625 0 L 1.25 -0.65625 C 1.226562 -0.644531 1.195312 -0.640625 1.15625 -0.640625 L 0.640625 -0.640625 L 0.640625 0 L 0.28125 0 L 0.28125 -2.140625 L 1.15625 -2.140625 C 1.425781 -2.140625 1.632812 -2.078125 1.78125 -1.953125 C 1.9375 -1.828125 2.015625 -1.644531 2.015625 -1.40625 C 2.015625 -1.238281 1.972656 -1.09375 1.890625 -0.96875 C 1.816406 -0.851562 1.710938 -0.769531 1.578125 -0.71875 L 2.046875 0 Z M 0.640625 -0.96875 L 1.15625 -0.96875 C 1.5 -0.96875 1.671875 -1.113281 1.671875 -1.40625 C 1.671875 -1.675781 1.5 -1.8125 1.15625 -1.8125 L 0.640625 -1.8125 Z M 0.640625 -0.96875 "/></g></g></g><g fill="#02093d" fill-opacity="1"><g transform="translate(75.174742, 89.525397)"><g><path d="M 0.984375 -2.15625 C 1.265625 -2.15625 1.515625 -2.082031 1.734375 -1.9375 L 1.59375 -1.625 C 1.375 -1.75 1.160156 -1.8125 0.953125 -1.8125 C 0.847656 -1.8125 0.765625 -1.789062 0.703125 -1.75 C 0.640625 -1.71875 0.609375 -1.664062 0.609375 -1.59375 C 0.609375 -1.519531 0.632812 -1.457031 0.6875 -1.40625 C 0.75 -1.363281 0.820312 -1.328125 0.90625 -1.296875 C 0.988281 -1.273438 1.082031 -1.242188 1.1875 -1.203125 C 1.289062 -1.171875 1.382812 -1.132812 1.46875 -1.09375 C 1.550781 -1.0625 1.617188 -1 1.671875 -0.90625 C 1.734375 -0.820312 1.765625 -0.722656 1.765625 -0.609375 C 1.765625 -0.421875 1.6875 -0.269531 1.53125 -0.15625 C 1.382812 -0.0390625 1.191406 0.015625 0.953125 0.015625 C 0.785156 0.015625 0.625 -0.015625 0.46875 -0.078125 C 0.320312 -0.140625 0.191406 -0.222656 0.078125 -0.328125 L 0.234375 -0.640625 C 0.335938 -0.535156 0.453125 -0.457031 0.578125 -0.40625 C 0.710938 -0.351562 0.84375 -0.328125 0.96875 -0.328125 C 1.09375 -0.328125 1.1875 -0.347656 1.25 -0.390625 C 1.320312 -0.441406 1.359375 -0.507812 1.359375 -0.59375 C 1.359375 -0.664062 1.328125 -0.722656 1.265625 -0.765625 C 1.210938 -0.816406 1.144531 -0.851562 1.0625 -0.875 C 0.976562 -0.90625 0.882812 -0.9375 0.78125 -0.96875 C 0.6875 -1 0.59375 -1.035156 0.5 -1.078125 C 0.414062 -1.117188 0.34375 -1.179688 0.28125 -1.265625 C 0.226562 -1.347656 0.203125 -1.445312 0.203125 -1.5625 C 0.203125 -1.738281 0.273438 -1.878906 0.421875 -1.984375 C 0.566406 -2.097656 0.753906 -2.15625 0.984375 -2.15625 Z M 0.984375 -2.15625 "/></g></g></g></svg>