<svg xmlns="http://www.w3.org/2000/svg" xmlns:xlink="http://www.w3.org/1999/xlink" width="100" zoomAndPan="magnify" viewBox="0 0 75 74.999997" height="100" preserveAspectRatio="xMidYMid meet" version="1.0"><defs><g/><clipPath id="932acd3003"><path d="M 52 39 L 59.929688 39 L 59.929688 46 L 52 46 Z M 52 39 " clip-rule="nonzero"/></clipPath><clipPath id="2ca35e54a4"><path d="M 54 43 L 59 43 L 59 47.25 L 54 47.25 Z M 54 43 " clip-rule="nonzero"/></clipPath><clipPath id="08ea94a840"><path d="M 46 43 L 51 43 L 51 47.25 L 46 47.25 Z M 46 43 " clip-rule="nonzero"/></clipPath><clipPath id="110a16a2ac"><path d="M 42.679688 43 L 48 43 L 48 44 L 42.679688 44 Z M 42.679688 43 " clip-rule="nonzero"/></clipPath><clipPath id="0162ea8101"><path d="M 45 37.5 L 55 37.5 L 55 46 L 45 46 Z M 45 37.5 " clip-rule="nonzero"/></clipPath><clipPath id="27b98db088"><path d="M 15.261719 55.042969 L 20.921875 55.042969 L 20.921875 55.929688 L 15.261719 55.929688 Z M 15.261719 55.042969 " clip-rule="nonzero"/></clipPath><clipPath id="b1da9707b6"><path d="M 15.703125 55.042969 L 20.476562 55.042969 C 20.59375 55.042969 20.707031 55.085938 20.792969 55.171875 C 20.875 55.253906 20.921875 55.367188 20.921875 55.484375 C 20.921875 55.601562 20.875 55.714844 20.792969 55.796875 C 20.707031 55.882812 20.59375 55.929688 20.476562 55.929688 L 15.703125 55.929688 C 15.585938 55.929688 15.472656 55.882812 15.390625 55.796875 C 15.304688 55.714844 15.261719 55.601562 15.261719 55.484375 C 15.261719 55.367188 15.304688 55.253906 15.390625 55.171875 C 15.472656 55.085938 15.585938 55.042969 15.703125 55.042969 Z M 15.703125 55.042969 " clip-rule="nonzero"/></clipPath><clipPath id="94c0c35d9d"><path d="M 16.070312 52.714844 L 20.921875 52.714844 L 20.921875 53.601562 L 16.070312 53.601562 Z M 16.070312 52.714844 " clip-rule="nonzero"/></clipPath><clipPath id="eeceff7f22"><path d="M 16.515625 52.714844 L 20.476562 52.714844 C 20.59375 52.714844 20.707031 52.761719 20.792969 52.84375 C 20.875 52.925781 20.921875 53.039062 20.921875 53.15625 C 20.921875 53.273438 20.875 53.386719 20.792969 53.472656 C 20.707031 53.554688 20.59375 53.601562 20.476562 53.601562 L 16.515625 53.601562 C 16.398438 53.601562 16.285156 53.554688 16.203125 53.472656 C 16.117188 53.386719 16.070312 53.273438 16.070312 53.15625 C 16.070312 53.039062 16.117188 52.925781 16.203125 52.84375 C 16.285156 52.761719 16.398438 52.714844 16.515625 52.714844 Z M 16.515625 52.714844 " clip-rule="nonzero"/></clipPath><clipPath id="c5e6097ca9"><path d="M 16.777344 50.386719 L 20.921875 50.386719 L 20.921875 51.273438 L 16.777344 51.273438 Z M 16.777344 50.386719 " clip-rule="nonzero"/></clipPath><clipPath id="59cdea198e"><path d="M 17.222656 50.386719 L 20.476562 50.386719 C 20.59375 50.386719 20.707031 50.433594 20.792969 50.515625 C 20.875 50.597656 20.921875 50.710938 20.921875 50.828125 C 20.921875 50.945312 20.875 51.058594 20.792969 51.144531 C 20.707031 51.226562 20.59375 51.273438 20.476562 51.273438 L 17.222656 51.273438 C 17.105469 51.273438 16.992188 51.226562 16.910156 51.144531 C 16.824219 51.058594 16.777344 50.945312 16.777344 50.828125 C 16.777344 50.710938 16.824219 50.597656 16.910156 50.515625 C 16.992188 50.433594 17.105469 50.386719 17.222656 50.386719 Z M 17.222656 50.386719 " clip-rule="nonzero"/></clipPath></defs><rect x="-7.5" width="90" fill="#ffffff" y="-7.5" height="89.999996" fill-opacity="1"/><rect x="-7.5" width="90" fill="#f8f3ed" y="-7.5" height="89.999996" fill-opacity="1"/><path fill="#a8814d" d="M 47.351562 45.855469 L 45.914062 45.855469 C 45.71875 45.855469 45.554688 45.699219 45.554688 45.507812 C 45.554688 45.316406 45.71875 45.160156 45.914062 45.160156 L 47.351562 45.160156 C 47.550781 45.160156 47.710938 45.316406 47.710938 45.507812 C 47.710938 45.699219 47.550781 45.855469 47.351562 45.855469 Z M 47.351562 45.855469 " fill-opacity="1" fill-rule="nonzero"/><g clip-path="url(#932acd3003)"><path fill="#a8814d" d="M 59.03125 45.855469 L 58.132812 45.855469 C 57.9375 45.855469 57.773438 45.699219 57.773438 45.507812 C 57.773438 45.316406 57.9375 45.160156 58.132812 45.160156 L 58.734375 45.160156 L 59.21875 42.660156 C 59.210938 41.378906 58.082031 40.285156 56.695312 40.285156 L 54.335938 40.285156 L 53.195312 45.160156 L 55.257812 45.160156 C 55.457031 45.160156 55.617188 45.316406 55.617188 45.507812 C 55.617188 45.699219 55.457031 45.855469 55.257812 45.855469 L 52.742188 45.855469 C 52.632812 45.855469 52.53125 45.808594 52.460938 45.726562 C 52.394531 45.644531 52.367188 45.535156 52.394531 45.433594 L 53.699219 39.859375 C 53.738281 39.703125 53.882812 39.589844 54.050781 39.589844 L 56.695312 39.589844 C 58.480469 39.589844 59.929688 40.996094 59.929688 42.722656 L 59.386719 45.574219 C 59.355469 45.738281 59.207031 45.855469 59.03125 45.855469 Z M 59.03125 45.855469 " fill-opacity="1" fill-rule="nonzero"/></g><g clip-path="url(#2ca35e54a4)"><path fill="#a8814d" d="M 56.695312 47.25 C 55.707031 47.25 54.898438 46.46875 54.898438 45.507812 C 54.898438 44.546875 55.707031 43.769531 56.695312 43.769531 C 57.6875 43.769531 58.492188 44.546875 58.492188 45.507812 C 58.492188 46.46875 57.6875 47.25 56.695312 47.25 Z M 56.695312 44.464844 C 56.101562 44.464844 55.617188 44.933594 55.617188 45.507812 C 55.617188 46.085938 56.101562 46.554688 56.695312 46.554688 C 57.289062 46.554688 57.773438 46.085938 57.773438 45.507812 C 57.773438 44.933594 57.289062 44.464844 56.695312 44.464844 Z M 56.695312 44.464844 " fill-opacity="1" fill-rule="nonzero"/></g><g clip-path="url(#08ea94a840)"><path fill="#a8814d" d="M 48.789062 47.25 C 47.800781 47.25 46.992188 46.46875 46.992188 45.507812 C 46.992188 44.546875 47.800781 43.769531 48.789062 43.769531 C 49.78125 43.769531 50.585938 44.546875 50.585938 45.507812 C 50.585938 46.46875 49.78125 47.25 48.789062 47.25 Z M 48.789062 44.464844 C 48.195312 44.464844 47.710938 44.933594 47.710938 45.507812 C 47.710938 46.085938 48.195312 46.554688 48.789062 46.554688 C 49.382812 46.554688 49.867188 46.085938 49.867188 45.507812 C 49.867188 44.933594 49.382812 44.464844 48.789062 44.464844 Z M 48.789062 44.464844 " fill-opacity="1" fill-rule="nonzero"/></g><path fill="#a8814d" d="M 47.351562 39.589844 L 44.476562 39.589844 C 44.28125 39.589844 44.117188 39.433594 44.117188 39.242188 C 44.117188 39.050781 44.28125 38.894531 44.476562 38.894531 L 47.351562 38.894531 C 47.550781 38.894531 47.710938 39.050781 47.710938 39.242188 C 47.710938 39.433594 47.550781 39.589844 47.351562 39.589844 Z M 47.351562 39.589844 " fill-opacity="1" fill-rule="nonzero"/><path fill="#a8814d" d="M 47.351562 41.679688 L 43.757812 41.679688 C 43.5625 41.679688 43.398438 41.523438 43.398438 41.332031 C 43.398438 41.136719 43.5625 40.980469 43.757812 40.980469 L 47.351562 40.980469 C 47.550781 40.980469 47.710938 41.136719 47.710938 41.332031 C 47.710938 41.523438 47.550781 41.679688 47.351562 41.679688 Z M 47.351562 41.679688 " fill-opacity="1" fill-rule="nonzero"/><g clip-path="url(#110a16a2ac)"><path fill="#a8814d" d="M 47.351562 43.769531 L 43.039062 43.769531 C 42.84375 43.769531 42.679688 43.613281 42.679688 43.417969 C 42.679688 43.226562 42.84375 43.070312 43.039062 43.070312 L 47.351562 43.070312 C 47.550781 43.070312 47.710938 43.226562 47.710938 43.417969 C 47.710938 43.613281 47.550781 43.769531 47.351562 43.769531 Z M 47.351562 43.769531 " fill-opacity="1" fill-rule="nonzero"/></g><g clip-path="url(#0162ea8101)"><path fill="#a8814d" d="M 52.742188 45.855469 L 50.226562 45.855469 C 50.03125 45.855469 49.867188 45.699219 49.867188 45.507812 C 49.867188 45.316406 50.03125 45.160156 50.226562 45.160156 L 52.457031 45.160156 L 54.089844 38.195312 L 45.914062 38.195312 C 45.71875 38.195312 45.554688 38.039062 45.554688 37.847656 C 45.554688 37.65625 45.71875 37.5 45.914062 37.5 L 54.539062 37.5 C 54.648438 37.5 54.753906 37.546875 54.820312 37.632812 C 54.890625 37.714844 54.914062 37.820312 54.890625 37.925781 L 53.09375 45.585938 C 53.058594 45.746094 52.910156 45.855469 52.742188 45.855469 Z M 52.742188 45.855469 " fill-opacity="1" fill-rule="nonzero"/></g><path stroke-linecap="butt" transform="matrix(0.751293, 0.000727123, -0.000725871, 0.75, 0.000727349, 47.09106)" fill="none" stroke-linejoin="miter" d="M -0.000486615 0.498379 L 117.806855 0.498749 " stroke="#a8814d" stroke-width="1" stroke-opacity="1" stroke-miterlimit="4"/><g fill="#02093d" fill-opacity="1"><g transform="translate(4.950364, 44.006289)"><g><path d="M 2.328125 -5.09375 C 2.984375 -5.09375 3.578125 -4.921875 4.109375 -4.578125 L 3.75 -3.828125 C 3.226562 -4.140625 2.734375 -4.296875 2.265625 -4.296875 C 2.003906 -4.296875 1.800781 -4.25 1.65625 -4.15625 C 1.507812 -4.0625 1.4375 -3.929688 1.4375 -3.765625 C 1.4375 -3.597656 1.503906 -3.453125 1.640625 -3.328125 C 1.773438 -3.210938 1.941406 -3.128906 2.140625 -3.078125 C 2.347656 -3.023438 2.566406 -2.953125 2.796875 -2.859375 C 3.035156 -2.773438 3.253906 -2.6875 3.453125 -2.59375 C 3.660156 -2.5 3.832031 -2.351562 3.96875 -2.15625 C 4.101562 -1.957031 4.171875 -1.71875 4.171875 -1.4375 C 4.171875 -0.988281 3.992188 -0.628906 3.640625 -0.359375 C 3.285156 -0.0976562 2.820312 0.03125 2.25 0.03125 C 1.863281 0.03125 1.488281 -0.0390625 1.125 -0.1875 C 0.769531 -0.332031 0.457031 -0.53125 0.1875 -0.78125 L 0.5625 -1.515625 C 0.8125 -1.273438 1.085938 -1.09375 1.390625 -0.96875 C 1.703125 -0.84375 1.992188 -0.78125 2.265625 -0.78125 C 2.566406 -0.78125 2.800781 -0.832031 2.96875 -0.9375 C 3.132812 -1.039062 3.21875 -1.191406 3.21875 -1.390625 C 3.21875 -1.566406 3.148438 -1.710938 3.015625 -1.828125 C 2.878906 -1.941406 2.707031 -2.023438 2.5 -2.078125 C 2.300781 -2.140625 2.082031 -2.207031 1.84375 -2.28125 C 1.613281 -2.363281 1.394531 -2.445312 1.1875 -2.53125 C 0.988281 -2.625 0.820312 -2.769531 0.6875 -2.96875 C 0.550781 -3.164062 0.484375 -3.40625 0.484375 -3.6875 C 0.484375 -4.113281 0.648438 -4.453125 0.984375 -4.703125 C 1.328125 -4.960938 1.773438 -5.09375 2.328125 -5.09375 Z M 2.328125 -5.09375 "/></g></g></g><g fill="#02093d" fill-opacity="1"><g transform="translate(9.446964, 44.006289)"><g><path d="M 5.0625 0 L 4.203125 0 L 4.203125 -2.09375 L 1.515625 -2.09375 L 1.515625 0 L 0.671875 0 L 0.671875 -5.0625 L 1.515625 -5.0625 L 1.515625 -2.859375 L 4.203125 -2.859375 L 4.203125 -5.0625 L 5.0625 -5.0625 Z M 5.0625 0 "/></g></g></g><g fill="#02093d" fill-opacity="1"><g transform="translate(15.165309, 44.006289)"><g><path d="M 1.515625 0 L 0.671875 0 L 0.671875 -5.0625 L 1.515625 -5.0625 Z M 1.515625 0 "/></g></g></g><g fill="#02093d" fill-opacity="1"><g transform="translate(17.348545, 44.006289)"><g><path d="M 0.671875 -5.0625 L 2.6875 -5.0625 C 3.320312 -5.0625 3.8125 -4.910156 4.15625 -4.609375 C 4.507812 -4.304688 4.6875 -3.878906 4.6875 -3.328125 C 4.6875 -2.753906 4.507812 -2.3125 4.15625 -2 C 3.8125 -1.6875 3.320312 -1.53125 2.6875 -1.53125 L 1.515625 -1.53125 L 1.515625 0 L 0.671875 0 Z M 1.515625 -4.296875 L 1.515625 -2.296875 L 2.640625 -2.296875 C 3.460938 -2.296875 3.875 -2.632812 3.875 -3.3125 C 3.875 -3.96875 3.460938 -4.296875 2.640625 -4.296875 Z M 1.515625 -4.296875 "/></g></g></g><g fill="#02093d" fill-opacity="1"><g transform="translate(22.213834, 44.006289)"><g><path d="M 0.671875 -5.0625 L 2.6875 -5.0625 C 3.320312 -5.0625 3.8125 -4.910156 4.15625 -4.609375 C 4.507812 -4.304688 4.6875 -3.878906 4.6875 -3.328125 C 4.6875 -2.753906 4.507812 -2.3125 4.15625 -2 C 3.8125 -1.6875 3.320312 -1.53125 2.6875 -1.53125 L 1.515625 -1.53125 L 1.515625 0 L 0.671875 0 Z M 1.515625 -4.296875 L 1.515625 -2.296875 L 2.640625 -2.296875 C 3.460938 -2.296875 3.875 -2.632812 3.875 -3.3125 C 3.875 -3.96875 3.460938 -4.296875 2.640625 -4.296875 Z M 1.515625 -4.296875 "/></g></g></g><g fill="#02093d" fill-opacity="1"><g transform="translate(27.079124, 44.006289)"><g><path d="M 1.515625 0 L 0.671875 0 L 0.671875 -5.0625 L 1.515625 -5.0625 Z M 1.515625 0 "/></g></g></g><g fill="#02093d" fill-opacity="1"><g transform="translate(29.26236, 44.006289)"><g><path d="M 5.0625 0 L 4.21875 0 L 1.515625 -3.625 L 1.515625 0 L 0.671875 0 L 0.671875 -5.0625 L 1.5 -5.0625 L 4.21875 -1.421875 L 4.21875 -5.0625 L 5.0625 -5.0625 Z M 5.0625 0 "/></g></g></g><g fill="#02093d" fill-opacity="1"><g transform="translate(34.987939, 44.006289)"><g><path d="M 4.125 -2.484375 L 4.875 -2.484375 L 4.875 -0.625 C 4.613281 -0.425781 4.304688 -0.265625 3.953125 -0.140625 C 3.597656 -0.0234375 3.25 0.03125 2.90625 0.03125 C 2.15625 0.03125 1.523438 -0.210938 1.015625 -0.703125 C 0.503906 -1.203125 0.25 -1.8125 0.25 -2.53125 C 0.25 -3.25 0.507812 -3.851562 1.03125 -4.34375 C 1.550781 -4.832031 2.191406 -5.078125 2.953125 -5.078125 C 3.316406 -5.078125 3.671875 -5.015625 4.015625 -4.890625 C 4.359375 -4.765625 4.65625 -4.59375 4.90625 -4.375 L 4.421875 -3.75 C 4.003906 -4.132812 3.515625 -4.328125 2.953125 -4.328125 C 2.441406 -4.328125 2.003906 -4.148438 1.640625 -3.796875 C 1.285156 -3.453125 1.109375 -3.03125 1.109375 -2.53125 C 1.109375 -2.019531 1.285156 -1.59375 1.640625 -1.25 C 2.003906 -0.90625 2.445312 -0.734375 2.96875 -0.734375 C 3.351562 -0.734375 3.738281 -0.847656 4.125 -1.078125 Z M 4.125 -2.484375 "/></g></g></g><g clip-path="url(#27b98db088)"><g clip-path="url(#b1da9707b6)"><path fill="#a8814d" d="M 15.261719 55.042969 L 20.921875 55.042969 L 20.921875 55.929688 L 15.261719 55.929688 Z M 15.261719 55.042969 " fill-opacity="1" fill-rule="nonzero"/></g></g><g clip-path="url(#94c0c35d9d)"><g clip-path="url(#eeceff7f22)"><path fill="#a8814d" d="M 16.070312 52.714844 L 20.921875 52.714844 L 20.921875 53.601562 L 16.070312 53.601562 Z M 16.070312 52.714844 " fill-opacity="1" fill-rule="nonzero"/></g></g><g clip-path="url(#c5e6097ca9)"><g clip-path="url(#59cdea198e)"><path fill="#a8814d" d="M 16.777344 50.386719 L 20.921875 50.386719 L 20.921875 51.273438 L 16.777344 51.273438 Z M 16.777344 50.386719 " fill-opacity="1" fill-rule="nonzero"/></g></g><g fill="#02093d" fill-opacity="1"><g transform="translate(23.047296, 55.340849)"><g><path d="M 0.671875 -5.0625 L 2.734375 -5.0625 C 3.492188 -5.0625 4.117188 -4.820312 4.609375 -4.34375 C 5.109375 -3.863281 5.359375 -3.257812 5.359375 -2.53125 C 5.359375 -1.800781 5.109375 -1.195312 4.609375 -0.71875 C 4.117188 -0.238281 3.488281 0 2.71875 0 L 0.671875 0 Z M 1.515625 -4.296875 L 1.515625 -0.765625 L 2.765625 -0.765625 C 3.265625 -0.765625 3.675781 -0.929688 4 -1.265625 C 4.332031 -1.597656 4.5 -2.019531 4.5 -2.53125 C 4.5 -3.039062 4.328125 -3.460938 3.984375 -3.796875 C 3.648438 -4.128906 3.234375 -4.296875 2.734375 -4.296875 Z M 1.515625 -4.296875 "/></g></g></g><g fill="#02093d" fill-opacity="1"><g transform="translate(28.649932, 55.340849)"><g><path d="M 1.515625 0 L 0.671875 0 L 0.671875 -5.0625 L 1.515625 -5.0625 Z M 1.515625 0 "/></g></g></g><g fill="#02093d" fill-opacity="1"><g transform="translate(30.833153, 55.340849)"><g><path d="M 2.328125 -5.09375 C 2.984375 -5.09375 3.578125 -4.921875 4.109375 -4.578125 L 3.75 -3.828125 C 3.226562 -4.140625 2.734375 -4.296875 2.265625 -4.296875 C 2.003906 -4.296875 1.800781 -4.25 1.65625 -4.15625 C 1.507812 -4.0625 1.4375 -3.929688 1.4375 -3.765625 C 1.4375 -3.597656 1.503906 -3.453125 1.640625 -3.328125 C 1.773438 -3.210938 1.941406 -3.128906 2.140625 -3.078125 C 2.347656 -3.023438 2.566406 -2.953125 2.796875 -2.859375 C 3.035156 -2.773438 3.253906 -2.6875 3.453125 -2.59375 C 3.660156 -2.5 3.832031 -2.351562 3.96875 -2.15625 C 4.101562 -1.957031 4.171875 -1.71875 4.171875 -1.4375 C 4.171875 -0.988281 3.992188 -0.628906 3.640625 -0.359375 C 3.285156 -0.0976562 2.820312 0.03125 2.25 0.03125 C 1.863281 0.03125 1.488281 -0.0390625 1.125 -0.1875 C 0.769531 -0.332031 0.457031 -0.53125 0.1875 -0.78125 L 0.5625 -1.515625 C 0.8125 -1.273438 1.085938 -1.09375 1.390625 -0.96875 C 1.703125 -0.84375 1.992188 -0.78125 2.265625 -0.78125 C 2.566406 -0.78125 2.800781 -0.832031 2.96875 -0.9375 C 3.132812 -1.039062 3.21875 -1.191406 3.21875 -1.390625 C 3.21875 -1.566406 3.148438 -1.710938 3.015625 -1.828125 C 2.878906 -1.941406 2.707031 -2.023438 2.5 -2.078125 C 2.300781 -2.140625 2.082031 -2.207031 1.84375 -2.28125 C 1.613281 -2.363281 1.394531 -2.445312 1.1875 -2.53125 C 0.988281 -2.625 0.820312 -2.769531 0.6875 -2.96875 C 0.550781 -3.164062 0.484375 -3.40625 0.484375 -3.6875 C 0.484375 -4.113281 0.648438 -4.453125 0.984375 -4.703125 C 1.328125 -4.960938 1.773438 -5.09375 2.328125 -5.09375 Z M 2.328125 -5.09375 "/></g></g></g><g fill="#02093d" fill-opacity="1"><g transform="translate(35.329721, 55.340849)"><g><path d="M 2.90625 -5.078125 C 3.257812 -5.078125 3.609375 -5.007812 3.953125 -4.875 C 4.296875 -4.738281 4.585938 -4.546875 4.828125 -4.296875 L 4.328125 -3.6875 C 4.148438 -3.882812 3.9375 -4.039062 3.6875 -4.15625 C 3.4375 -4.269531 3.179688 -4.328125 2.921875 -4.328125 C 2.410156 -4.328125 1.976562 -4.15625 1.625 -3.8125 C 1.28125 -3.46875 1.109375 -3.046875 1.109375 -2.546875 C 1.109375 -2.046875 1.28125 -1.625 1.625 -1.28125 C 1.976562 -0.9375 2.410156 -0.765625 2.921875 -0.765625 C 3.453125 -0.765625 3.921875 -0.960938 4.328125 -1.359375 L 4.84375 -0.796875 C 4.582031 -0.535156 4.273438 -0.332031 3.921875 -0.1875 C 3.578125 -0.0390625 3.226562 0.03125 2.875 0.03125 C 2.132812 0.03125 1.507812 -0.210938 1 -0.703125 C 0.5 -1.203125 0.25 -1.816406 0.25 -2.546875 C 0.25 -3.253906 0.503906 -3.851562 1.015625 -4.34375 C 1.523438 -4.832031 2.15625 -5.078125 2.90625 -5.078125 Z M 2.90625 -5.078125 "/></g></g></g><g fill="#02093d" fill-opacity="1"><g transform="translate(40.368479, 55.340849)"><g><path d="M 1.015625 -4.34375 C 1.535156 -4.832031 2.171875 -5.078125 2.921875 -5.078125 C 3.679688 -5.078125 4.316406 -4.832031 4.828125 -4.34375 C 5.347656 -3.851562 5.609375 -3.25 5.609375 -2.53125 C 5.609375 -1.8125 5.347656 -1.203125 4.828125 -0.703125 C 4.316406 -0.210938 3.679688 0.03125 2.921875 0.03125 C 2.171875 0.03125 1.535156 -0.210938 1.015625 -0.703125 C 0.503906 -1.203125 0.25 -1.8125 0.25 -2.53125 C 0.25 -3.25 0.503906 -3.851562 1.015625 -4.34375 Z M 2.9375 -4.3125 C 2.4375 -4.3125 2.003906 -4.140625 1.640625 -3.796875 C 1.285156 -3.453125 1.109375 -3.03125 1.109375 -2.53125 C 1.109375 -2.03125 1.285156 -1.601562 1.640625 -1.25 C 2.003906 -0.90625 2.4375 -0.734375 2.9375 -0.734375 C 3.4375 -0.734375 3.859375 -0.90625 4.203125 -1.25 C 4.554688 -1.601562 4.734375 -2.03125 4.734375 -2.53125 C 4.734375 -3.03125 4.554688 -3.453125 4.203125 -3.796875 C 3.859375 -4.140625 3.4375 -4.3125 2.9375 -4.3125 Z M 2.9375 -4.3125 "/></g></g></g><g fill="#02093d" fill-opacity="1"><g transform="translate(46.224139, 55.340849)"><g><path d="M 4.96875 -5.0625 L 4.96875 -2.09375 C 4.96875 -1.4375 4.769531 -0.914062 4.375 -0.53125 C 3.988281 -0.15625 3.453125 0.03125 2.765625 0.03125 C 2.085938 0.03125 1.550781 -0.15625 1.15625 -0.53125 C 0.757812 -0.914062 0.5625 -1.4375 0.5625 -2.09375 L 0.5625 -5.0625 L 1.421875 -5.0625 L 1.421875 -2.09375 C 1.421875 -1.675781 1.539062 -1.34375 1.78125 -1.09375 C 2.03125 -0.851562 2.363281 -0.734375 2.78125 -0.734375 C 3.195312 -0.734375 3.519531 -0.851562 3.75 -1.09375 C 3.988281 -1.332031 4.109375 -1.664062 4.109375 -2.09375 L 4.109375 -5.0625 Z M 4.96875 -5.0625 "/></g></g></g><g fill="#02093d" fill-opacity="1"><g transform="translate(51.747254, 55.340849)"><g><path d="M 5.0625 0 L 4.21875 0 L 1.515625 -3.625 L 1.515625 0 L 0.671875 0 L 0.671875 -5.0625 L 1.5 -5.0625 L 4.21875 -1.421875 L 4.21875 -5.0625 L 5.0625 -5.0625 Z M 5.0625 0 "/></g></g></g><g fill="#02093d" fill-opacity="1"><g transform="translate(57.472785, 55.340849)"><g><path d="M 4.125 -4.296875 L 2.515625 -4.296875 L 2.515625 0 L 1.65625 0 L 1.65625 -4.296875 L 0.0625 -4.296875 L 0.0625 -5.0625 L 4.125 -5.0625 Z M 4.125 -4.296875 "/></g></g></g><g fill="#02093d" fill-opacity="1"><g transform="translate(23.615379, 59.683597)"><g><path d="M 0.28125 -1.21875 C 0.425781 -1.351562 0.601562 -1.421875 0.8125 -1.421875 C 1.03125 -1.421875 1.210938 -1.351562 1.359375 -1.21875 C 1.503906 -1.082031 1.578125 -0.910156 1.578125 -0.703125 C 1.578125 -0.503906 1.503906 -0.332031 1.359375 -0.1875 C 1.210938 -0.0507812 1.03125 0.015625 0.8125 0.015625 C 0.601562 0.015625 0.425781 -0.0507812 0.28125 -0.1875 C 0.132812 -0.332031 0.0625 -0.503906 0.0625 -0.703125 C 0.0625 -0.910156 0.132812 -1.082031 0.28125 -1.21875 Z M 0.828125 -1.21875 C 0.679688 -1.21875 0.554688 -1.164062 0.453125 -1.0625 C 0.359375 -0.96875 0.3125 -0.847656 0.3125 -0.703125 C 0.3125 -0.566406 0.359375 -0.445312 0.453125 -0.34375 C 0.554688 -0.25 0.675781 -0.203125 0.8125 -0.203125 C 0.957031 -0.203125 1.078125 -0.25 1.171875 -0.34375 C 1.273438 -0.445312 1.328125 -0.566406 1.328125 -0.703125 C 1.328125 -0.847656 1.273438 -0.96875 1.171875 -1.0625 C 1.078125 -1.164062 0.960938 -1.21875 0.828125 -1.21875 Z M 0.828125 -1.21875 "/></g></g></g><g fill="#02093d" fill-opacity="1"><g transform="translate(26.18175, 59.683597)"><g><path d="M 1.421875 0 L 1.1875 0 L 0.421875 -1.015625 L 0.421875 0 L 0.1875 0 L 0.1875 -1.421875 L 0.421875 -1.421875 L 1.1875 -0.40625 L 1.1875 -1.421875 L 1.421875 -1.421875 Z M 1.421875 0 "/></g></g></g><g fill="#02093d" fill-opacity="1"><g transform="translate(28.711462, 59.683597)"><g/></g></g><g fill="#02093d" fill-opacity="1"><g transform="translate(30.153589, 59.683597)"><g><path d="M 1.109375 -0.328125 L 0.390625 -0.328125 L 0.25 0 L 0 0 L 0.625 -1.421875 L 0.875 -1.421875 L 1.5 0 L 1.234375 0 Z M 1.015625 -0.53125 L 0.75 -1.171875 L 0.484375 -0.53125 Z M 1.015625 -0.53125 "/></g></g></g><g fill="#02093d" fill-opacity="1"><g transform="translate(32.57332, 59.683597)"><g><path d="M 0.421875 -0.21875 L 1.046875 -0.21875 L 1.046875 0 L 0.1875 0 L 0.1875 -1.421875 L 0.421875 -1.421875 Z M 0.421875 -0.21875 "/></g></g></g><g fill="#02093d" fill-opacity="1"><g transform="translate(34.577569, 59.683597)"><g><path d="M 0.421875 -0.21875 L 1.046875 -0.21875 L 1.046875 0 L 0.1875 0 L 0.1875 -1.421875 L 0.421875 -1.421875 Z M 0.421875 -0.21875 "/></g></g></g><g fill="#02093d" fill-opacity="1"><g transform="translate(36.581819, 59.683597)"><g/></g></g><g fill="#02093d" fill-opacity="1"><g transform="translate(38.023946, 59.683597)"><g><path d="M 0.28125 -1.21875 C 0.425781 -1.351562 0.601562 -1.421875 0.8125 -1.421875 C 1.03125 -1.421875 1.210938 -1.351562 1.359375 -1.21875 C 1.503906 -1.082031 1.578125 -0.910156 1.578125 -0.703125 C 1.578125 -0.503906 1.503906 -0.332031 1.359375 -0.1875 C 1.210938 -0.0507812 1.03125 0.015625 0.8125 0.015625 C 0.601562 0.015625 0.425781 -0.0507812 0.28125 -0.1875 C 0.132812 -0.332031 0.0625 -0.503906 0.0625 -0.703125 C 0.0625 -0.910156 0.132812 -1.082031 0.28125 -1.21875 Z M 0.828125 -1.21875 C 0.679688 -1.21875 0.554688 -1.164062 0.453125 -1.0625 C 0.359375 -0.96875 0.3125 -0.847656 0.3125 -0.703125 C 0.3125 -0.566406 0.359375 -0.445312 0.453125 -0.34375 C 0.554688 -0.25 0.675781 -0.203125 0.8125 -0.203125 C 0.957031 -0.203125 1.078125 -0.25 1.171875 -0.34375 C 1.273438 -0.445312 1.328125 -0.566406 1.328125 -0.703125 C 1.328125 -0.847656 1.273438 -0.96875 1.171875 -1.0625 C 1.078125 -1.164062 0.960938 -1.21875 0.828125 -1.21875 Z M 0.828125 -1.21875 "/></g></g></g><g fill="#02093d" fill-opacity="1"><g transform="translate(40.590317, 59.683597)"><g><path d="M 1.09375 0 L 0.828125 -0.4375 C 0.816406 -0.425781 0.796875 -0.421875 0.765625 -0.421875 L 0.421875 -0.421875 L 0.421875 0 L 0.1875 0 L 0.1875 -1.421875 L 0.765625 -1.421875 C 0.941406 -1.421875 1.082031 -1.378906 1.1875 -1.296875 C 1.289062 -1.210938 1.34375 -1.09375 1.34375 -0.9375 C 1.34375 -0.820312 1.316406 -0.722656 1.265625 -0.640625 C 1.210938 -0.566406 1.140625 -0.507812 1.046875 -0.46875 L 1.359375 0 Z M 0.421875 -0.640625 L 0.765625 -0.640625 C 0.992188 -0.640625 1.109375 -0.738281 1.109375 -0.9375 C 1.109375 -1.113281 0.992188 -1.203125 0.765625 -1.203125 L 0.421875 -1.203125 Z M 0.421875 -0.640625 "/></g></g></g><g fill="#02093d" fill-opacity="1"><g transform="translate(42.979499, 59.683597)"><g><path d="M 0.1875 -1.421875 L 0.765625 -1.421875 C 0.984375 -1.421875 1.160156 -1.351562 1.296875 -1.21875 C 1.429688 -1.082031 1.5 -0.910156 1.5 -0.703125 C 1.5 -0.503906 1.429688 -0.335938 1.296875 -0.203125 C 1.160156 -0.0664062 0.984375 0 0.765625 0 L 0.1875 0 Z M 0.421875 -1.203125 L 0.421875 -0.21875 L 0.78125 -0.21875 C 0.914062 -0.21875 1.03125 -0.265625 1.125 -0.359375 C 1.21875 -0.453125 1.265625 -0.566406 1.265625 -0.703125 C 1.265625 -0.847656 1.21875 -0.96875 1.125 -1.0625 C 1.03125 -1.15625 0.910156 -1.203125 0.765625 -1.203125 Z M 0.421875 -1.203125 "/></g></g></g><g fill="#02093d" fill-opacity="1"><g transform="translate(45.474586, 59.683597)"><g><path d="M 1.203125 -1.203125 L 0.421875 -1.203125 L 0.421875 -0.828125 L 1.125 -0.828125 L 1.125 -0.609375 L 0.421875 -0.609375 L 0.421875 -0.21875 L 1.234375 -0.21875 L 1.234375 0 L 0.1875 0 L 0.1875 -1.421875 L 1.203125 -1.421875 Z M 1.203125 -1.203125 "/></g></g></g><g fill="#02093d" fill-opacity="1"><g transform="translate(47.727311, 59.683597)"><g><path d="M 1.09375 0 L 0.828125 -0.4375 C 0.816406 -0.425781 0.796875 -0.421875 0.765625 -0.421875 L 0.421875 -0.421875 L 0.421875 0 L 0.1875 0 L 0.1875 -1.421875 L 0.765625 -1.421875 C 0.941406 -1.421875 1.082031 -1.378906 1.1875 -1.296875 C 1.289062 -1.210938 1.34375 -1.09375 1.34375 -0.9375 C 1.34375 -0.820312 1.316406 -0.722656 1.265625 -0.640625 C 1.210938 -0.566406 1.140625 -0.507812 1.046875 -0.46875 L 1.359375 0 Z M 0.421875 -0.640625 L 0.765625 -0.640625 C 0.992188 -0.640625 1.109375 -0.738281 1.109375 -0.9375 C 1.109375 -1.113281 0.992188 -1.203125 0.765625 -1.203125 L 0.421875 -1.203125 Z M 0.421875 -0.640625 "/></g></g></g><g fill="#02093d" fill-opacity="1"><g transform="translate(50.116492, 59.683597)"><g><path d="M 0.65625 -1.4375 C 0.84375 -1.4375 1.007812 -1.382812 1.15625 -1.28125 L 1.046875 -1.078125 C 0.898438 -1.160156 0.765625 -1.203125 0.640625 -1.203125 C 0.566406 -1.203125 0.507812 -1.1875 0.46875 -1.15625 C 0.425781 -1.132812 0.40625 -1.097656 0.40625 -1.046875 C 0.40625 -1.003906 0.421875 -0.96875 0.453125 -0.9375 C 0.492188 -0.90625 0.539062 -0.878906 0.59375 -0.859375 C 0.65625 -0.847656 0.71875 -0.828125 0.78125 -0.796875 C 0.851562 -0.773438 0.914062 -0.75 0.96875 -0.71875 C 1.03125 -0.695312 1.078125 -0.65625 1.109375 -0.59375 C 1.148438 -0.539062 1.171875 -0.476562 1.171875 -0.40625 C 1.171875 -0.28125 1.117188 -0.175781 1.015625 -0.09375 C 0.921875 -0.0195312 0.796875 0.015625 0.640625 0.015625 C 0.523438 0.015625 0.414062 -0.00390625 0.3125 -0.046875 C 0.21875 -0.0859375 0.128906 -0.144531 0.046875 -0.21875 L 0.15625 -0.421875 C 0.226562 -0.359375 0.304688 -0.304688 0.390625 -0.265625 C 0.472656 -0.234375 0.554688 -0.21875 0.640625 -0.21875 C 0.722656 -0.21875 0.785156 -0.234375 0.828125 -0.265625 C 0.878906 -0.296875 0.90625 -0.335938 0.90625 -0.390625 C 0.90625 -0.441406 0.882812 -0.484375 0.84375 -0.515625 C 0.8125 -0.546875 0.765625 -0.566406 0.703125 -0.578125 C 0.648438 -0.597656 0.585938 -0.617188 0.515625 -0.640625 C 0.453125 -0.660156 0.390625 -0.679688 0.328125 -0.703125 C 0.273438 -0.734375 0.226562 -0.773438 0.1875 -0.828125 C 0.15625 -0.890625 0.140625 -0.957031 0.140625 -1.03125 C 0.140625 -1.15625 0.1875 -1.253906 0.28125 -1.328125 C 0.375 -1.398438 0.5 -1.4375 0.65625 -1.4375 Z M 0.65625 -1.4375 "/></g></g></g></svg>