<svg xmlns="http://www.w3.org/2000/svg" xmlns:xlink="http://www.w3.org/1999/xlink" width="120" zoomAndPan="magnify" viewBox="0 0 90 89.999999" height="120" preserveAspectRatio="xMidYMid meet" version="1.0"><defs><g/><clipPath id="ee90f956bf"><path d="M 19.335938 45 L 70.335938 45 L 70.335938 77.25 L 19.335938 77.25 Z M 19.335938 45 " clip-rule="nonzero"/></clipPath><clipPath id="f1efdffd05"><path d="M 74.988281 73.5 L 90 73.5 L 90 90 L 74.988281 90 Z M 74.988281 73.5 " clip-rule="nonzero"/></clipPath><clipPath id="631d134c01"><path d="M 0 0 L 16 0 L 16 15 L 0 15 Z M 0 0 " clip-rule="nonzero"/></clipPath><clipPath id="f0b26c0b56"><path d="M 18.121094 11.625 L -14.707031 19.46875 L -23.074219 -15.542969 L 9.753906 -23.386719 Z M 18.121094 11.625 " clip-rule="nonzero"/></clipPath><clipPath id="3a1304cf1c"><path d="M 18.121094 11.625 L -14.707031 19.46875 L -23.074219 -15.542969 L 9.753906 -23.386719 Z M 18.121094 11.625 " clip-rule="nonzero"/></clipPath></defs><rect x="-9" width="108" fill="#ffffff" y="-9" height="107.999999" fill-opacity="1"/><rect x="-9" width="108" fill="#f87666" y="-9" height="107.999999" fill-opacity="1"/><g clip-path="url(#ee90f956bf)"><path fill="#fffbf1" d="M 63.074219 47.4375 L 34.355469 47.4375 L 35.082031 46.820312 C 35.398438 46.554688 35.515625 46.113281 35.375 45.722656 C 35.230469 45.332031 34.855469 45.070312 34.433594 45.070312 C 33.296875 45.078125 32.21875 45.519531 31.402344 46.308594 L 30.253906 47.421875 L 30.175781 47.355469 C 30.238281 47.128906 30.261719 46.886719 30.234375 46.648438 C 30.179688 46.132812 29.917969 45.679688 29.503906 45.367188 C 29.183594 45.125 28.800781 44.996094 28.394531 44.996094 C 27.894531 44.996094 27.40625 45.203125 27.0625 45.558594 C 26.703125 45.933594 26.515625 46.421875 26.542969 46.9375 C 26.550781 47.109375 26.582031 47.277344 26.636719 47.4375 L 26.59375 47.4375 C 22.609375 47.4375 19.363281 50.6875 19.363281 54.683594 L 19.363281 70.003906 C 19.363281 74 22.609375 77.25 26.59375 77.25 L 63.074219 77.25 C 67.0625 77.25 70.308594 74 70.308594 70.003906 L 70.308594 54.683594 C 70.308594 50.6875 67.0625 47.4375 63.074219 47.4375 " fill-opacity="1" fill-rule="nonzero"/></g><path fill="#627d6a" d="M 28.304688 49.339844 L 26.59375 49.339844 L 26.585938 48.992188 L 28.304688 48.992188 Z M 34.308594 49.339844 L 32.59375 49.339844 L 32.59375 48.992188 L 34.308594 48.992188 Z M 37.3125 49.339844 L 35.597656 49.339844 L 35.597656 48.992188 L 37.3125 48.992188 Z M 40.316406 49.339844 L 38.601562 49.339844 L 38.601562 48.992188 L 40.316406 48.992188 Z M 43.320312 49.339844 L 41.605469 49.339844 L 41.605469 48.992188 L 43.320312 48.992188 Z M 46.324219 49.339844 L 44.605469 49.339844 L 44.605469 48.992188 L 46.324219 48.992188 Z M 49.328125 49.339844 L 47.609375 49.339844 L 47.609375 48.992188 L 49.328125 48.992188 Z M 52.332031 49.339844 L 50.613281 49.339844 L 50.613281 48.992188 L 52.332031 48.992188 Z M 55.332031 49.339844 L 53.617188 49.339844 L 53.617188 48.992188 L 55.332031 48.992188 Z M 58.335938 49.339844 L 56.621094 49.339844 L 56.621094 48.992188 L 58.335938 48.992188 Z M 61.339844 49.339844 L 59.625 49.339844 L 59.625 48.992188 L 61.339844 48.992188 Z M 64.292969 49.476562 C 63.898438 49.386719 63.488281 49.339844 63.074219 49.339844 L 62.628906 49.339844 L 62.628906 48.992188 L 63.074219 48.992188 C 63.511719 48.992188 63.949219 49.042969 64.371094 49.140625 Z M 23.820312 50.117188 L 23.640625 49.820312 C 24.148438 49.511719 24.695312 49.285156 25.273438 49.148438 L 25.351562 49.484375 C 24.8125 49.613281 24.296875 49.824219 23.820312 50.117188 Z M 66.808594 50.867188 C 66.414062 50.472656 65.960938 50.148438 65.464844 49.902344 L 65.617188 49.59375 C 66.144531 49.859375 66.628906 50.203125 67.050781 50.617188 Z M 21.859375 52.21875 L 21.554688 52.058594 C 21.824219 51.535156 22.179688 51.054688 22.597656 50.636719 L 22.84375 50.882812 C 22.445312 51.277344 22.117188 51.726562 21.859375 52.21875 Z M 68.246094 53.355469 C 68.109375 52.820312 67.886719 52.304688 67.59375 51.835938 L 67.882812 51.648438 C 68.199219 52.152344 68.433594 52.699219 68.582031 53.273438 Z M 21.257812 55.046875 L 20.914062 55.046875 L 20.914062 54.683594 C 20.914062 54.214844 20.972656 53.75 21.082031 53.300781 L 21.417969 53.382812 C 21.3125 53.804688 21.257812 54.242188 21.257812 54.683594 Z M 68.757812 56.308594 L 68.410156 56.308594 L 68.410156 54.683594 C 68.410156 54.652344 68.410156 54.621094 68.410156 54.59375 L 68.753906 54.585938 C 68.757812 54.617188 68.757812 54.648438 68.757812 54.683594 Z M 21.257812 58.054688 L 20.914062 58.054688 L 20.914062 56.335938 L 21.257812 56.335938 Z M 68.757812 59.316406 L 68.410156 59.316406 L 68.410156 57.597656 L 68.757812 57.597656 Z M 21.257812 61.0625 L 20.914062 61.0625 L 20.914062 59.34375 L 21.257812 59.34375 Z M 68.757812 62.324219 L 68.410156 62.324219 L 68.410156 60.605469 L 68.757812 60.605469 Z M 21.257812 64.074219 L 20.914062 64.074219 L 20.914062 62.351562 L 21.257812 62.351562 Z M 68.757812 65.332031 L 68.410156 65.332031 L 68.410156 63.613281 L 68.757812 63.613281 Z M 21.257812 67.082031 L 20.914062 67.082031 L 20.914062 65.363281 L 21.257812 65.363281 Z M 68.757812 68.34375 L 68.410156 68.34375 L 68.410156 66.625 L 68.757812 66.625 Z M 20.914062 70.09375 C 20.914062 70.0625 20.914062 70.035156 20.914062 70.003906 L 20.914062 68.371094 L 21.257812 68.371094 L 21.257812 70.003906 C 21.257812 70.03125 21.261719 70.058594 21.261719 70.085938 Z M 68.589844 71.378906 L 68.253906 71.296875 C 68.359375 70.875 68.410156 70.441406 68.410156 70.003906 L 68.410156 69.632812 L 68.757812 69.632812 L 68.757812 70.003906 C 68.757812 70.46875 68.699219 70.933594 68.589844 71.378906 Z M 21.785156 73.03125 C 21.46875 72.527344 21.234375 71.980469 21.089844 71.40625 L 21.421875 71.320312 C 21.558594 71.859375 21.777344 72.375 22.074219 72.847656 Z M 67.078125 74.042969 L 66.835938 73.796875 C 67.230469 73.40625 67.558594 72.953125 67.816406 72.460938 L 68.121094 72.621094 C 67.851562 73.144531 67.5 73.625 67.078125 74.042969 Z M 24.046875 75.089844 C 23.519531 74.824219 23.035156 74.480469 22.613281 74.0625 L 22.855469 73.816406 C 23.253906 74.207031 23.707031 74.53125 24.199219 74.78125 Z M 64.40625 75.539062 L 64.328125 75.203125 C 64.867188 75.070312 65.382812 74.859375 65.855469 74.566406 L 66.035156 74.863281 C 65.53125 75.171875 64.984375 75.398438 64.40625 75.539062 Z M 27.035156 75.695312 L 26.59375 75.695312 C 26.15625 75.695312 25.714844 75.644531 25.292969 75.542969 L 25.371094 75.207031 C 25.769531 75.300781 26.179688 75.347656 26.59375 75.347656 L 27.035156 75.347656 Z M 30.039062 75.695312 L 28.320312 75.695312 L 28.320312 75.347656 L 30.039062 75.347656 Z M 33.042969 75.695312 L 31.324219 75.695312 L 31.324219 75.347656 L 33.042969 75.347656 Z M 36.046875 75.695312 L 34.328125 75.695312 L 34.328125 75.347656 L 36.046875 75.347656 Z M 39.046875 75.695312 L 37.332031 75.695312 L 37.332031 75.347656 L 39.046875 75.347656 Z M 42.050781 75.695312 L 40.335938 75.695312 L 40.335938 75.347656 L 42.050781 75.347656 Z M 45.054688 75.695312 L 43.339844 75.695312 L 43.339844 75.347656 L 45.054688 75.347656 Z M 48.058594 75.695312 L 46.34375 75.695312 L 46.34375 75.347656 L 48.058594 75.347656 Z M 51.0625 75.695312 L 49.347656 75.695312 L 49.347656 75.347656 L 51.0625 75.347656 Z M 54.066406 75.695312 L 52.347656 75.695312 L 52.347656 75.347656 L 54.066406 75.347656 Z M 57.070312 75.695312 L 55.351562 75.695312 L 55.351562 75.347656 L 57.070312 75.347656 Z M 60.074219 75.695312 L 58.355469 75.695312 L 58.355469 75.347656 L 60.074219 75.347656 Z M 63.09375 75.695312 L 61.359375 75.695312 L 61.359375 75.347656 L 63.09375 75.347656 L 63.09375 75.695312 " fill-opacity="1" fill-rule="nonzero"/><path fill="#627d6a" d="M 28.832031 47.226562 C 28.722656 47.355469 28.5625 47.429688 28.390625 47.429688 C 28.253906 47.429688 28.121094 47.378906 28.019531 47.292969 C 27.777344 47.085938 27.746094 46.71875 27.953125 46.476562 C 28.0625 46.347656 28.222656 46.273438 28.394531 46.273438 C 28.53125 46.273438 28.664062 46.324219 28.769531 46.410156 C 29.011719 46.621094 29.039062 46.984375 28.832031 47.226562 Z M 29.15625 47.617188 C 29.136719 47.601562 29.128906 47.582031 29.125 47.558594 C 29.125 47.535156 29.132812 47.515625 29.144531 47.496094 C 29.324219 47.289062 29.40625 47.015625 29.378906 46.742188 C 29.347656 46.46875 29.210938 46.222656 28.988281 46.058594 C 28.816406 45.929688 28.609375 45.859375 28.394531 45.859375 C 28.125 45.859375 27.867188 45.96875 27.683594 46.160156 C 27.488281 46.359375 27.390625 46.621094 27.402344 46.898438 C 27.414062 47.171875 27.542969 47.429688 27.75 47.605469 C 27.878906 47.71875 28.035156 47.792969 28.203125 47.824219 C 28.417969 47.867188 28.613281 47.957031 28.769531 48.085938 C 28.882812 48.179688 28.976562 48.289062 29.046875 48.417969 L 29.136719 48.570312 C 29.195312 48.675781 29.269531 48.773438 29.355469 48.855469 L 29.375 48.875 L 29.964844 48.3125 L 29.15625 47.617188 " fill-opacity="1" fill-rule="nonzero"/><path fill="#627d6a" d="M 34.503906 52.195312 L 31.304688 49.457031 L 30.597656 50.0625 L 31.984375 51.414062 C 32.640625 52.054688 33.503906 52.414062 34.417969 52.421875 L 34.421875 52.421875 C 34.476562 52.421875 34.523438 52.390625 34.542969 52.339844 C 34.5625 52.285156 34.546875 52.230469 34.503906 52.195312 " fill-opacity="1" fill-rule="nonzero"/><path fill="#627d6a" d="M 28.390625 50.902344 C 28.253906 50.902344 28.121094 50.949219 28.015625 51.039062 C 27.898438 51.136719 27.828125 51.277344 27.816406 51.429688 C 27.800781 51.585938 27.851562 51.734375 27.949219 51.851562 C 28.058594 51.984375 28.21875 52.058594 28.390625 52.058594 C 28.527344 52.058594 28.660156 52.007812 28.761719 51.921875 C 28.882812 51.820312 28.953125 51.679688 28.964844 51.527344 C 28.976562 51.371094 28.929688 51.222656 28.832031 51.105469 C 28.722656 50.976562 28.558594 50.902344 28.390625 50.902344 Z M 28.390625 52.46875 C 28.121094 52.46875 27.859375 52.359375 27.675781 52.167969 C 27.484375 51.96875 27.386719 51.703125 27.402344 51.429688 C 27.414062 51.15625 27.542969 50.898438 27.75 50.722656 C 27.878906 50.609375 28.039062 50.535156 28.203125 50.503906 C 28.417969 50.464844 28.617188 50.375 28.773438 50.246094 C 28.886719 50.152344 28.980469 50.042969 29.054688 49.914062 L 29.140625 49.761719 C 29.203125 49.65625 29.277344 49.5625 29.363281 49.480469 L 32 46.933594 C 32.660156 46.296875 33.527344 45.941406 34.441406 45.933594 C 34.496094 45.933594 34.546875 45.96875 34.5625 46.019531 C 34.582031 46.070312 34.566406 46.128906 34.527344 46.164062 L 29.15625 50.71875 C 29.121094 50.75 29.117188 50.800781 29.144531 50.835938 C 29.324219 51.046875 29.40625 51.320312 29.375 51.59375 C 29.34375 51.867188 29.203125 52.109375 28.980469 52.277344 C 28.8125 52.402344 28.605469 52.46875 28.390625 52.46875 " fill-opacity="1" fill-rule="nonzero"/><g fill="#627d6a" fill-opacity="1"><g transform="translate(39.973409, 70.850908)"><g><path d="M 3.53125 -1.65625 C 3.53125 -1.414062 3.488281 -1.191406 3.40625 -0.984375 C 3.332031 -0.773438 3.222656 -0.59375 3.078125 -0.4375 C 2.929688 -0.289062 2.753906 -0.175781 2.546875 -0.09375 C 2.335938 -0.0078125 2.109375 0.03125 1.859375 0.03125 C 1.609375 0.03125 1.378906 -0.0078125 1.171875 -0.09375 C 0.960938 -0.175781 0.785156 -0.289062 0.640625 -0.4375 C 0.492188 -0.59375 0.378906 -0.773438 0.296875 -0.984375 C 0.210938 -1.191406 0.171875 -1.414062 0.171875 -1.65625 C 0.171875 -1.90625 0.210938 -2.128906 0.296875 -2.328125 C 0.378906 -2.535156 0.492188 -2.71875 0.640625 -2.875 C 0.785156 -3.03125 0.960938 -3.148438 1.171875 -3.234375 C 1.378906 -3.316406 1.609375 -3.359375 1.859375 -3.359375 C 2.023438 -3.359375 2.179688 -3.335938 2.328125 -3.296875 C 2.472656 -3.253906 2.609375 -3.195312 2.734375 -3.125 C 2.859375 -3.0625 2.96875 -2.976562 3.0625 -2.875 C 3.164062 -2.769531 3.25 -2.65625 3.3125 -2.53125 C 3.382812 -2.40625 3.4375 -2.269531 3.46875 -2.125 C 3.507812 -1.976562 3.53125 -1.820312 3.53125 -1.65625 Z M 2.90625 -1.65625 C 2.90625 -1.84375 2.878906 -2.007812 2.828125 -2.15625 C 2.785156 -2.300781 2.71875 -2.421875 2.625 -2.515625 C 2.53125 -2.617188 2.414062 -2.695312 2.28125 -2.75 C 2.15625 -2.800781 2.015625 -2.828125 1.859375 -2.828125 C 1.691406 -2.828125 1.539062 -2.800781 1.40625 -2.75 C 1.28125 -2.695312 1.171875 -2.617188 1.078125 -2.515625 C 0.992188 -2.421875 0.925781 -2.300781 0.875 -2.15625 C 0.820312 -2.007812 0.796875 -1.84375 0.796875 -1.65625 C 0.796875 -1.476562 0.820312 -1.316406 0.875 -1.171875 C 0.925781 -1.023438 0.992188 -0.898438 1.078125 -0.796875 C 1.171875 -0.703125 1.28125 -0.625 1.40625 -0.5625 C 1.539062 -0.507812 1.691406 -0.484375 1.859375 -0.484375 C 2.015625 -0.484375 2.15625 -0.507812 2.28125 -0.5625 C 2.414062 -0.625 2.53125 -0.703125 2.625 -0.796875 C 2.71875 -0.898438 2.785156 -1.023438 2.828125 -1.171875 C 2.878906 -1.316406 2.90625 -1.476562 2.90625 -1.65625 Z M 2.90625 -1.65625 "/></g></g></g><g fill="#627d6a" fill-opacity="1"><g transform="translate(44.255899, 70.850908)"><g><path d="M 0.984375 -2.828125 L 0.984375 -1.84375 L 2.234375 -1.84375 L 2.234375 -1.359375 L 0.984375 -1.359375 L 0.984375 0 L 0.375 0 L 0.375 -3.328125 L 2.46875 -3.328125 L 2.46875 -2.828125 Z M 0.984375 -2.828125 "/></g></g></g><g fill="#627d6a" fill-opacity="1"><g transform="translate(47.427648, 70.850908)"><g><path d="M 0.984375 -2.828125 L 0.984375 -1.84375 L 2.234375 -1.84375 L 2.234375 -1.359375 L 0.984375 -1.359375 L 0.984375 0 L 0.375 0 L 0.375 -3.328125 L 2.46875 -3.328125 L 2.46875 -2.828125 Z M 0.984375 -2.828125 "/></g></g></g><g clip-path="url(#f1efdffd05)"><path fill="#fffbf1" d="M 86.292969 73.597656 C 86.066406 73.597656 85.839844 73.597656 85.613281 73.65625 C 85.042969 73.710938 84.417969 73.769531 83.738281 73.9375 C 83.054688 74.050781 82.429688 74.222656 81.746094 74.449219 C 81.121094 74.675781 80.554688 74.960938 79.929688 75.300781 C 79.703125 75.46875 79.476562 75.640625 79.246094 75.808594 C 78.90625 76.09375 78.621094 76.378906 78.28125 76.71875 C 77.828125 77.230469 77.429688 77.851562 77.03125 78.421875 C 76.863281 78.703125 76.691406 78.929688 76.578125 79.15625 C 76.40625 79.441406 76.292969 79.726562 76.238281 79.953125 L 76.179688 80.121094 C 75.894531 80.804688 75.667969 81.484375 75.496094 82.222656 C 75.328125 82.789062 75.269531 83.414062 75.15625 83.980469 C 75.042969 84.773438 74.988281 85.457031 74.988281 86.082031 C 74.988281 86.648438 75.042969 87.214844 75.101562 87.839844 C 75.15625 88.519531 75.269531 89.144531 75.382812 89.769531 C 75.667969 91.1875 75.953125 92.433594 76.351562 93.570312 C 76.578125 94.195312 76.863281 94.933594 77.144531 95.667969 L 77.257812 95.894531 C 77.371094 96.179688 77.542969 96.464844 77.65625 96.804688 C 77.828125 97.144531 77.996094 97.484375 78.167969 97.824219 L 78.28125 97.996094 L 78.339844 98.109375 C 78.566406 98.5625 78.792969 99.015625 79.078125 99.472656 C 79.191406 99.699219 79.304688 99.867188 79.476562 100.09375 C 79.644531 100.433594 79.871094 100.71875 80.042969 101.058594 C 80.554688 101.96875 81.238281 103.101562 81.976562 104.238281 C 82.371094 104.804688 82.828125 105.316406 83.28125 105.882812 C 83.566406 106.222656 83.851562 106.5625 84.132812 106.902344 C 84.304688 107.128906 84.476562 107.359375 84.644531 107.585938 C 84.757812 107.699219 84.816406 107.867188 84.929688 107.980469 C 85.15625 108.265625 85.328125 108.550781 85.554688 108.832031 C 85.78125 109.117188 86.066406 109.34375 86.40625 109.398438 C 86.464844 109.398438 86.578125 109.398438 86.632812 109.398438 C 86.691406 109.398438 86.746094 109.398438 86.804688 109.398438 C 87.203125 109.398438 87.601562 109.230469 87.828125 108.945312 C 87.941406 108.777344 88.113281 108.605469 88.28125 108.4375 C 88.394531 108.320312 88.507812 108.207031 88.621094 108.09375 L 88.738281 107.980469 C 88.90625 107.8125 89.078125 107.585938 89.246094 107.414062 L 89.078125 107.527344 L 89.246094 107.359375 L 89.363281 107.300781 C 89.53125 107.128906 89.757812 107.015625 89.929688 106.847656 L 90.042969 106.734375 C 90.382812 106.507812 90.726562 106.222656 91.121094 105.824219 C 91.238281 105.710938 91.351562 105.65625 91.40625 105.542969 C 91.519531 105.429688 91.691406 105.316406 91.804688 105.144531 C 91.863281 105.089844 91.976562 104.972656 92.03125 104.917969 C 92.144531 104.804688 92.257812 104.691406 92.371094 104.578125 L 92.65625 104.292969 C 92.769531 104.179688 92.941406 104.066406 93.054688 103.953125 C 93.167969 103.839844 93.339844 103.726562 93.453125 103.613281 L 93.507812 103.554688 C 94.019531 103.160156 94.191406 102.476562 93.964844 101.910156 C 94.019531 101.570312 93.90625 101.230469 93.738281 101.003906 C 93.453125 100.605469 93.113281 100.207031 92.828125 99.867188 L 92.65625 99.640625 C 92.429688 99.355469 92.257812 99.015625 92.089844 98.734375 C 92.03125 98.621094 91.976562 98.507812 91.917969 98.449219 C 91.746094 98.164062 91.578125 97.882812 91.40625 97.65625 C 91.121094 97.257812 90.894531 96.917969 90.667969 96.578125 C 90.269531 95.894531 89.816406 95.214844 89.417969 94.476562 C 89.417969 94.476562 89.417969 94.421875 89.363281 94.421875 C 89.191406 94.082031 89.078125 93.738281 88.964844 93.457031 C 88.851562 93.171875 88.738281 92.890625 88.679688 92.605469 C 88.679688 92.546875 88.679688 92.492188 88.621094 92.433594 C 88.566406 92.039062 88.507812 91.640625 88.507812 91.300781 C 88.507812 91.128906 88.566406 90.960938 88.566406 90.847656 C 88.621094 90.789062 88.621094 90.734375 88.679688 90.621094 C 88.792969 90.449219 88.90625 90.335938 89.019531 90.222656 C 89.191406 90.109375 89.304688 89.996094 89.476562 89.882812 C 89.644531 89.824219 89.816406 89.769531 89.988281 89.710938 C 90.15625 89.65625 90.382812 89.65625 90.554688 89.65625 C 90.78125 89.65625 90.953125 89.710938 91.179688 89.769531 C 91.464844 89.882812 91.804688 90.050781 92.089844 90.222656 C 93.054688 90.902344 94.019531 91.753906 95.15625 92.945312 C 95.382812 93.171875 95.667969 93.511719 96.007812 93.796875 C 96.292969 94.082031 96.632812 94.363281 96.917969 94.703125 C 97.089844 94.933594 97.316406 95.160156 97.542969 95.441406 C 97.769531 95.78125 97.996094 96.007812 98.226562 96.292969 C 98.453125 96.578125 98.738281 96.859375 99.019531 97.144531 L 99.132812 97.257812 C 99.246094 97.371094 99.417969 97.542969 99.53125 97.65625 C 99.703125 97.769531 99.871094 97.882812 100.042969 97.9375 C 100.328125 98.050781 100.441406 98.050781 100.726562 98.050781 L 100.839844 98.050781 C 101.066406 98.050781 101.292969 97.9375 101.578125 97.769531 C 101.632812 97.710938 101.746094 97.65625 101.804688 97.597656 C 101.917969 97.542969 101.976562 97.484375 102.089844 97.429688 L 102.203125 97.371094 C 102.371094 97.257812 102.542969 97.203125 102.714844 97.085938 C 102.996094 96.917969 103.226562 96.691406 103.507812 96.464844 C 103.621094 96.351562 103.792969 96.238281 103.90625 96.125 C 104.019531 96.007812 104.132812 95.894531 104.304688 95.78125 C 104.589844 95.554688 104.871094 95.273438 105.15625 95.046875 L 105.441406 94.816406 C 105.554688 94.703125 105.726562 94.589844 105.839844 94.476562 C 105.953125 94.363281 106.121094 94.25 106.238281 94.136719 C 106.464844 93.910156 106.691406 93.738281 106.917969 93.511719 L 107.203125 93.230469 C 107.316406 93.117188 107.429688 93.058594 107.542969 92.945312 C 107.714844 92.832031 107.882812 92.660156 108.054688 92.546875 C 108.113281 92.546875 108.113281 92.492188 108.167969 92.492188 C 108.226562 92.433594 108.339844 92.378906 108.394531 92.265625 C 108.621094 91.925781 108.738281 91.640625 108.738281 91.242188 C 108.738281 91.1875 108.738281 91.128906 108.738281 91.128906 C 108.738281 90.847656 108.738281 90.507812 108.507812 90.222656 C 108.226562 89.882812 107.941406 89.597656 107.65625 89.257812 C 107.542969 89.144531 107.429688 88.972656 107.257812 88.859375 C 107.03125 88.578125 106.746094 88.292969 106.519531 88.007812 C 106.238281 87.667969 105.953125 87.328125 105.667969 87.042969 C 105.214844 86.535156 104.703125 85.96875 104.191406 85.457031 C 103.964844 85.230469 103.738281 84.945312 103.507812 84.71875 C 102.714844 83.8125 101.804688 82.847656 100.839844 81.9375 C 100.382812 81.542969 99.929688 81.144531 99.53125 80.691406 C 99.132812 80.234375 98.679688 79.78125 98.167969 79.328125 C 97.316406 78.535156 96.292969 77.796875 95.15625 76.945312 C 94.019531 76.152344 92.828125 75.46875 91.519531 74.847656 C 90.953125 74.617188 90.328125 74.390625 89.53125 74.109375 C 89.019531 73.9375 88.394531 73.769531 87.769531 73.710938 C 87.144531 73.65625 86.746094 73.597656 86.292969 73.597656 M 100.894531 95.160156 C 100.953125 95.160156 100.953125 95.101562 101.007812 95.101562 C 100.953125 95.101562 100.894531 95.160156 100.894531 95.160156 " fill-opacity="1" fill-rule="nonzero"/></g><g clip-path="url(#631d134c01)"><g clip-path="url(#f0b26c0b56)"><g clip-path="url(#3a1304cf1c)"><path fill="#fffbf1" d="M 7.097656 14.160156 C 7.320312 14.105469 7.542969 14.054688 7.75 13.945312 C 8.289062 13.757812 8.882812 13.558594 9.507812 13.234375 C 10.144531 12.964844 10.710938 12.652344 11.324219 12.273438 C 11.878906 11.910156 12.363281 11.5 12.894531 11.023438 C 13.074219 10.804688 13.257812 10.585938 13.4375 10.367188 C 13.703125 10.015625 13.914062 9.671875 14.164062 9.261719 C 14.488281 8.660156 14.730469 7.960938 14.984375 7.316406 C 15.085938 7 15.199219 6.738281 15.257812 6.492188 C 15.355469 6.175781 15.402344 5.875 15.402344 5.640625 L 15.417969 5.460938 C 15.539062 4.734375 15.601562 4.019531 15.59375 3.261719 C 15.628906 2.671875 15.539062 2.050781 15.515625 1.472656 C 15.441406 0.671875 15.339844 -0.00390625 15.195312 -0.609375 C 15.0625 -1.160156 14.875 -1.699219 14.675781 -2.292969 C 14.460938 -2.945312 14.207031 -3.523438 13.953125 -4.105469 C 13.34375 -5.417969 12.777344 -6.566406 12.128906 -7.578125 C 11.761719 -8.132812 11.316406 -8.785156 10.867188 -9.433594 L 10.703125 -9.628906 C 10.527344 -9.878906 10.296875 -10.113281 10.105469 -10.417969 C 9.859375 -10.710938 9.617188 -11.003906 9.371094 -11.292969 L 9.222656 -11.433594 L 9.140625 -11.53125 C 8.8125 -11.917969 8.484375 -12.308594 8.105469 -12.683594 C 7.941406 -12.878906 7.789062 -13.015625 7.574219 -13.199219 C 7.328125 -13.488281 7.039062 -13.710938 6.796875 -14.003906 C 6.085938 -14.769531 5.160156 -15.714844 4.179688 -16.644531 C 3.660156 -17.105469 3.097656 -17.496094 2.523438 -17.941406 C 2.167969 -18.207031 1.8125 -18.472656 1.457031 -18.738281 C 1.238281 -18.917969 1.019531 -19.097656 0.804688 -19.28125 C 0.667969 -19.363281 0.570312 -19.515625 0.433594 -19.601562 C 0.148438 -19.824219 -0.0859375 -20.058594 -0.371094 -20.285156 C -0.660156 -20.507812 -0.988281 -20.660156 -1.332031 -20.636719 C -1.386719 -20.625 -1.496094 -20.597656 -1.554688 -20.585938 C -1.609375 -20.570312 -1.664062 -20.558594 -1.71875 -20.542969 C -2.105469 -20.453125 -2.453125 -20.195312 -2.609375 -19.867188 C -2.679688 -19.671875 -2.804688 -19.46875 -2.933594 -19.261719 C -3.015625 -19.125 -3.101562 -18.988281 -3.183594 -18.851562 L -3.269531 -18.714844 C -3.394531 -18.511719 -3.507812 -18.25 -3.632812 -18.046875 L -3.496094 -18.195312 L -3.621094 -17.988281 L -3.71875 -17.910156 C -3.84375 -17.703125 -4.039062 -17.539062 -4.164062 -17.335938 L -4.25 -17.199219 C -4.527344 -16.898438 -4.792969 -16.542969 -5.089844 -16.0625 C -5.171875 -15.925781 -5.269531 -15.847656 -5.296875 -15.722656 C -5.382812 -15.585938 -5.523438 -15.4375 -5.59375 -15.242188 C -5.636719 -15.175781 -5.71875 -15.039062 -5.761719 -14.96875 C -5.84375 -14.832031 -5.929688 -14.695312 -6.015625 -14.558594 L -6.222656 -14.21875 C -6.308594 -14.082031 -6.449219 -13.929688 -6.53125 -13.792969 C -6.617188 -13.65625 -6.753906 -13.507812 -6.839844 -13.371094 L -6.882812 -13.300781 C -7.285156 -12.796875 -7.292969 -12.09375 -6.941406 -11.597656 C -6.917969 -11.253906 -6.726562 -10.949219 -6.507812 -10.765625 C -6.140625 -10.445312 -5.71875 -10.140625 -5.363281 -9.875 L -5.144531 -9.691406 C -4.855469 -9.46875 -4.609375 -9.179688 -4.378906 -8.941406 C -4.296875 -8.84375 -4.214844 -8.746094 -4.148438 -8.707031 C -3.914062 -8.46875 -3.683594 -8.234375 -3.464844 -8.050781 C -3.097656 -7.730469 -2.796875 -7.453125 -2.496094 -7.175781 C -1.953125 -6.605469 -1.351562 -6.046875 -0.792969 -5.421875 C -0.792969 -5.421875 -0.78125 -5.367188 -0.722656 -5.382812 C -0.480469 -5.089844 -0.289062 -4.785156 -0.113281 -4.535156 C 0.0625 -4.285156 0.238281 -4.035156 0.359375 -3.773438 C 0.375 -3.71875 0.386719 -3.664062 0.457031 -3.621094 C 0.601562 -3.25 0.75 -2.875 0.828125 -2.542969 C 0.871094 -2.378906 0.851562 -2.199219 0.878906 -2.089844 C 0.835938 -2.019531 0.851562 -1.964844 0.820312 -1.84375 C 0.75 -1.652344 0.667969 -1.515625 0.582031 -1.375 C 0.445312 -1.226562 0.359375 -1.089844 0.21875 -0.941406 C 0.0664062 -0.84375 -0.0859375 -0.75 -0.238281 -0.65625 C -0.390625 -0.5625 -0.613281 -0.507812 -0.777344 -0.46875 C -1 -0.414062 -1.175781 -0.429688 -1.410156 -0.433594 C -1.714844 -0.476562 -2.085938 -0.5625 -2.402344 -0.664062 C -3.5 -1.101562 -4.636719 -1.703125 -6.019531 -2.601562 C -6.292969 -2.769531 -6.648438 -3.03125 -7.046875 -3.230469 C -7.386719 -3.4375 -7.785156 -3.636719 -8.140625 -3.902344 C -8.359375 -4.082031 -8.632812 -4.25 -8.917969 -4.472656 C -9.21875 -4.75 -9.492188 -4.917969 -9.78125 -5.144531 C -10.066406 -5.367188 -10.410156 -5.574219 -10.753906 -5.785156 L -10.890625 -5.871094 C -11.027344 -5.953125 -11.230469 -6.078125 -11.367188 -6.164062 C -11.558594 -6.234375 -11.753906 -6.304688 -11.929688 -6.320312 C -12.234375 -6.363281 -12.34375 -6.339844 -12.621094 -6.273438 L -12.730469 -6.246094 C -12.953125 -6.191406 -13.148438 -6.03125 -13.382812 -5.796875 C -13.425781 -5.730469 -13.523438 -5.648438 -13.566406 -5.578125 C -13.664062 -5.5 -13.703125 -5.429688 -13.800781 -5.347656 L -13.898438 -5.265625 C -14.039062 -5.117188 -14.191406 -5.023438 -14.332031 -4.871094 C -14.566406 -4.640625 -14.734375 -4.367188 -14.960938 -4.082031 C -15.042969 -3.941406 -15.183594 -3.792969 -15.265625 -3.65625 C -15.351562 -3.519531 -15.4375 -3.382812 -15.574219 -3.234375 C -15.796875 -2.945312 -16.007812 -2.605469 -16.234375 -2.316406 L -16.457031 -2.03125 C -16.539062 -1.894531 -16.679688 -1.742188 -16.765625 -1.605469 C -16.847656 -1.46875 -16.988281 -1.320312 -17.070312 -1.183594 C -17.238281 -0.910156 -17.421875 -0.691406 -17.589844 -0.417969 L -17.800781 -0.078125 C -17.882812 0.0625 -17.980469 0.140625 -18.066406 0.277344 C -18.207031 0.429688 -18.332031 0.632812 -18.472656 0.785156 C -18.527344 0.796875 -18.511719 0.851562 -18.566406 0.867188 C -18.609375 0.933594 -18.707031 1.015625 -18.738281 1.140625 C -18.878906 1.523438 -18.921875 1.824219 -18.832031 2.210938 C -18.816406 2.265625 -18.804688 2.320312 -18.804688 2.320312 C -18.738281 2.597656 -18.660156 2.929688 -18.371094 3.152344 C -18.015625 3.417969 -17.675781 3.628906 -17.320312 3.890625 C -17.183594 3.976562 -17.03125 4.117188 -16.839844 4.1875 C -16.554688 4.410156 -16.210938 4.621094 -15.921875 4.84375 C -15.566406 5.109375 -15.210938 5.371094 -14.871094 5.582031 C -14.308594 5.972656 -13.679688 6.40625 -13.066406 6.785156 C -12.789062 6.953125 -12.503906 7.175781 -12.230469 7.34375 C -11.246094 8.042969 -10.136719 8.769531 -8.988281 9.425781 C -8.453125 9.707031 -7.917969 9.988281 -7.425781 10.335938 C -6.933594 10.6875 -6.386719 11.023438 -5.78125 11.34375 C -4.769531 11.917969 -3.601562 12.398438 -2.300781 12.960938 C -1.011719 13.472656 0.308594 13.855469 1.726562 14.160156 C 2.332031 14.25 2.992188 14.324219 3.832031 14.414062 C 4.367188 14.460938 5.015625 14.480469 5.636719 14.390625 C 6.257812 14.300781 6.65625 14.265625 7.097656 14.160156 M -12.113281 -3.417969 C -12.167969 -3.40625 -12.15625 -3.351562 -12.210938 -3.335938 C -12.15625 -3.351562 -12.113281 -3.417969 -12.113281 -3.417969 " fill-opacity="1" fill-rule="nonzero"/></g></g></g><g fill="#fffbf1" fill-opacity="1"><g transform="translate(19.412578, 28.582616)"><g><path d="M 5.839844 -2.625 C 5.589844 -3.660156 4.890625 -4.390625 3.714844 -4.859375 C 3.300781 -5.035156 2.898438 -5.273438 2.515625 -5.503906 L 2.277344 -5.65625 C 2.125 -5.742188 2.046875 -5.863281 2.046875 -5.992188 C 2.046875 -6.132812 2.136719 -6.253906 2.289062 -6.339844 C 2.550781 -6.492188 2.867188 -6.65625 3.191406 -6.722656 C 3.902344 -6.886719 4.554688 -6.667969 4.992188 -6.492188 C 5.164062 -6.417969 5.304688 -6.417969 5.382812 -6.472656 C 5.492188 -6.546875 5.511719 -6.710938 5.503906 -6.84375 C 5.492188 -7.027344 5.4375 -7.222656 5.339844 -7.375 C 5.097656 -7.78125 4.71875 -8.042969 4.214844 -8.160156 C 3.082031 -8.421875 2.046875 -8.183594 1.15625 -7.453125 C 0.699219 -7.070312 0.425781 -6.570312 0.402344 -6.035156 C 0.371094 -5.503906 0.589844 -4.957031 1.011719 -4.53125 C 1.625 -3.910156 2.289062 -3.496094 3.050781 -3.269531 C 3.421875 -3.160156 3.800781 -2.984375 3.988281 -2.527344 L 4.042969 -2.40625 L 3.683594 -2.308594 C 3.246094 -2.179688 2.84375 -2.289062 2.453125 -2.398438 C 2.355469 -2.429688 2.253906 -2.453125 2.15625 -2.472656 C 2.046875 -2.507812 1.941406 -2.515625 1.839844 -2.515625 C 1.460938 -2.515625 1.144531 -2.355469 0.96875 -2.058594 C 0.75 -1.6875 0.839844 -1.199219 1.1875 -0.816406 C 1.515625 -0.457031 2.046875 -0.03125 2.734375 -0.0664062 C 3.496094 -0.0976562 4.140625 -0.195312 4.675781 -0.382812 C 5.632812 -0.707031 6.089844 -1.589844 5.839844 -2.625 Z M 5.839844 -2.625 "/></g></g></g><g fill="#fffbf1" fill-opacity="1"><g transform="translate(25.687376, 28.582616)"><g><path d="M 7.519531 -0.992188 C 7.421875 -2.84375 7.3125 -4.804688 7.179688 -6.996094 C 7.160156 -7.320312 7.113281 -7.617188 7.050781 -7.890625 C 6.996094 -8.117188 6.820312 -8.257812 6.582031 -8.28125 C 6.277344 -8.324219 6.101562 -8.140625 6.015625 -7.976562 C 5.949219 -7.84375 5.894531 -7.691406 5.871094 -7.539062 C 5.828125 -7.222656 5.808594 -6.90625 5.785156 -6.625 C 5.765625 -6.285156 5.753906 -5.960938 5.730469 -5.621094 L 5.699219 -5.042969 L 1.992188 -5.042969 L 1.960938 -5.503906 C 1.949219 -5.675781 1.941406 -5.851562 1.917969 -6.035156 C 1.894531 -6.441406 1.875 -6.855469 1.820312 -7.257812 C 1.777344 -7.636719 1.546875 -7.878906 1.21875 -7.898438 C 0.894531 -7.921875 0.632812 -7.683594 0.542969 -7.300781 C 0.480469 -6.941406 0.382812 -6.492188 0.402344 -6.078125 C 0.46875 -4.421875 0.566406 -2.636719 0.707031 -0.445312 C 0.730469 -0.0234375 0.992188 0.273438 1.351562 0.273438 C 1.363281 0.273438 1.363281 0.273438 1.363281 0.273438 C 1.722656 0.261719 1.960938 -0.0234375 2.003906 -0.480469 C 2.015625 -0.609375 2.015625 -0.761719 2.015625 -0.894531 L 2.015625 -0.9375 C 2.015625 -1.371094 2.003906 -1.820312 2.003906 -2.265625 L 1.992188 -3.019531 C 1.992188 -3.105469 1.992188 -3.191406 1.992188 -3.300781 L 1.992188 -3.574219 L 5.71875 -3.574219 L 5.710938 -3.3125 C 5.710938 -3.214844 5.710938 -3.117188 5.71875 -3.019531 C 5.71875 -2.820312 5.730469 -2.625 5.730469 -2.429688 C 5.753906 -1.894531 5.773438 -1.339844 5.820312 -0.796875 C 5.839844 -0.542969 5.925781 -0.261719 6.070312 0 C 6.222656 0.292969 6.484375 0.4375 6.820312 0.390625 C 7.148438 0.347656 7.375 0.152344 7.453125 -0.164062 C 7.507812 -0.402344 7.527344 -0.6875 7.519531 -0.992188 Z M 7.519531 -0.992188 "/></g></g></g><g fill="#fffbf1" fill-opacity="1"><g transform="translate(33.563551, 28.582616)"><g><path d="M 2.582031 -6.460938 C 2.5625 -6.855469 2.496094 -7.191406 2.398438 -7.484375 C 2.277344 -7.878906 1.992188 -8.105469 1.578125 -8.117188 C 1.1875 -8.140625 0.839844 -7.898438 0.707031 -7.507812 C 0.609375 -7.214844 0.542969 -6.886719 0.511719 -6.546875 C 0.46875 -6.003906 0.445312 -5.457031 0.425781 -4.914062 C 0.414062 -4.738281 0.402344 -4.554688 0.402344 -4.378906 L 0.445312 -4.378906 L 0.445312 -4.261719 C 0.445312 -4.019531 0.445312 -3.78125 0.4375 -3.542969 C 0.4375 -2.984375 0.425781 -2.398438 0.457031 -1.832031 C 0.480469 -1.417969 0.597656 -1.003906 0.773438 -0.675781 C 0.914062 -0.425781 1.15625 -0.273438 1.40625 -0.273438 C 1.417969 -0.273438 1.417969 -0.273438 1.417969 -0.273438 C 1.6875 -0.273438 1.949219 -0.4375 2.101562 -0.71875 C 2.199219 -0.894531 2.265625 -1.058594 2.277344 -1.210938 L 2.355469 -1.851562 C 2.515625 -3.355469 2.691406 -4.914062 2.582031 -6.460938 Z M 2.582031 -6.460938 "/></g></g></g><g fill="#fffbf1" fill-opacity="1"><g transform="translate(36.559316, 28.582616)"><g><path d="M 6.820312 -6.308594 C 6.539062 -7.976562 5.316406 -8.921875 3.628906 -8.792969 C 2.964844 -8.738281 2.40625 -8.542969 1.886719 -8.183594 L 1.785156 -8.117188 L 1.722656 -8.203125 C 1.699219 -8.238281 1.679688 -8.269531 1.667969 -8.292969 C 1.632812 -8.335938 1.613281 -8.367188 1.589844 -8.390625 C 1.4375 -8.53125 1.253906 -8.609375 1.078125 -8.609375 C 1.011719 -8.609375 0.949219 -8.597656 0.894531 -8.574219 C 0.652344 -8.5 0.492188 -8.304688 0.4375 -8.03125 C 0.390625 -7.855469 0.390625 -7.671875 0.402344 -7.484375 C 0.414062 -6.753906 0.480469 -6.027344 0.542969 -5.304688 C 0.621094 -4.542969 0.699219 -3.757812 0.707031 -2.972656 C 0.707031 -2.539062 0.675781 -2.09375 0.644531 -1.65625 C 0.632812 -1.4375 0.621094 -1.210938 0.609375 -0.992188 C 0.589844 -0.644531 0.589844 -0.359375 0.839844 -0.230469 L 0.871094 -0.195312 C 0.980469 -0.0664062 1.253906 0.0429688 1.546875 -0.0117188 C 1.765625 -0.0429688 2.058594 -0.175781 2.246094 -0.609375 C 2.332031 -0.804688 2.332031 -1.066406 2.34375 -1.308594 L 2.34375 -1.40625 C 2.355469 -1.644531 2.332031 -2.058594 2.320312 -2.332031 L 2.300781 -2.605469 L 2.429688 -2.605469 C 2.605469 -2.605469 2.777344 -2.605469 2.964844 -2.59375 C 3.3125 -2.570312 3.671875 -2.5625 3.957031 -2.605469 C 5.917969 -2.941406 7.125 -4.5 6.820312 -6.308594 Z M 4.414062 -4.945312 C 3.964844 -4.523438 3.410156 -4.324219 2.636719 -4.324219 C 2.5625 -4.324219 2.484375 -4.324219 2.398438 -4.335938 L 2.289062 -4.335938 L 2.289062 -4.457031 C 2.289062 -5.1875 2.441406 -5.785156 2.757812 -6.320312 C 3.039062 -6.789062 3.890625 -7.070312 4.371094 -6.855469 C 4.554688 -6.777344 4.730469 -6.582031 4.792969 -6.375 C 4.980469 -5.863281 4.847656 -5.371094 4.414062 -4.945312 Z M 4.414062 -4.945312 "/></g></g></g><g fill="#fffbf1" fill-opacity="1"><g transform="translate(43.792763, 28.582616)"><g><path d="M 6.820312 -6.308594 C 6.539062 -7.976562 5.316406 -8.921875 3.628906 -8.792969 C 2.964844 -8.738281 2.40625 -8.542969 1.886719 -8.183594 L 1.785156 -8.117188 L 1.722656 -8.203125 C 1.699219 -8.238281 1.679688 -8.269531 1.667969 -8.292969 C 1.632812 -8.335938 1.613281 -8.367188 1.589844 -8.390625 C 1.4375 -8.53125 1.253906 -8.609375 1.078125 -8.609375 C 1.011719 -8.609375 0.949219 -8.597656 0.894531 -8.574219 C 0.652344 -8.5 0.492188 -8.304688 0.4375 -8.03125 C 0.390625 -7.855469 0.390625 -7.671875 0.402344 -7.484375 C 0.414062 -6.753906 0.480469 -6.027344 0.542969 -5.304688 C 0.621094 -4.542969 0.699219 -3.757812 0.707031 -2.972656 C 0.707031 -2.539062 0.675781 -2.09375 0.644531 -1.65625 C 0.632812 -1.4375 0.621094 -1.210938 0.609375 -0.992188 C 0.589844 -0.644531 0.589844 -0.359375 0.839844 -0.230469 L 0.871094 -0.195312 C 0.980469 -0.0664062 1.253906 0.0429688 1.546875 -0.0117188 C 1.765625 -0.0429688 2.058594 -0.175781 2.246094 -0.609375 C 2.332031 -0.804688 2.332031 -1.066406 2.34375 -1.308594 L 2.34375 -1.40625 C 2.355469 -1.644531 2.332031 -2.058594 2.320312 -2.332031 L 2.300781 -2.605469 L 2.429688 -2.605469 C 2.605469 -2.605469 2.777344 -2.605469 2.964844 -2.59375 C 3.3125 -2.570312 3.671875 -2.5625 3.957031 -2.605469 C 5.917969 -2.941406 7.125 -4.5 6.820312 -6.308594 Z M 4.414062 -4.945312 C 3.964844 -4.523438 3.410156 -4.324219 2.636719 -4.324219 C 2.5625 -4.324219 2.484375 -4.324219 2.398438 -4.335938 L 2.289062 -4.335938 L 2.289062 -4.457031 C 2.289062 -5.1875 2.441406 -5.785156 2.757812 -6.320312 C 3.039062 -6.789062 3.890625 -7.070312 4.371094 -6.855469 C 4.554688 -6.777344 4.730469 -6.582031 4.792969 -6.375 C 4.980469 -5.863281 4.847656 -5.371094 4.414062 -4.945312 Z M 4.414062 -4.945312 "/></g></g></g><g fill="#fffbf1" fill-opacity="1"><g transform="translate(51.026211, 28.582616)"><g><path d="M 2.582031 -6.460938 C 2.5625 -6.855469 2.496094 -7.191406 2.398438 -7.484375 C 2.277344 -7.878906 1.992188 -8.105469 1.578125 -8.117188 C 1.1875 -8.140625 0.839844 -7.898438 0.707031 -7.507812 C 0.609375 -7.214844 0.542969 -6.886719 0.511719 -6.546875 C 0.46875 -6.003906 0.445312 -5.457031 0.425781 -4.914062 C 0.414062 -4.738281 0.402344 -4.554688 0.402344 -4.378906 L 0.445312 -4.378906 L 0.445312 -4.261719 C 0.445312 -4.019531 0.445312 -3.78125 0.4375 -3.542969 C 0.4375 -2.984375 0.425781 -2.398438 0.457031 -1.832031 C 0.480469 -1.417969 0.597656 -1.003906 0.773438 -0.675781 C 0.914062 -0.425781 1.15625 -0.273438 1.40625 -0.273438 C 1.417969 -0.273438 1.417969 -0.273438 1.417969 -0.273438 C 1.6875 -0.273438 1.949219 -0.4375 2.101562 -0.71875 C 2.199219 -0.894531 2.265625 -1.058594 2.277344 -1.210938 L 2.355469 -1.851562 C 2.515625 -3.355469 2.691406 -4.914062 2.582031 -6.460938 Z M 2.582031 -6.460938 "/></g></g></g><g fill="#fffbf1" fill-opacity="1"><g transform="translate(54.021977, 28.582616)"><g><path d="M 8.160156 -7.789062 C 8.074219 -8.203125 7.78125 -8.5 7.398438 -8.542969 C 6.984375 -8.597656 6.613281 -8.367188 6.460938 -7.988281 C 6.339844 -7.683594 6.265625 -7.355469 6.253906 -7.050781 C 6.210938 -6.210938 6.1875 -5.359375 6.167969 -4.53125 C 6.15625 -4.195312 6.144531 -3.855469 6.132812 -3.519531 C 6.132812 -3.433594 6.125 -3.34375 6.125 -3.257812 L 6.113281 -3.0625 L 5.828125 -2.953125 L 5.296875 -3.648438 C 4.9375 -4.109375 4.585938 -4.554688 4.238281 -5.011719 C 4.042969 -5.273438 3.847656 -5.546875 3.640625 -5.808594 C 3.289062 -6.277344 2.929688 -6.753906 2.5625 -7.214844 C 2.40625 -7.421875 2.199219 -7.59375 1.972656 -7.726562 C 1.820312 -7.8125 1.644531 -7.867188 1.480469 -7.867188 C 1.382812 -7.867188 1.285156 -7.84375 1.1875 -7.8125 C 0.925781 -7.726562 0.71875 -7.519531 0.597656 -7.234375 C 0.535156 -7.0625 0.492188 -6.898438 0.480469 -6.746094 C 0.328125 -4.992188 0.382812 -3.117188 0.652344 -0.851562 C 0.675781 -0.6875 0.742188 -0.5 0.851562 -0.328125 C 0.96875 -0.128906 1.15625 -0.0234375 1.328125 -0.03125 C 1.515625 -0.0429688 1.679688 -0.175781 1.785156 -0.382812 C 1.863281 -0.542969 1.917969 -0.730469 1.917969 -0.882812 C 1.960938 -1.796875 1.992188 -2.722656 2.027344 -3.617188 L 2.046875 -4.335938 C 2.058594 -4.414062 2.046875 -4.5 2.046875 -4.578125 L 2.046875 -4.9375 L 2.246094 -4.792969 C 2.398438 -4.675781 2.496094 -4.542969 2.570312 -4.421875 L 2.625 -4.359375 C 2.777344 -4.140625 2.929688 -3.910156 3.09375 -3.695312 C 3.464844 -3.160156 3.855469 -2.605469 4.28125 -2.113281 C 4.640625 -1.6875 5.199219 -1.089844 5.851562 -0.71875 C 6.484375 -0.359375 7.027344 -0.285156 7.429688 -0.5 C 7.835938 -0.730469 8.0625 -1.253906 8.097656 -1.992188 C 8.148438 -3.398438 8.171875 -4.828125 8.203125 -6.210938 L 8.214844 -7.105469 C 8.226562 -7.34375 8.203125 -7.574219 8.160156 -7.789062 Z M 8.160156 -7.789062 "/></g></g></g><g fill="#fffbf1" fill-opacity="1"><g transform="translate(62.617144, 28.582616)"><g><path d="M 7.484375 -2.613281 C 7.429688 -2.984375 7.375 -3.378906 7.289062 -3.769531 C 7.246094 -3.988281 7.113281 -4.390625 6.746094 -4.5 C 6.046875 -4.707031 5.339844 -4.621094 4.695312 -4.238281 C 4.554688 -4.152344 4.488281 -4.03125 4.488281 -3.878906 C 4.5 -3.703125 4.621094 -3.542969 4.804688 -3.464844 C 4.890625 -3.421875 5 -3.410156 5.109375 -3.386719 L 5.199219 -3.367188 C 5.261719 -3.355469 5.351562 -3.355469 5.425781 -3.34375 C 5.632812 -3.335938 5.839844 -3.3125 5.949219 -3.179688 C 6.058594 -3.027344 6.035156 -2.8125 6.027344 -2.605469 C 6.015625 -2.527344 6.015625 -2.453125 6.015625 -2.375 L 6.015625 -2.355469 C 6.046875 -2.003906 5.820312 -1.894531 5.65625 -1.832031 C 4.761719 -1.527344 3.902344 -1.625 3.171875 -2.136719 C 2.429688 -2.648438 2.082031 -3.355469 2.179688 -4.183594 C 2.277344 -4.992188 2.636719 -5.644531 3.257812 -6.132812 C 4.359375 -7.007812 5.480469 -7.222656 6.667969 -6.789062 C 6.777344 -6.746094 6.886719 -6.746094 6.960938 -6.800781 C 7.027344 -6.84375 7.0625 -6.90625 7.070312 -7.007812 C 7.082031 -7.179688 7.039062 -7.398438 6.953125 -7.527344 C 6.691406 -7.964844 6.242188 -8.128906 5.839844 -8.238281 C 4.890625 -8.5 3.640625 -8.25 2.570312 -7.574219 C 1.425781 -6.84375 0.664062 -5.753906 0.4375 -4.476562 C 0.285156 -3.59375 0.589844 -2.460938 1.210938 -1.570312 C 1.601562 -1.011719 2.289062 -0.316406 3.355469 -0.140625 C 4.238281 0.0117188 4.914062 -0.0234375 5.546875 -0.238281 C 5.621094 -0.261719 5.710938 -0.285156 5.796875 -0.285156 C 5.871094 -0.285156 5.9375 -0.261719 6.003906 -0.230469 C 6.332031 -0.0429688 6.625 0.0117188 6.855469 -0.0859375 C 7.070312 -0.175781 7.234375 -0.414062 7.332031 -0.761719 C 7.410156 -1.058594 7.441406 -1.371094 7.484375 -1.699219 C 7.507812 -1.851562 7.527344 -2.003906 7.550781 -2.15625 C 7.527344 -2.308594 7.507812 -2.460938 7.484375 -2.613281 Z M 7.484375 -2.613281 "/></g></g></g><g fill="#fffbf1" fill-opacity="1"><g transform="translate(17.800078, 39.982615)"><g><path d="M 7.8125 -8.097656 C 7.453125 -8.324219 7.015625 -8.238281 6.746094 -7.898438 C 6.503906 -7.582031 6.308594 -7.269531 6.15625 -6.941406 C 5.863281 -6.285156 5.589844 -5.613281 5.316406 -4.957031 C 5.21875 -4.71875 5.109375 -4.46875 5.011719 -4.226562 C 4.945312 -4.054688 4.871094 -3.878906 4.792969 -3.683594 L 4.554688 -3.117188 L 4.445312 -3.34375 C 4.316406 -3.605469 4.195312 -3.847656 4.074219 -4.097656 C 3.8125 -4.621094 3.574219 -5.121094 3.28125 -5.589844 C 2.789062 -6.363281 2.222656 -7.09375 1.625 -7.835938 C 1.472656 -8.019531 1.265625 -8.128906 1.058594 -8.128906 C 0.949219 -8.128906 0.839844 -8.097656 0.742188 -8.042969 C 0.445312 -7.890625 0.335938 -7.582031 0.425781 -7.214844 C 0.5 -6.898438 0.644531 -6.601562 0.785156 -6.296875 C 0.957031 -5.949219 1.144531 -5.589844 1.320312 -5.242188 C 1.527344 -4.835938 1.734375 -4.433594 1.929688 -4.019531 C 2.15625 -3.550781 2.375 -3.082031 2.59375 -2.613281 C 2.800781 -2.148438 3.019531 -1.679688 3.246094 -1.21875 C 3.386719 -0.914062 3.542969 -0.675781 3.703125 -0.492188 C 3.910156 -0.273438 4.171875 -0.152344 4.445312 -0.164062 C 4.730469 -0.175781 4.992188 -0.316406 5.175781 -0.566406 C 5.273438 -0.699219 5.359375 -0.851562 5.457031 -1.078125 C 6.253906 -2.875 7.039062 -4.683594 7.835938 -6.484375 L 8.074219 -7.039062 C 8.257812 -7.464844 8.148438 -7.878906 7.8125 -8.097656 Z M 7.8125 -8.097656 "/></g></g></g><g fill="#fffbf1" fill-opacity="1"><g transform="translate(25.959499, 39.982615)"><g><path d="M 4.628906 -8.117188 C 4.578125 -8.128906 4.523438 -8.128906 4.457031 -8.128906 C 4.347656 -8.128906 4.226562 -8.117188 4.109375 -8.097656 L 4 -8.085938 C 2.308594 -7.867188 1.199219 -6.917969 0.597656 -5.1875 C 0.238281 -4.152344 0.359375 -2.855469 0.90625 -1.894531 C 1.394531 -1.046875 2.199219 -0.480469 3.226562 -0.273438 L 3.257812 -0.261719 C 3.421875 -0.230469 3.585938 -0.195312 3.75 -0.175781 C 4.882812 -0.0429688 5.773438 -0.371094 6.472656 -1.199219 L 6.691406 -1.4375 C 6.863281 -1.644531 7.050781 -1.863281 7.222656 -2.070312 C 7.714844 -2.660156 7.988281 -3.386719 8.074219 -4.378906 C 7.933594 -6.84375 6.59375 -7.648438 4.628906 -8.117188 Z M 6.089844 -4.207031 C 6.046875 -4.109375 6.003906 -4.007812 5.960938 -3.902344 C 5.851562 -3.660156 5.742188 -3.421875 5.601562 -3.179688 C 5.503906 -3.019531 5.371094 -2.886719 5.25 -2.757812 C 5.199219 -2.703125 5.144531 -2.648438 5.097656 -2.59375 C 4.792969 -2.265625 4.378906 -2.082031 3.933594 -2.082031 C 3.824219 -2.082031 3.726562 -2.09375 3.617188 -2.113281 C 3.039062 -2.222656 2.570312 -2.625 2.363281 -3.179688 C 2.058594 -4.03125 2.199219 -4.835938 2.800781 -5.730469 C 3.179688 -6.308594 3.605469 -6.40625 4.238281 -6.078125 C 4.476562 -5.960938 4.730469 -5.839844 5.042969 -5.71875 C 5.730469 -5.4375 6.015625 -5.054688 6.101562 -4.269531 L 6.101562 -4.238281 Z M 6.089844 -4.207031 "/></g></g></g><g fill="#fffbf1" fill-opacity="1"><g transform="translate(34.402156, 39.982615)"><g><path d="M 7.082031 -7.636719 C 6.960938 -7.933594 6.722656 -8.097656 6.40625 -8.117188 C 6.058594 -8.140625 5.796875 -7.996094 5.65625 -7.703125 C 5.535156 -7.484375 5.457031 -7.234375 5.425781 -6.960938 C 5.382812 -6.691406 5.359375 -6.40625 5.339844 -6.132812 C 5.316406 -5.820312 5.296875 -5.492188 5.242188 -5.164062 L 5.21875 -5 C 5.109375 -4.269531 4.992188 -3.519531 4.785156 -2.789062 C 4.683594 -2.441406 4.488281 -2.210938 4.226562 -2.113281 C 3.945312 -2.003906 3.59375 -2.070312 3.234375 -2.300781 C 2.679688 -2.667969 2.363281 -3.214844 2.300781 -3.921875 C 2.277344 -4.238281 2.246094 -4.566406 2.222656 -4.882812 C 2.179688 -5.371094 2.136719 -5.871094 2.082031 -6.363281 C 2.046875 -6.734375 1.992188 -7.027344 1.917969 -7.289062 C 1.820312 -7.617188 1.570312 -7.8125 1.265625 -7.789062 C 0.957031 -7.769531 0.75 -7.605469 0.652344 -7.269531 C 0.609375 -7.136719 0.578125 -7.015625 0.566406 -6.90625 C 0.523438 -6.375 0.480469 -5.839844 0.425781 -5.296875 L 0.402344 -4.914062 L 0.4375 -4.914062 L 0.4375 -4.804688 C 0.4375 -4.707031 0.4375 -4.609375 0.4375 -4.511719 C 0.4375 -4.316406 0.4375 -4.109375 0.445312 -3.910156 C 0.5 -2.507812 1.113281 -1.4375 2.246094 -0.730469 C 2.964844 -0.292969 3.769531 -0.164062 4.523438 -0.382812 C 5.273438 -0.597656 5.882812 -1.132812 6.253906 -1.875 C 6.429688 -2.234375 6.59375 -2.613281 6.65625 -2.984375 C 6.855469 -4.171875 7.039062 -5.425781 7.222656 -6.941406 C 7.246094 -7.113281 7.203125 -7.355469 7.082031 -7.636719 Z M 7.082031 -7.636719 "/></g></g></g><g fill="#fffbf1" fill-opacity="1"><g transform="translate(42.005988, 39.982615)"><g><path d="M 8.28125 -1.6875 C 8.105469 -1.960938 7.835938 -2.082031 7.496094 -2.039062 C 7.277344 -2.015625 7.050781 -1.941406 6.855469 -1.875 C 5.90625 -1.570312 4.773438 -1.328125 3.585938 -1.90625 C 2.59375 -2.398438 2.070312 -3.367188 2.265625 -4.378906 C 2.332031 -4.707031 2.429688 -5.132812 2.648438 -5.46875 C 3.648438 -7.070312 4.773438 -7.519531 6.285156 -6.90625 C 6.492188 -6.832031 6.679688 -6.777344 6.84375 -6.753906 C 7.0625 -6.734375 7.246094 -6.800781 7.355469 -6.953125 C 7.453125 -7.09375 7.464844 -7.277344 7.375 -7.464844 C 7.277344 -7.671875 7.113281 -7.878906 6.898438 -8.0625 C 6.320312 -8.542969 5.589844 -8.78125 4.847656 -8.78125 C 4.207031 -8.78125 3.550781 -8.597656 2.972656 -8.226562 C 1.710938 -7.421875 0.914062 -6.363281 0.578125 -5.078125 C 0.140625 -3.378906 0.5 -1.984375 1.632812 -0.925781 C 2.484375 -0.128906 3.617188 0.328125 4.992188 0.4375 C 5.925781 0.382812 6.765625 0.183594 7.5625 -0.175781 C 7.800781 -0.285156 8.050781 -0.511719 8.28125 -0.804688 C 8.476562 -1.066406 8.476562 -1.394531 8.28125 -1.6875 Z M 8.28125 -1.6875 "/></g></g></g><g fill="#fffbf1" fill-opacity="1"><g transform="translate(50.797242, 39.982615)"><g><path d="M 7.519531 -0.992188 C 7.421875 -2.84375 7.3125 -4.804688 7.179688 -6.996094 C 7.160156 -7.320312 7.113281 -7.617188 7.050781 -7.890625 C 6.996094 -8.117188 6.820312 -8.257812 6.582031 -8.28125 C 6.277344 -8.324219 6.101562 -8.140625 6.015625 -7.976562 C 5.949219 -7.84375 5.894531 -7.691406 5.871094 -7.539062 C 5.828125 -7.222656 5.808594 -6.90625 5.785156 -6.625 C 5.765625 -6.285156 5.753906 -5.960938 5.730469 -5.621094 L 5.699219 -5.042969 L 1.992188 -5.042969 L 1.960938 -5.503906 C 1.949219 -5.675781 1.941406 -5.851562 1.917969 -6.035156 C 1.894531 -6.441406 1.875 -6.855469 1.820312 -7.257812 C 1.777344 -7.636719 1.546875 -7.878906 1.21875 -7.898438 C 0.894531 -7.921875 0.632812 -7.683594 0.542969 -7.300781 C 0.480469 -6.941406 0.382812 -6.492188 0.402344 -6.078125 C 0.46875 -4.421875 0.566406 -2.636719 0.707031 -0.445312 C 0.730469 -0.0234375 0.992188 0.273438 1.351562 0.273438 C 1.363281 0.273438 1.363281 0.273438 1.363281 0.273438 C 1.722656 0.261719 1.960938 -0.0234375 2.003906 -0.480469 C 2.015625 -0.609375 2.015625 -0.761719 2.015625 -0.894531 L 2.015625 -0.9375 C 2.015625 -1.371094 2.003906 -1.820312 2.003906 -2.265625 L 1.992188 -3.019531 C 1.992188 -3.105469 1.992188 -3.191406 1.992188 -3.300781 L 1.992188 -3.574219 L 5.71875 -3.574219 L 5.710938 -3.3125 C 5.710938 -3.214844 5.710938 -3.117188 5.71875 -3.019531 C 5.71875 -2.820312 5.730469 -2.625 5.730469 -2.429688 C 5.753906 -1.894531 5.773438 -1.339844 5.820312 -0.796875 C 5.839844 -0.542969 5.925781 -0.261719 6.070312 0 C 6.222656 0.292969 6.484375 0.4375 6.820312 0.390625 C 7.148438 0.347656 7.375 0.152344 7.453125 -0.164062 C 7.507812 -0.402344 7.527344 -0.6875 7.519531 -0.992188 Z M 7.519531 -0.992188 "/></g></g></g><g fill="#fffbf1" fill-opacity="1"><g transform="translate(58.673419, 39.982615)"><g><path d="M 4.835938 -1.972656 C 4.683594 -1.960938 4.53125 -1.929688 4.378906 -1.886719 C 4.261719 -1.839844 4.128906 -1.808594 4.007812 -1.785156 C 3.507812 -1.710938 3.0625 -1.65625 2.648438 -1.632812 C 2.550781 -1.625 2.453125 -1.699219 2.40625 -1.742188 C 2.363281 -1.785156 2.277344 -1.863281 2.277344 -1.960938 C 2.253906 -2.265625 2.253906 -2.582031 2.253906 -2.886719 C 2.253906 -2.996094 2.253906 -3.105469 2.253906 -3.203125 L 2.253906 -3.324219 L 2.375 -3.324219 C 2.582031 -3.335938 2.789062 -3.34375 2.996094 -3.355469 C 3.496094 -3.378906 3.976562 -3.398438 4.457031 -3.441406 C 4.683594 -3.464844 4.945312 -3.542969 5.199219 -3.660156 C 5.40625 -3.757812 5.632812 -3.964844 5.613281 -4.324219 C 5.578125 -4.628906 5.394531 -4.847656 5.097656 -4.914062 C 4.761719 -4.992188 4.371094 -5.011719 3.964844 -4.980469 C 3.648438 -4.945312 3.324219 -4.882812 2.984375 -4.816406 C 2.832031 -4.785156 2.679688 -4.75 2.515625 -4.730469 L 2.375 -4.707031 L 2.375 -5.242188 C 2.375 -5.523438 2.375 -5.796875 2.386719 -6.070312 C 2.386719 -6.351562 2.386719 -6.492188 2.484375 -6.59375 C 2.582031 -6.679688 2.722656 -6.679688 2.996094 -6.667969 L 3.28125 -6.648438 C 3.726562 -6.625 4.183594 -6.601562 4.628906 -6.625 C 5.339844 -6.667969 5.808594 -7.070312 5.785156 -7.617188 C 5.785156 -7.855469 5.675781 -8.085938 5.492188 -8.25 C 5.285156 -8.433594 5 -8.542969 4.675781 -8.542969 C 4.640625 -8.542969 4.609375 -8.542969 4.585938 -8.542969 C 3.902344 -8.5 3.203125 -8.402344 2.539062 -8.304688 L 2.058594 -8.238281 C 1.894531 -8.214844 1.710938 -8.128906 1.570312 -8.050781 C 1.121094 -7.800781 0.957031 -7.507812 1.046875 -7.09375 C 1.058594 -7.007812 1.046875 -6.90625 1.023438 -6.820312 L 1.023438 -6.765625 C 0.96875 -6.460938 0.90625 -6.144531 0.851562 -5.828125 C 0.742188 -5.175781 0.609375 -4.5 0.523438 -3.824219 C 0.402344 -3.027344 0.304688 -2.101562 0.554688 -1.199219 C 0.75 -0.492188 1.175781 -0.0664062 1.820312 0.0664062 C 2.921875 0.292969 3.945312 0.175781 4.871094 -0.285156 C 5.078125 -0.382812 5.273438 -0.535156 5.4375 -0.707031 C 5.6875 -0.980469 5.753906 -1.273438 5.613281 -1.570312 C 5.4375 -1.941406 5.089844 -1.992188 4.835938 -1.972656 Z M 4.835938 -1.972656 "/></g></g></g><g fill="#fffbf1" fill-opacity="1"><g transform="translate(64.828385, 39.982615)"><g><path d="M 6.339844 -2.246094 C 5.992188 -2.441406 5.664062 -2.648438 5.316406 -2.867188 C 5.164062 -2.964844 5 -3.0625 4.847656 -3.160156 L 4.683594 -3.257812 L 4.847656 -3.367188 C 4.96875 -3.433594 5.078125 -3.507812 5.1875 -3.574219 C 5.40625 -3.703125 5.613281 -3.835938 5.796875 -3.976562 C 6.59375 -4.585938 6.886719 -5.359375 6.699219 -6.265625 C 6.492188 -7.234375 5.871094 -7.878906 4.914062 -8.105469 C 4.007812 -8.324219 3.148438 -8.28125 2.363281 -7.964844 C 2.300781 -7.941406 2.113281 -7.878906 1.949219 -7.933594 C 1.777344 -7.996094 1.625 -8.03125 1.503906 -8.03125 C 1.394531 -8.03125 1.296875 -7.996094 1.21875 -7.953125 C 1.058594 -7.867188 0.949219 -7.660156 0.882812 -7.34375 C 0.445312 -5.042969 0.304688 -2.964844 0.457031 -1.003906 C 0.492188 -0.492188 0.785156 -0.152344 1.199219 -0.140625 C 1.632812 -0.128906 1.917969 -0.445312 1.984375 -0.96875 C 2.027344 -1.265625 2.046875 -1.570312 2.082031 -1.886719 L 2.148438 -2.515625 L 2.300781 -2.441406 C 2.355469 -2.40625 2.40625 -2.386719 2.453125 -2.363281 C 2.539062 -2.320312 2.613281 -2.289062 2.679688 -2.246094 C 2.921875 -2.113281 3.148438 -1.972656 3.378906 -1.832031 C 3.8125 -1.558594 4.261719 -1.285156 4.707031 -1.023438 C 5.042969 -0.828125 5.394531 -0.632812 5.753906 -0.535156 C 6.242188 -0.390625 6.746094 -0.652344 6.90625 -1.132812 C 7.09375 -1.699219 6.699219 -2.046875 6.339844 -2.246094 Z M 2.375 -4.761719 L 2.222656 -4.738281 L 2.234375 -4.890625 C 2.253906 -5.023438 2.253906 -5.164062 2.246094 -5.296875 C 2.246094 -5.699219 2.234375 -6.113281 2.679688 -6.417969 C 3.246094 -6.789062 3.890625 -6.855469 4.609375 -6.613281 C 4.835938 -6.539062 4.980469 -6.386719 5 -6.199219 C 5.035156 -5.992188 4.925781 -5.773438 4.707031 -5.632812 C 4.042969 -5.164062 3.28125 -4.882812 2.375 -4.761719 Z M 2.375 -4.761719 "/></g></g></g></svg>