<svg xmlns="http://www.w3.org/2000/svg" xmlns:xlink="http://www.w3.org/1999/xlink" width="150" zoomAndPan="magnify" viewBox="0 0 112.5 112.499997" height="150" preserveAspectRatio="xMidYMid meet" version="1.0"><defs><g/><clipPath id="17b61a0f17"><path d="M 0 0 L 112.003906 0 L 112.003906 112.003906 L 0 112.003906 Z M 0 0 " clip-rule="nonzero"/></clipPath><clipPath id="20ec7eece2"><path d="M 24.167969 56.25 L 88.667969 56.25 L 88.667969 96.75 L 24.167969 96.75 Z M 24.167969 56.25 " clip-rule="nonzero"/></clipPath><clipPath id="a78639c99e"><path d="M 93.734375 91.875 L 112.003906 91.875 L 112.003906 112.003906 L 93.734375 112.003906 Z M 93.734375 91.875 " clip-rule="nonzero"/></clipPath><clipPath id="18f70ef576"><path d="M 0 0 L 20 0 L 20 19 L 0 19 Z M 0 0 " clip-rule="nonzero"/></clipPath><clipPath id="da4948106f"><path d="M 22.648438 14.535156 L -18.199219 24.292969 L -28.660156 -19.472656 L 12.191406 -29.234375 Z M 22.648438 14.535156 " clip-rule="nonzero"/></clipPath><clipPath id="1f0d935ba5"><path d="M 22.648438 14.535156 L -18.199219 24.292969 L -28.660156 -19.472656 L 12.191406 -29.234375 Z M 22.648438 14.535156 " clip-rule="nonzero"/></clipPath></defs><g clip-path="url(#17b61a0f17)"><path fill="#ffffff" d="M 0 0 L 112.5 0 L 112.5 112.5 L 0 112.5 Z M 0 0 " fill-opacity="1" fill-rule="nonzero"/><path fill="#f87666" d="M 0 0 L 112.5 0 L 112.5 112.5 L 0 112.5 Z M 0 0 " fill-opacity="1" fill-rule="nonzero"/></g><g clip-path="url(#20ec7eece2)"><path fill="#fffbf1" d="M 79.488281 59.3125 L 43.167969 59.3125 L 44.085938 58.539062 C 44.488281 58.199219 44.632812 57.644531 44.453125 57.15625 C 44.273438 56.667969 43.800781 56.339844 43.265625 56.339844 C 41.828125 56.347656 40.464844 56.902344 39.429688 57.894531 L 37.976562 59.289062 L 37.878906 59.207031 C 37.960938 58.921875 37.988281 58.621094 37.953125 58.320312 C 37.882812 57.675781 37.554688 57.101562 37.03125 56.710938 C 36.625 56.40625 36.140625 56.246094 35.628906 56.246094 C 34.996094 56.246094 34.378906 56.503906 33.945312 56.953125 C 33.488281 57.421875 33.253906 58.035156 33.285156 58.683594 C 33.296875 58.902344 33.335938 59.113281 33.40625 59.3125 L 33.351562 59.3125 C 28.308594 59.3125 24.207031 63.394531 24.207031 68.410156 L 24.207031 87.652344 C 24.207031 92.667969 28.308594 96.746094 33.351562 96.746094 L 79.488281 96.746094 C 84.527344 96.746094 88.632812 92.667969 88.632812 87.652344 L 88.632812 68.410156 C 88.632812 63.394531 84.527344 59.3125 79.488281 59.3125 " fill-opacity="1" fill-rule="nonzero"/></g><path fill="#627d6a" d="M 35.511719 61.699219 L 33.351562 61.699219 L 33.339844 61.265625 L 35.511719 61.265625 Z M 43.109375 61.699219 L 40.9375 61.699219 L 40.9375 61.265625 L 43.109375 61.265625 Z M 46.90625 61.699219 L 44.734375 61.699219 L 44.734375 61.265625 L 46.90625 61.265625 Z M 50.703125 61.699219 L 48.535156 61.699219 L 48.535156 61.265625 L 50.703125 61.265625 Z M 54.503906 61.699219 L 52.332031 61.699219 L 52.332031 61.265625 L 54.503906 61.265625 Z M 58.300781 61.699219 L 56.128906 61.699219 L 56.128906 61.265625 L 58.300781 61.265625 Z M 62.097656 61.699219 L 59.929688 61.699219 L 59.929688 61.265625 L 62.097656 61.265625 Z M 65.898438 61.699219 L 63.726562 61.699219 L 63.726562 61.265625 L 65.898438 61.265625 Z M 69.695312 61.699219 L 67.523438 61.699219 L 67.523438 61.265625 L 69.695312 61.265625 Z M 73.492188 61.699219 L 71.324219 61.699219 L 71.324219 61.265625 L 73.492188 61.265625 Z M 77.292969 61.699219 L 75.121094 61.699219 L 75.121094 61.265625 L 77.292969 61.265625 Z M 81.027344 61.875 C 80.523438 61.757812 80.007812 61.699219 79.488281 61.699219 L 78.917969 61.699219 L 78.917969 61.265625 L 79.488281 61.265625 C 80.039062 61.265625 80.589844 61.328125 81.125 61.449219 Z M 29.84375 62.675781 L 29.617188 62.304688 C 30.257812 61.917969 30.949219 61.632812 31.679688 61.457031 L 31.78125 61.878906 C 31.097656 62.042969 30.445312 62.308594 29.84375 62.675781 Z M 84.210938 63.617188 C 83.707031 63.125 83.132812 62.71875 82.503906 62.40625 L 82.699219 62.015625 C 83.367188 62.351562 83.976562 62.785156 84.515625 63.304688 Z M 27.363281 65.316406 L 26.976562 65.113281 C 27.320312 64.457031 27.765625 63.855469 28.300781 63.332031 L 28.605469 63.636719 C 28.105469 64.132812 27.6875 64.695312 27.363281 65.316406 Z M 86.023438 66.746094 C 85.851562 66.070312 85.574219 65.425781 85.199219 64.832031 L 85.566406 64.601562 C 85.964844 65.230469 86.261719 65.917969 86.449219 66.636719 Z M 26.605469 68.867188 L 26.167969 68.867188 L 26.167969 68.410156 C 26.167969 67.820312 26.242188 67.238281 26.382812 66.671875 L 26.804688 66.777344 C 26.671875 67.308594 26.605469 67.855469 26.605469 68.410156 Z M 86.667969 70.453125 L 86.234375 70.453125 L 86.234375 68.410156 C 86.234375 68.371094 86.234375 68.332031 86.234375 68.296875 L 86.667969 68.289062 C 86.667969 68.328125 86.667969 68.367188 86.667969 68.410156 Z M 26.605469 72.644531 L 26.167969 72.644531 L 26.167969 70.484375 L 26.605469 70.484375 Z M 86.667969 74.230469 L 86.234375 74.230469 L 86.234375 72.070312 L 86.667969 72.070312 Z M 26.605469 76.421875 L 26.167969 76.421875 L 26.167969 74.265625 L 26.605469 74.265625 Z M 86.667969 78.007812 L 86.234375 78.007812 L 86.234375 75.847656 L 86.667969 75.847656 Z M 26.605469 80.203125 L 26.167969 80.203125 L 26.167969 78.042969 L 26.605469 78.042969 Z M 86.667969 81.785156 L 86.234375 81.785156 L 86.234375 79.625 L 86.667969 79.625 Z M 26.605469 83.980469 L 26.167969 83.980469 L 26.167969 81.820312 L 26.605469 81.820312 Z M 86.667969 85.5625 L 86.234375 85.5625 L 86.234375 83.40625 L 86.667969 83.40625 Z M 26.167969 87.761719 C 26.167969 87.722656 26.167969 87.6875 26.167969 87.652344 L 26.167969 85.597656 L 26.605469 85.597656 L 26.605469 87.652344 C 26.605469 87.683594 26.605469 87.71875 26.605469 87.753906 Z M 86.460938 89.378906 L 86.035156 89.273438 C 86.167969 88.746094 86.234375 88.199219 86.234375 87.652344 L 86.234375 87.183594 L 86.667969 87.183594 L 86.667969 87.652344 C 86.667969 88.234375 86.597656 88.816406 86.460938 89.378906 Z M 27.265625 91.449219 C 26.867188 90.820312 26.574219 90.132812 26.390625 89.414062 L 26.8125 89.304688 C 26.984375 89.980469 27.261719 90.625 27.636719 91.21875 Z M 84.546875 92.722656 L 84.238281 92.414062 C 84.738281 91.921875 85.15625 91.355469 85.480469 90.738281 L 85.867188 90.9375 C 85.523438 91.597656 85.078125 92.195312 84.546875 92.722656 Z M 30.128906 94.039062 C 29.460938 93.703125 28.851562 93.269531 28.316406 92.746094 L 28.621094 92.4375 C 29.125 92.929688 29.699219 93.335938 30.324219 93.652344 Z M 81.171875 94.597656 L 81.070312 94.175781 C 81.75 94.015625 82.402344 93.746094 83.003906 93.378906 L 83.230469 93.75 C 82.589844 94.140625 81.898438 94.425781 81.171875 94.597656 Z M 33.910156 94.796875 L 33.351562 94.796875 C 32.796875 94.796875 32.242188 94.734375 31.703125 94.605469 L 31.804688 94.183594 C 32.308594 94.304688 32.828125 94.363281 33.351562 94.363281 L 33.910156 94.363281 Z M 37.707031 94.796875 L 35.535156 94.796875 L 35.535156 94.363281 L 37.707031 94.363281 Z M 41.503906 94.796875 L 39.335938 94.796875 L 39.335938 94.363281 L 41.503906 94.363281 Z M 45.304688 94.796875 L 43.132812 94.796875 L 43.132812 94.363281 L 45.304688 94.363281 Z M 49.101562 94.796875 L 46.929688 94.796875 L 46.929688 94.363281 L 49.101562 94.363281 Z M 52.898438 94.796875 L 50.730469 94.796875 L 50.730469 94.363281 L 52.898438 94.363281 Z M 56.699219 94.796875 L 54.527344 94.796875 L 54.527344 94.363281 L 56.699219 94.363281 Z M 60.496094 94.796875 L 58.324219 94.796875 L 58.324219 94.363281 L 60.496094 94.363281 Z M 64.292969 94.796875 L 62.125 94.796875 L 62.125 94.363281 L 64.292969 94.363281 Z M 68.09375 94.796875 L 65.921875 94.796875 L 65.921875 94.363281 L 68.09375 94.363281 Z M 71.890625 94.796875 L 69.71875 94.796875 L 69.71875 94.363281 L 71.890625 94.363281 Z M 75.6875 94.796875 L 73.519531 94.796875 L 73.519531 94.363281 L 75.6875 94.363281 Z M 79.507812 94.796875 L 77.316406 94.796875 L 77.316406 94.363281 L 79.507812 94.363281 L 79.507812 94.796875 " fill-opacity="1" fill-rule="nonzero"/><path fill="#627d6a" d="M 36.179688 59.046875 C 36.042969 59.207031 35.839844 59.300781 35.625 59.300781 C 35.453125 59.300781 35.285156 59.238281 35.152344 59.128906 C 34.84375 58.867188 34.808594 58.40625 35.070312 58.105469 C 35.210938 57.941406 35.414062 57.847656 35.625 57.847656 C 35.800781 57.847656 35.96875 57.910156 36.101562 58.023438 C 36.40625 58.285156 36.441406 58.742188 36.179688 59.046875 Z M 36.589844 59.535156 C 36.570312 59.515625 36.554688 59.492188 36.554688 59.460938 C 36.550781 59.433594 36.558594 59.40625 36.578125 59.386719 C 36.800781 59.125 36.910156 58.78125 36.871094 58.4375 C 36.832031 58.09375 36.65625 57.789062 36.378906 57.578125 C 36.160156 57.414062 35.902344 57.332031 35.628906 57.332031 C 35.289062 57.332031 34.960938 57.46875 34.726562 57.707031 C 34.484375 57.957031 34.355469 58.285156 34.375 58.632812 C 34.390625 58.976562 34.550781 59.300781 34.8125 59.523438 C 34.976562 59.664062 35.175781 59.757812 35.386719 59.796875 C 35.65625 59.851562 35.90625 59.964844 36.101562 60.125 C 36.242188 60.242188 36.363281 60.382812 36.453125 60.542969 L 36.566406 60.734375 C 36.640625 60.867188 36.734375 60.988281 36.84375 61.09375 L 36.867188 61.117188 L 37.617188 60.410156 L 36.589844 59.535156 " fill-opacity="1" fill-rule="nonzero"/><path fill="#627d6a" d="M 43.355469 65.285156 L 39.308594 61.847656 L 38.410156 62.605469 L 40.164062 64.304688 C 40.996094 65.109375 42.089844 65.558594 43.246094 65.574219 L 43.25 65.574219 C 43.320312 65.574219 43.378906 65.53125 43.402344 65.464844 C 43.425781 65.402344 43.410156 65.328125 43.355469 65.285156 " fill-opacity="1" fill-rule="nonzero"/><path fill="#627d6a" d="M 35.621094 63.660156 C 35.449219 63.660156 35.28125 63.722656 35.152344 63.832031 C 35 63.957031 34.910156 64.132812 34.894531 64.328125 C 34.878906 64.519531 34.9375 64.707031 35.066406 64.855469 C 35.203125 65.019531 35.40625 65.113281 35.621094 65.113281 C 35.796875 65.113281 35.960938 65.050781 36.09375 64.941406 C 36.242188 64.816406 36.332031 64.640625 36.351562 64.445312 C 36.367188 64.253906 36.304688 64.066406 36.179688 63.917969 C 36.039062 63.753906 35.835938 63.660156 35.621094 63.660156 Z M 35.625 65.632812 C 35.28125 65.632812 34.953125 65.492188 34.71875 65.25 C 34.476562 65 34.351562 64.667969 34.371094 64.320312 C 34.386719 63.980469 34.550781 63.65625 34.8125 63.433594 C 34.976562 63.296875 35.175781 63.203125 35.386719 63.160156 C 35.660156 63.109375 35.90625 63 36.105469 62.839844 C 36.246094 62.722656 36.367188 62.582031 36.460938 62.421875 L 36.574219 62.230469 C 36.648438 62.101562 36.742188 61.980469 36.851562 61.875 L 40.1875 58.675781 C 41.019531 57.875 42.117188 57.429688 43.273438 57.421875 C 43.347656 57.421875 43.40625 57.464844 43.429688 57.53125 C 43.453125 57.59375 43.433594 57.664062 43.382812 57.710938 L 36.589844 63.429688 C 36.546875 63.46875 36.539062 63.535156 36.578125 63.582031 C 36.800781 63.84375 36.90625 64.1875 36.867188 64.527344 C 36.828125 64.875 36.652344 65.179688 36.371094 65.386719 C 36.15625 65.546875 35.898438 65.632812 35.625 65.632812 " fill-opacity="1" fill-rule="nonzero"/><g fill="#627d6a" fill-opacity="1"><g transform="translate(49.966763, 88.563627)"><g><path d="M 4.421875 -2.078125 C 4.421875 -1.765625 4.367188 -1.476562 4.265625 -1.21875 C 4.160156 -0.96875 4.015625 -0.742188 3.828125 -0.546875 C 3.648438 -0.359375 3.429688 -0.210938 3.171875 -0.109375 C 2.921875 -0.00390625 2.632812 0.046875 2.3125 0.046875 C 2 0.046875 1.710938 -0.00390625 1.453125 -0.109375 C 1.203125 -0.210938 0.984375 -0.359375 0.796875 -0.546875 C 0.609375 -0.742188 0.460938 -0.96875 0.359375 -1.21875 C 0.265625 -1.476562 0.21875 -1.765625 0.21875 -2.078125 C 0.21875 -2.378906 0.265625 -2.660156 0.359375 -2.921875 C 0.460938 -3.179688 0.609375 -3.40625 0.796875 -3.59375 C 0.984375 -3.78125 1.203125 -3.925781 1.453125 -4.03125 C 1.710938 -4.132812 2 -4.1875 2.3125 -4.1875 C 2.519531 -4.1875 2.71875 -4.160156 2.90625 -4.109375 C 3.09375 -4.066406 3.265625 -4 3.421875 -3.90625 C 3.578125 -3.820312 3.710938 -3.710938 3.828125 -3.578125 C 3.953125 -3.453125 4.054688 -3.3125 4.140625 -3.15625 C 4.234375 -3 4.300781 -2.828125 4.34375 -2.640625 C 4.394531 -2.460938 4.421875 -2.273438 4.421875 -2.078125 Z M 3.625 -2.078125 C 3.625 -2.304688 3.59375 -2.507812 3.53125 -2.6875 C 3.46875 -2.863281 3.378906 -3.015625 3.265625 -3.140625 C 3.160156 -3.265625 3.023438 -3.359375 2.859375 -3.421875 C 2.703125 -3.492188 2.519531 -3.53125 2.3125 -3.53125 C 2.113281 -3.53125 1.929688 -3.492188 1.765625 -3.421875 C 1.609375 -3.359375 1.472656 -3.265625 1.359375 -3.140625 C 1.242188 -3.015625 1.15625 -2.863281 1.09375 -2.6875 C 1.03125 -2.507812 1 -2.304688 1 -2.078125 C 1 -1.847656 1.03125 -1.640625 1.09375 -1.453125 C 1.15625 -1.273438 1.242188 -1.125 1.359375 -1 C 1.472656 -0.875 1.609375 -0.773438 1.765625 -0.703125 C 1.929688 -0.640625 2.113281 -0.609375 2.3125 -0.609375 C 2.519531 -0.609375 2.703125 -0.640625 2.859375 -0.703125 C 3.023438 -0.773438 3.160156 -0.875 3.265625 -1 C 3.378906 -1.125 3.46875 -1.273438 3.53125 -1.453125 C 3.59375 -1.640625 3.625 -1.847656 3.625 -2.078125 Z M 3.625 -2.078125 "/></g></g></g><g fill="#627d6a" fill-opacity="1"><g transform="translate(55.319875, 88.563627)"><g><path d="M 1.234375 -3.53125 L 1.234375 -2.3125 L 2.796875 -2.3125 L 2.796875 -1.6875 L 1.234375 -1.6875 L 1.234375 0 L 0.46875 0 L 0.46875 -4.140625 L 3.078125 -4.140625 L 3.078125 -3.53125 Z M 1.234375 -3.53125 "/></g></g></g><g fill="#627d6a" fill-opacity="1"><g transform="translate(59.284561, 88.563627)"><g><path d="M 1.234375 -3.53125 L 1.234375 -2.3125 L 2.796875 -2.3125 L 2.796875 -1.6875 L 1.234375 -1.6875 L 1.234375 0 L 0.46875 0 L 0.46875 -4.140625 L 3.078125 -4.140625 L 3.078125 -3.53125 Z M 1.234375 -3.53125 "/></g></g></g><g clip-path="url(#a78639c99e)"><path fill="#fffbf1" d="M 107.804688 91.996094 C 107.519531 91.996094 107.238281 91.996094 106.957031 92.066406 C 106.25 92.140625 105.46875 92.210938 104.621094 92.421875 C 103.773438 92.566406 102.996094 92.777344 102.148438 93.0625 C 101.371094 93.34375 100.664062 93.699219 99.882812 94.125 C 99.601562 94.335938 99.320312 94.550781 99.035156 94.761719 C 98.613281 95.117188 98.257812 95.472656 97.835938 95.898438 C 97.269531 96.535156 96.773438 97.316406 96.277344 98.027344 C 96.066406 98.378906 95.855469 98.664062 95.710938 98.949219 C 95.5 99.300781 95.359375 99.65625 95.289062 99.941406 L 95.21875 100.152344 C 94.863281 101.003906 94.582031 101.855469 94.371094 102.777344 C 94.15625 103.488281 94.085938 104.265625 93.945312 104.976562 C 93.804688 105.96875 93.734375 106.820312 93.734375 107.601562 C 93.734375 108.308594 93.804688 109.019531 93.875 109.800781 C 93.945312 110.648438 94.085938 111.429688 94.226562 112.210938 C 94.582031 113.984375 94.933594 115.542969 95.429688 116.960938 C 95.710938 117.742188 96.066406 118.664062 96.417969 119.585938 L 96.5625 119.871094 C 96.703125 120.226562 96.914062 120.578125 97.054688 121.003906 C 97.269531 121.429688 97.480469 121.855469 97.691406 122.28125 L 97.835938 122.496094 L 97.90625 122.636719 C 98.1875 123.203125 98.46875 123.769531 98.824219 124.339844 C 98.964844 124.621094 99.105469 124.835938 99.320312 125.117188 C 99.53125 125.542969 99.8125 125.898438 100.027344 126.324219 C 100.664062 127.460938 101.511719 128.878906 102.429688 130.296875 C 102.925781 131.003906 103.492188 131.644531 104.054688 132.351562 C 104.410156 132.777344 104.761719 133.203125 105.117188 133.628906 C 105.328125 133.914062 105.542969 134.195312 105.753906 134.480469 C 105.894531 134.621094 105.964844 134.835938 106.105469 134.976562 C 106.390625 135.332031 106.601562 135.6875 106.882812 136.039062 C 107.167969 136.394531 107.519531 136.679688 107.945312 136.75 C 108.015625 136.75 108.15625 136.75 108.226562 136.75 C 108.296875 136.75 108.371094 136.75 108.441406 136.75 C 108.933594 136.75 109.429688 136.539062 109.710938 136.183594 C 109.855469 135.96875 110.066406 135.757812 110.277344 135.542969 C 110.417969 135.402344 110.5625 135.261719 110.703125 135.117188 L 110.84375 134.976562 C 111.054688 134.765625 111.269531 134.480469 111.480469 134.269531 L 111.269531 134.410156 L 111.480469 134.195312 L 111.621094 134.125 C 111.835938 133.914062 112.117188 133.769531 112.328125 133.558594 L 112.46875 133.417969 C 112.894531 133.132812 113.320312 132.777344 113.8125 132.28125 C 113.957031 132.140625 114.097656 132.070312 114.167969 131.925781 C 114.308594 131.785156 114.519531 131.644531 114.664062 131.429688 C 114.734375 131.359375 114.875 131.21875 114.945312 131.148438 C 115.085938 131.003906 115.226562 130.863281 115.371094 130.722656 L 115.722656 130.367188 C 115.863281 130.226562 116.078125 130.082031 116.21875 129.941406 C 116.359375 129.800781 116.570312 129.65625 116.710938 129.515625 L 116.785156 129.445312 C 117.417969 128.949219 117.632812 128.097656 117.347656 127.386719 C 117.417969 126.960938 117.277344 126.539062 117.066406 126.253906 C 116.710938 125.757812 116.289062 125.261719 115.933594 124.835938 L 115.722656 124.550781 C 115.441406 124.195312 115.226562 123.769531 115.015625 123.417969 C 114.945312 123.273438 114.875 123.132812 114.804688 123.0625 C 114.589844 122.707031 114.378906 122.351562 114.167969 122.070312 C 113.8125 121.574219 113.53125 121.148438 113.25 120.722656 C 112.753906 119.871094 112.1875 119.019531 111.691406 118.097656 C 111.691406 118.097656 111.691406 118.027344 111.621094 118.027344 C 111.410156 117.601562 111.269531 117.175781 111.125 116.820312 C 110.984375 116.464844 110.84375 116.109375 110.773438 115.757812 C 110.773438 115.6875 110.773438 115.613281 110.703125 115.542969 C 110.632812 115.046875 110.5625 114.550781 110.5625 114.125 C 110.5625 113.914062 110.632812 113.699219 110.632812 113.558594 C 110.703125 113.488281 110.703125 113.417969 110.773438 113.273438 C 110.914062 113.0625 111.054688 112.917969 111.199219 112.777344 C 111.410156 112.636719 111.550781 112.496094 111.761719 112.351562 C 111.976562 112.28125 112.1875 112.210938 112.398438 112.140625 C 112.613281 112.070312 112.894531 112.070312 113.105469 112.070312 C 113.390625 112.070312 113.601562 112.140625 113.882812 112.210938 C 114.238281 112.351562 114.664062 112.566406 115.015625 112.777344 C 116.21875 113.628906 117.417969 114.691406 118.835938 116.183594 C 119.117188 116.464844 119.46875 116.890625 119.894531 117.246094 C 120.25 117.601562 120.671875 117.957031 121.027344 118.378906 C 121.238281 118.664062 121.519531 118.949219 121.804688 119.304688 C 122.085938 119.726562 122.371094 120.011719 122.652344 120.367188 C 122.933594 120.722656 123.289062 121.074219 123.640625 121.429688 L 123.785156 121.574219 C 123.925781 121.714844 124.136719 121.925781 124.277344 122.070312 C 124.492188 122.210938 124.703125 122.351562 124.914062 122.421875 C 125.269531 122.566406 125.410156 122.566406 125.761719 122.566406 L 125.90625 122.566406 C 126.1875 122.566406 126.46875 122.421875 126.824219 122.210938 C 126.894531 122.140625 127.035156 122.070312 127.105469 121.996094 C 127.25 121.925781 127.320312 121.855469 127.460938 121.785156 L 127.601562 121.714844 C 127.8125 121.574219 128.027344 121.5 128.238281 121.359375 C 128.589844 121.148438 128.875 120.863281 129.226562 120.578125 C 129.371094 120.4375 129.582031 120.296875 129.722656 120.152344 C 129.863281 120.011719 130.003906 119.871094 130.21875 119.726562 C 130.570312 119.445312 130.925781 119.089844 131.277344 118.804688 L 131.632812 118.523438 C 131.773438 118.382812 131.984375 118.238281 132.125 118.097656 C 132.269531 117.957031 132.480469 117.8125 132.621094 117.671875 C 132.90625 117.386719 133.1875 117.175781 133.46875 116.890625 L 133.824219 116.535156 C 133.964844 116.394531 134.105469 116.324219 134.25 116.183594 C 134.460938 116.039062 134.671875 115.828125 134.882812 115.6875 C 134.957031 115.6875 134.957031 115.613281 135.027344 115.613281 C 135.097656 115.542969 135.238281 115.472656 135.308594 115.332031 C 135.589844 114.90625 135.734375 114.550781 135.734375 114.054688 C 135.734375 113.984375 135.734375 113.914062 135.734375 113.914062 C 135.734375 113.558594 135.734375 113.132812 135.449219 112.777344 C 135.097656 112.351562 134.742188 111.996094 134.390625 111.570312 C 134.25 111.429688 134.105469 111.21875 133.894531 111.074219 C 133.613281 110.722656 133.257812 110.367188 132.976562 110.011719 C 132.621094 109.585938 132.269531 109.160156 131.914062 108.804688 C 131.347656 108.167969 130.710938 107.457031 130.078125 106.820312 C 129.792969 106.535156 129.511719 106.183594 129.226562 105.898438 C 128.238281 104.761719 127.105469 103.558594 125.90625 102.421875 C 125.339844 101.925781 124.773438 101.429688 124.277344 100.863281 C 123.785156 100.296875 123.21875 99.726562 122.582031 99.160156 C 121.519531 98.167969 120.25 97.246094 118.832031 96.179688 C 117.417969 95.1875 115.933594 94.335938 114.308594 93.558594 C 113.601562 93.273438 112.824219 92.988281 111.832031 92.636719 C 111.199219 92.421875 110.417969 92.210938 109.640625 92.140625 C 108.863281 92.066406 108.371094 91.996094 107.804688 91.996094 M 125.976562 118.949219 C 126.046875 118.949219 126.046875 118.878906 126.117188 118.878906 C 126.046875 118.878906 125.976562 118.949219 125.976562 118.949219 " fill-opacity="1" fill-rule="nonzero"/></g><g clip-path="url(#18f70ef576)"><g clip-path="url(#da4948106f)"><g clip-path="url(#1f0d935ba5)"><path fill="#fffbf1" d="M 8.933594 17.683594 C 9.210938 17.617188 9.484375 17.550781 9.742188 17.417969 C 10.414062 17.183594 11.15625 16.933594 11.929688 16.53125 C 12.722656 16.195312 13.429688 15.808594 14.1875 15.335938 C 14.878906 14.878906 15.484375 14.367188 16.144531 13.773438 C 16.367188 13.5 16.59375 13.226562 16.820312 12.957031 C 17.148438 12.511719 17.410156 12.085938 17.726562 11.574219 C 18.125 10.820312 18.425781 9.945312 18.742188 9.140625 C 18.867188 8.746094 19.007812 8.421875 19.078125 8.113281 C 19.203125 7.71875 19.257812 7.339844 19.261719 7.050781 L 19.28125 6.824219 C 19.425781 5.914062 19.503906 5.023438 19.496094 4.074219 C 19.539062 3.335938 19.425781 2.5625 19.398438 1.839844 C 19.304688 0.839844 19.175781 -0.00390625 18.992188 -0.761719 C 18.828125 -1.453125 18.59375 -2.125 18.34375 -2.867188 C 18.078125 -3.679688 17.761719 -4.40625 17.441406 -5.132812 C 16.683594 -6.773438 15.980469 -8.210938 15.167969 -9.472656 C 14.710938 -10.167969 14.152344 -10.980469 13.59375 -11.796875 L 13.390625 -12.039062 C 13.171875 -12.351562 12.882812 -12.648438 12.648438 -13.027344 C 12.339844 -13.390625 12.035156 -13.757812 11.730469 -14.121094 L 11.542969 -14.296875 L 11.441406 -14.417969 C 11.035156 -14.902344 10.628906 -15.390625 10.152344 -15.859375 C 9.949219 -16.101562 9.761719 -16.277344 9.488281 -16.503906 C 9.183594 -16.867188 8.828125 -17.148438 8.523438 -17.511719 C 7.640625 -18.46875 6.484375 -19.648438 5.261719 -20.816406 C 4.613281 -21.390625 3.914062 -21.878906 3.199219 -22.4375 C 2.757812 -22.769531 2.316406 -23.101562 1.871094 -23.433594 C 1.601562 -23.660156 1.328125 -23.886719 1.054688 -24.113281 C 0.886719 -24.21875 0.765625 -24.410156 0.597656 -24.515625 C 0.238281 -24.792969 -0.0507812 -25.089844 -0.40625 -25.367188 C -0.765625 -25.648438 -1.175781 -25.839844 -1.601562 -25.8125 C -1.671875 -25.792969 -1.808594 -25.761719 -1.878906 -25.746094 C -1.949219 -25.730469 -2.015625 -25.710938 -2.085938 -25.695312 C -2.566406 -25.582031 -3 -25.257812 -3.191406 -24.847656 C -3.277344 -24.609375 -3.4375 -24.351562 -3.59375 -24.097656 C -3.699219 -23.925781 -3.800781 -23.753906 -3.90625 -23.582031 L -4.011719 -23.414062 C -4.167969 -23.15625 -4.308594 -22.832031 -4.464844 -22.574219 L -4.292969 -22.761719 L -4.449219 -22.507812 L -4.570312 -22.40625 C -4.726562 -22.148438 -4.96875 -21.945312 -5.125 -21.6875 L -5.230469 -21.515625 C -5.578125 -21.144531 -5.90625 -20.699219 -6.273438 -20.101562 C -6.378906 -19.929688 -6.5 -19.828125 -6.535156 -19.675781 C -6.640625 -19.503906 -6.8125 -19.316406 -6.902344 -19.078125 C -6.953125 -18.992188 -7.058594 -18.820312 -7.109375 -18.734375 C -7.214844 -18.5625 -7.320312 -18.394531 -7.421875 -18.222656 L -7.683594 -17.796875 C -7.789062 -17.625 -7.960938 -17.4375 -8.066406 -17.265625 C -8.171875 -17.09375 -8.34375 -16.90625 -8.449219 -16.738281 L -8.503906 -16.652344 C -9.003906 -16.019531 -9.015625 -15.144531 -8.574219 -14.519531 C -8.542969 -14.089844 -8.308594 -13.707031 -8.035156 -13.480469 C -7.578125 -13.082031 -7.046875 -12.695312 -6.605469 -12.367188 L -6.332031 -12.136719 C -5.976562 -11.859375 -5.671875 -11.496094 -5.382812 -11.199219 C -5.28125 -11.078125 -5.179688 -10.957031 -5.09375 -10.902344 C -4.804688 -10.609375 -4.515625 -10.3125 -4.242188 -10.085938 C -3.785156 -9.683594 -3.410156 -9.335938 -3.035156 -8.988281 C -2.355469 -8.277344 -1.609375 -7.578125 -0.914062 -6.796875 C -0.914062 -6.796875 -0.898438 -6.730469 -0.828125 -6.746094 C -0.523438 -6.378906 -0.285156 -6 -0.0664062 -5.6875 C 0.152344 -5.375 0.375 -5.0625 0.523438 -4.734375 C 0.542969 -4.667969 0.558594 -4.597656 0.644531 -4.542969 C 0.828125 -4.078125 1.011719 -3.613281 1.109375 -3.199219 C 1.160156 -2.992188 1.140625 -2.765625 1.171875 -2.628906 C 1.121094 -2.542969 1.136719 -2.476562 1.101562 -2.320312 C 1.011719 -2.082031 0.910156 -1.910156 0.804688 -1.738281 C 0.632812 -1.550781 0.527344 -1.382812 0.351562 -1.195312 C 0.164062 -1.074219 -0.0273438 -0.957031 -0.214844 -0.839844 C -0.40625 -0.722656 -0.679688 -0.65625 -0.886719 -0.605469 C -1.164062 -0.539062 -1.386719 -0.558594 -1.675781 -0.5625 C -2.054688 -0.617188 -2.515625 -0.726562 -2.910156 -0.851562 C -4.277344 -1.398438 -5.691406 -2.15625 -7.414062 -3.277344 C -7.753906 -3.484375 -8.199219 -3.816406 -8.691406 -4.0625 C -9.121094 -4.328125 -9.613281 -4.574219 -10.058594 -4.90625 C -10.328125 -5.132812 -10.671875 -5.339844 -11.027344 -5.621094 C -11.402344 -5.96875 -11.742188 -6.179688 -12.101562 -6.457031 C -12.457031 -6.738281 -12.882812 -7 -13.308594 -7.261719 L -13.480469 -7.367188 C -13.652344 -7.472656 -13.90625 -7.628906 -14.078125 -7.734375 C -14.316406 -7.824219 -14.554688 -7.914062 -14.777344 -7.933594 C -15.15625 -7.988281 -15.292969 -7.957031 -15.636719 -7.875 L -15.773438 -7.839844 C -16.050781 -7.773438 -16.292969 -7.570312 -16.585938 -7.28125 C -16.636719 -7.195312 -16.757812 -7.09375 -16.8125 -7.007812 C -16.933594 -6.90625 -16.984375 -6.824219 -17.105469 -6.71875 L -17.226562 -6.617188 C -17.402344 -6.429688 -17.589844 -6.3125 -17.765625 -6.125 C -18.058594 -5.835938 -18.265625 -5.496094 -18.546875 -5.136719 C -18.648438 -4.964844 -18.824219 -4.777344 -18.929688 -4.609375 C -19.03125 -4.4375 -19.136719 -4.265625 -19.308594 -4.078125 C -19.589844 -3.722656 -19.851562 -3.292969 -20.128906 -2.9375 L -20.40625 -2.578125 C -20.511719 -2.40625 -20.683594 -2.21875 -20.789062 -2.050781 C -20.894531 -1.878906 -21.066406 -1.691406 -21.171875 -1.519531 C -21.378906 -1.179688 -21.605469 -0.90625 -21.816406 -0.5625 L -22.074219 -0.136719 C -22.179688 0.0351562 -22.300781 0.136719 -22.40625 0.304688 C -22.578125 0.492188 -22.738281 0.75 -22.910156 0.9375 C -22.976562 0.953125 -22.960938 1.023438 -23.03125 1.039062 C -23.082031 1.125 -23.203125 1.226562 -23.238281 1.382812 C -23.417969 1.859375 -23.472656 2.238281 -23.355469 2.722656 C -23.339844 2.789062 -23.324219 2.859375 -23.324219 2.859375 C -23.242188 3.203125 -23.140625 3.617188 -22.785156 3.898438 C -22.339844 4.230469 -21.914062 4.492188 -21.472656 4.824219 C -21.300781 4.929688 -21.113281 5.101562 -20.875 5.191406 C -20.519531 5.46875 -20.089844 5.734375 -19.734375 6.011719 C -19.292969 6.34375 -18.847656 6.675781 -18.421875 6.9375 C -17.722656 7.429688 -16.941406 7.96875 -16.171875 8.441406 C -15.832031 8.652344 -15.472656 8.933594 -15.132812 9.140625 C -13.90625 10.015625 -12.527344 10.925781 -11.09375 11.75 C -10.429688 12.101562 -9.761719 12.453125 -9.148438 12.890625 C -8.535156 13.328125 -7.855469 13.746094 -7.101562 14.152344 C -5.839844 14.871094 -4.386719 15.472656 -2.765625 16.175781 C -1.160156 16.8125 0.480469 17.296875 2.246094 17.679688 C 3 17.789062 3.820312 17.882812 4.867188 18 C 5.535156 18.058594 6.339844 18.085938 7.113281 17.972656 C 7.886719 17.859375 8.386719 17.816406 8.933594 17.683594 M -15.003906 -4.304688 C -15.070312 -4.289062 -15.054688 -4.222656 -15.125 -4.203125 C -15.054688 -4.222656 -15.003906 -4.304688 -15.003906 -4.304688 " fill-opacity="1" fill-rule="nonzero"/></g></g></g><g fill="#fffbf1" fill-opacity="1"><g transform="translate(24.265722, 35.728266)"><g><path d="M 7.300781 -3.28125 C 6.988281 -4.578125 6.117188 -5.488281 4.644531 -6.074219 C 4.125 -6.292969 3.621094 -6.59375 3.144531 -6.878906 L 2.847656 -7.070312 C 2.65625 -7.179688 2.5625 -7.328125 2.5625 -7.492188 C 2.5625 -7.667969 2.667969 -7.816406 2.859375 -7.925781 C 3.1875 -8.117188 3.582031 -8.320312 3.992188 -8.402344 C 4.875 -8.609375 5.691406 -8.335938 6.238281 -8.117188 C 6.457031 -8.023438 6.632812 -8.023438 6.726562 -8.089844 C 6.863281 -8.1875 6.890625 -8.390625 6.878906 -8.554688 C 6.863281 -8.785156 6.796875 -9.03125 6.671875 -9.222656 C 6.375 -9.726562 5.898438 -10.050781 5.269531 -10.203125 C 3.855469 -10.527344 2.5625 -10.230469 1.445312 -9.316406 C 0.871094 -8.839844 0.53125 -8.210938 0.503906 -7.546875 C 0.464844 -6.878906 0.734375 -6.195312 1.265625 -5.664062 C 2.03125 -4.890625 2.859375 -4.371094 3.8125 -4.085938 C 4.277344 -3.949219 4.753906 -3.730469 4.984375 -3.160156 L 5.054688 -3.011719 L 4.605469 -2.886719 C 4.058594 -2.722656 3.554688 -2.859375 3.066406 -2.996094 C 2.941406 -3.039062 2.820312 -3.066406 2.695312 -3.089844 C 2.5625 -3.132812 2.425781 -3.144531 2.300781 -3.144531 C 1.824219 -3.144531 1.429688 -2.941406 1.210938 -2.574219 C 0.941406 -2.109375 1.046875 -1.5 1.484375 -1.023438 C 1.894531 -0.570312 2.5625 -0.0390625 3.417969 -0.0820312 C 4.371094 -0.121094 5.175781 -0.246094 5.84375 -0.476562 C 7.042969 -0.886719 7.613281 -1.988281 7.300781 -3.28125 Z M 7.300781 -3.28125 "/></g></g></g><g fill="#fffbf1" fill-opacity="1"><g transform="translate(32.10922, 35.728266)"><g><path d="M 9.398438 -1.238281 C 9.273438 -3.554688 9.140625 -6.007812 8.976562 -8.742188 C 8.949219 -9.152344 8.894531 -9.519531 8.8125 -9.859375 C 8.742188 -10.148438 8.527344 -10.324219 8.226562 -10.351562 C 7.84375 -10.40625 7.628906 -10.175781 7.519531 -9.96875 C 7.4375 -9.804688 7.367188 -9.617188 7.339844 -9.425781 C 7.285156 -9.03125 7.257812 -8.636719 7.230469 -8.28125 C 7.203125 -7.859375 7.191406 -7.449219 7.164062 -7.027344 L 7.125 -6.304688 L 2.492188 -6.304688 L 2.453125 -6.878906 C 2.4375 -7.097656 2.425781 -7.3125 2.398438 -7.546875 C 2.371094 -8.050781 2.34375 -8.566406 2.273438 -9.070312 C 2.21875 -9.546875 1.933594 -9.847656 1.527344 -9.875 C 1.117188 -9.902344 0.789062 -9.601562 0.679688 -9.125 C 0.597656 -8.675781 0.476562 -8.117188 0.503906 -7.601562 C 0.585938 -5.53125 0.707031 -3.296875 0.886719 -0.558594 C 0.914062 -0.0273438 1.238281 0.339844 1.6875 0.339844 C 1.703125 0.339844 1.703125 0.339844 1.703125 0.339844 C 2.152344 0.328125 2.453125 -0.0273438 2.507812 -0.597656 C 2.519531 -0.761719 2.519531 -0.953125 2.519531 -1.117188 L 2.519531 -1.171875 C 2.519531 -1.714844 2.507812 -2.273438 2.507812 -2.832031 L 2.492188 -3.773438 C 2.492188 -3.882812 2.492188 -3.992188 2.492188 -4.125 L 2.492188 -4.46875 L 7.152344 -4.46875 L 7.136719 -4.140625 C 7.136719 -4.019531 7.136719 -3.894531 7.152344 -3.773438 C 7.152344 -3.527344 7.164062 -3.28125 7.164062 -3.039062 C 7.191406 -2.371094 7.21875 -1.675781 7.273438 -0.996094 C 7.300781 -0.679688 7.410156 -0.328125 7.585938 0 C 7.777344 0.367188 8.105469 0.542969 8.527344 0.492188 C 8.933594 0.4375 9.222656 0.191406 9.316406 -0.203125 C 9.382812 -0.503906 9.410156 -0.859375 9.398438 -1.238281 Z M 9.398438 -1.238281 "/></g></g></g><g fill="#fffbf1" fill-opacity="1"><g transform="translate(41.954438, 35.728266)"><g><path d="M 3.226562 -8.078125 C 3.199219 -8.566406 3.117188 -8.988281 2.996094 -9.355469 C 2.847656 -9.847656 2.492188 -10.132812 1.976562 -10.148438 C 1.484375 -10.175781 1.046875 -9.875 0.886719 -9.382812 C 0.761719 -9.015625 0.679688 -8.609375 0.640625 -8.1875 C 0.585938 -7.503906 0.558594 -6.824219 0.53125 -6.144531 C 0.515625 -5.925781 0.503906 -5.691406 0.503906 -5.476562 L 0.558594 -5.476562 L 0.558594 -5.324219 C 0.558594 -5.027344 0.558594 -4.726562 0.542969 -4.425781 C 0.542969 -3.730469 0.53125 -2.996094 0.570312 -2.289062 C 0.597656 -1.769531 0.75 -1.253906 0.96875 -0.84375 C 1.144531 -0.53125 1.445312 -0.339844 1.757812 -0.339844 C 1.769531 -0.339844 1.769531 -0.339844 1.769531 -0.339844 C 2.109375 -0.339844 2.4375 -0.542969 2.628906 -0.898438 C 2.75 -1.117188 2.832031 -1.320312 2.847656 -1.511719 L 2.941406 -2.316406 C 3.144531 -4.195312 3.363281 -6.144531 3.226562 -8.078125 Z M 3.226562 -8.078125 "/></g></g></g><g fill="#fffbf1" fill-opacity="1"><g transform="translate(45.699143, 35.728266)"><g><path d="M 8.527344 -7.886719 C 8.171875 -9.96875 6.648438 -11.15625 4.535156 -10.992188 C 3.703125 -10.921875 3.011719 -10.679688 2.355469 -10.230469 L 2.234375 -10.148438 L 2.152344 -10.257812 C 2.125 -10.296875 2.097656 -10.335938 2.082031 -10.363281 C 2.042969 -10.417969 2.015625 -10.460938 1.988281 -10.488281 C 1.796875 -10.664062 1.566406 -10.761719 1.347656 -10.761719 C 1.265625 -10.761719 1.183594 -10.746094 1.117188 -10.71875 C 0.816406 -10.625 0.613281 -10.378906 0.542969 -10.039062 C 0.492188 -9.820312 0.492188 -9.589844 0.503906 -9.355469 C 0.515625 -8.445312 0.597656 -7.53125 0.679688 -6.632812 C 0.777344 -5.679688 0.871094 -4.699219 0.886719 -3.71875 C 0.886719 -3.171875 0.84375 -2.613281 0.804688 -2.070312 C 0.789062 -1.796875 0.777344 -1.511719 0.761719 -1.238281 C 0.734375 -0.804688 0.734375 -0.449219 1.046875 -0.285156 L 1.089844 -0.246094 C 1.226562 -0.0820312 1.566406 0.0546875 1.933594 -0.0117188 C 2.207031 -0.0546875 2.574219 -0.21875 2.804688 -0.761719 C 2.914062 -1.007812 2.914062 -1.335938 2.929688 -1.632812 L 2.929688 -1.757812 C 2.941406 -2.054688 2.914062 -2.574219 2.902344 -2.914062 L 2.875 -3.253906 L 3.039062 -3.253906 C 3.253906 -3.253906 3.472656 -3.253906 3.703125 -3.242188 C 4.140625 -3.214844 4.589844 -3.199219 4.945312 -3.253906 C 7.394531 -3.675781 8.90625 -5.625 8.527344 -7.886719 Z M 5.515625 -6.183594 C 4.957031 -5.652344 4.261719 -5.40625 3.296875 -5.40625 C 3.199219 -5.40625 3.105469 -5.40625 2.996094 -5.421875 L 2.859375 -5.421875 L 2.859375 -5.570312 C 2.859375 -6.484375 3.050781 -7.230469 3.445312 -7.898438 C 3.800781 -8.484375 4.863281 -8.839844 5.460938 -8.566406 C 5.691406 -8.472656 5.910156 -8.226562 5.992188 -7.96875 C 6.222656 -7.328125 6.0625 -6.714844 5.515625 -6.183594 Z M 5.515625 -6.183594 "/></g></g></g><g fill="#fffbf1" fill-opacity="1"><g transform="translate(54.740952, 35.728266)"><g><path d="M 8.527344 -7.886719 C 8.171875 -9.96875 6.648438 -11.15625 4.535156 -10.992188 C 3.703125 -10.921875 3.011719 -10.679688 2.355469 -10.230469 L 2.234375 -10.148438 L 2.152344 -10.257812 C 2.125 -10.296875 2.097656 -10.335938 2.082031 -10.363281 C 2.042969 -10.417969 2.015625 -10.460938 1.988281 -10.488281 C 1.796875 -10.664062 1.566406 -10.761719 1.347656 -10.761719 C 1.265625 -10.761719 1.183594 -10.746094 1.117188 -10.71875 C 0.816406 -10.625 0.613281 -10.378906 0.542969 -10.039062 C 0.492188 -9.820312 0.492188 -9.589844 0.503906 -9.355469 C 0.515625 -8.445312 0.597656 -7.53125 0.679688 -6.632812 C 0.777344 -5.679688 0.871094 -4.699219 0.886719 -3.71875 C 0.886719 -3.171875 0.84375 -2.613281 0.804688 -2.070312 C 0.789062 -1.796875 0.777344 -1.511719 0.761719 -1.238281 C 0.734375 -0.804688 0.734375 -0.449219 1.046875 -0.285156 L 1.089844 -0.246094 C 1.226562 -0.0820312 1.566406 0.0546875 1.933594 -0.0117188 C 2.207031 -0.0546875 2.574219 -0.21875 2.804688 -0.761719 C 2.914062 -1.007812 2.914062 -1.335938 2.929688 -1.632812 L 2.929688 -1.757812 C 2.941406 -2.054688 2.914062 -2.574219 2.902344 -2.914062 L 2.875 -3.253906 L 3.039062 -3.253906 C 3.253906 -3.253906 3.472656 -3.253906 3.703125 -3.242188 C 4.140625 -3.214844 4.589844 -3.199219 4.945312 -3.253906 C 7.394531 -3.675781 8.90625 -5.625 8.527344 -7.886719 Z M 5.515625 -6.183594 C 4.957031 -5.652344 4.261719 -5.40625 3.296875 -5.40625 C 3.199219 -5.40625 3.105469 -5.40625 2.996094 -5.421875 L 2.859375 -5.421875 L 2.859375 -5.570312 C 2.859375 -6.484375 3.050781 -7.230469 3.445312 -7.898438 C 3.800781 -8.484375 4.863281 -8.839844 5.460938 -8.566406 C 5.691406 -8.472656 5.910156 -8.226562 5.992188 -7.96875 C 6.222656 -7.328125 6.0625 -6.714844 5.515625 -6.183594 Z M 5.515625 -6.183594 "/></g></g></g><g fill="#fffbf1" fill-opacity="1"><g transform="translate(63.782762, 35.728266)"><g><path d="M 3.226562 -8.078125 C 3.199219 -8.566406 3.117188 -8.988281 2.996094 -9.355469 C 2.847656 -9.847656 2.492188 -10.132812 1.976562 -10.148438 C 1.484375 -10.175781 1.046875 -9.875 0.886719 -9.382812 C 0.761719 -9.015625 0.679688 -8.609375 0.640625 -8.1875 C 0.585938 -7.503906 0.558594 -6.824219 0.53125 -6.144531 C 0.515625 -5.925781 0.503906 -5.691406 0.503906 -5.476562 L 0.558594 -5.476562 L 0.558594 -5.324219 C 0.558594 -5.027344 0.558594 -4.726562 0.542969 -4.425781 C 0.542969 -3.730469 0.53125 -2.996094 0.570312 -2.289062 C 0.597656 -1.769531 0.75 -1.253906 0.96875 -0.84375 C 1.144531 -0.53125 1.445312 -0.339844 1.757812 -0.339844 C 1.769531 -0.339844 1.769531 -0.339844 1.769531 -0.339844 C 2.109375 -0.339844 2.4375 -0.542969 2.628906 -0.898438 C 2.75 -1.117188 2.832031 -1.320312 2.847656 -1.511719 L 2.941406 -2.316406 C 3.144531 -4.195312 3.363281 -6.144531 3.226562 -8.078125 Z M 3.226562 -8.078125 "/></g></g></g><g fill="#fffbf1" fill-opacity="1"><g transform="translate(67.527469, 35.728266)"><g><path d="M 10.203125 -9.738281 C 10.09375 -10.257812 9.726562 -10.625 9.246094 -10.679688 C 8.730469 -10.746094 8.265625 -10.460938 8.078125 -9.984375 C 7.925781 -9.601562 7.832031 -9.195312 7.816406 -8.8125 C 7.761719 -7.761719 7.734375 -6.699219 7.707031 -5.664062 C 7.695312 -5.242188 7.683594 -4.820312 7.667969 -4.398438 C 7.667969 -4.289062 7.65625 -4.179688 7.65625 -4.074219 L 7.640625 -3.828125 L 7.285156 -3.691406 L 6.621094 -4.5625 C 6.167969 -5.132812 5.734375 -5.691406 5.296875 -6.265625 C 5.054688 -6.59375 4.808594 -6.933594 4.550781 -7.257812 C 4.113281 -7.84375 3.664062 -8.445312 3.199219 -9.015625 C 3.011719 -9.273438 2.75 -9.492188 2.464844 -9.65625 C 2.273438 -9.765625 2.054688 -9.832031 1.851562 -9.832031 C 1.730469 -9.832031 1.605469 -9.804688 1.484375 -9.765625 C 1.15625 -9.65625 0.898438 -9.398438 0.75 -9.042969 C 0.667969 -8.824219 0.613281 -8.621094 0.597656 -8.429688 C 0.410156 -6.238281 0.476562 -3.894531 0.816406 -1.0625 C 0.84375 -0.859375 0.925781 -0.625 1.0625 -0.410156 C 1.210938 -0.164062 1.445312 -0.0273438 1.660156 -0.0390625 C 1.894531 -0.0546875 2.097656 -0.21875 2.234375 -0.476562 C 2.328125 -0.679688 2.398438 -0.914062 2.398438 -1.101562 C 2.453125 -2.246094 2.492188 -3.40625 2.535156 -4.523438 L 2.5625 -5.421875 C 2.574219 -5.515625 2.5625 -5.625 2.5625 -5.71875 L 2.5625 -6.167969 L 2.804688 -5.992188 C 2.996094 -5.84375 3.117188 -5.679688 3.214844 -5.53125 L 3.28125 -5.449219 C 3.472656 -5.175781 3.664062 -4.890625 3.867188 -4.617188 C 4.332031 -3.949219 4.820312 -3.253906 5.351562 -2.640625 C 5.800781 -2.109375 6.496094 -1.363281 7.3125 -0.898438 C 8.105469 -0.449219 8.785156 -0.355469 9.289062 -0.625 C 9.792969 -0.914062 10.078125 -1.566406 10.121094 -2.492188 C 10.1875 -4.25 10.214844 -6.035156 10.257812 -7.761719 L 10.269531 -8.878906 C 10.28125 -9.179688 10.257812 -9.464844 10.203125 -9.738281 Z M 10.203125 -9.738281 "/></g></g></g><g fill="#fffbf1" fill-opacity="1"><g transform="translate(78.271427, 35.728266)"><g><path d="M 9.355469 -3.269531 C 9.289062 -3.730469 9.222656 -4.222656 9.113281 -4.710938 C 9.058594 -4.984375 8.894531 -5.488281 8.429688 -5.625 C 7.558594 -5.882812 6.671875 -5.773438 5.871094 -5.296875 C 5.691406 -5.1875 5.613281 -5.039062 5.613281 -4.847656 C 5.625 -4.628906 5.773438 -4.425781 6.007812 -4.332031 C 6.117188 -4.277344 6.25 -4.261719 6.386719 -4.234375 L 6.496094 -4.207031 C 6.578125 -4.195312 6.6875 -4.195312 6.78125 -4.179688 C 7.042969 -4.167969 7.300781 -4.140625 7.4375 -3.976562 C 7.574219 -3.785156 7.546875 -3.515625 7.53125 -3.253906 C 7.519531 -3.160156 7.519531 -3.066406 7.519531 -2.96875 L 7.519531 -2.941406 C 7.558594 -2.507812 7.273438 -2.371094 7.070312 -2.289062 C 5.953125 -1.90625 4.875 -2.03125 3.964844 -2.667969 C 3.039062 -3.308594 2.601562 -4.195312 2.722656 -5.230469 C 2.847656 -6.238281 3.296875 -7.054688 4.074219 -7.667969 C 5.449219 -8.757812 6.851562 -9.03125 8.335938 -8.484375 C 8.472656 -8.429688 8.609375 -8.429688 8.703125 -8.5 C 8.785156 -8.554688 8.824219 -8.636719 8.839844 -8.757812 C 8.851562 -8.976562 8.796875 -9.246094 8.691406 -9.410156 C 8.363281 -9.957031 7.804688 -10.160156 7.300781 -10.296875 C 6.117188 -10.625 4.550781 -10.308594 3.214844 -9.464844 C 1.785156 -8.554688 0.832031 -7.191406 0.542969 -5.597656 C 0.355469 -4.496094 0.734375 -3.078125 1.511719 -1.960938 C 2.003906 -1.265625 2.859375 -0.394531 4.195312 -0.175781 C 5.296875 0.0117188 6.144531 -0.0273438 6.933594 -0.300781 C 7.027344 -0.328125 7.136719 -0.355469 7.246094 -0.355469 C 7.339844 -0.355469 7.421875 -0.328125 7.503906 -0.285156 C 7.914062 -0.0546875 8.28125 0.0117188 8.566406 -0.109375 C 8.839844 -0.21875 9.042969 -0.515625 9.167969 -0.953125 C 9.261719 -1.320312 9.300781 -1.714844 9.355469 -2.125 C 9.382812 -2.316406 9.410156 -2.507812 9.4375 -2.695312 C 9.410156 -2.886719 9.382812 -3.078125 9.355469 -3.269531 Z M 9.355469 -3.269531 "/></g></g></g><g fill="#fffbf1" fill-opacity="1"><g transform="translate(22.250097, 49.978264)"><g><path d="M 9.765625 -10.121094 C 9.316406 -10.40625 8.769531 -10.296875 8.429688 -9.875 C 8.132812 -9.480469 7.886719 -9.085938 7.695312 -8.675781 C 7.328125 -7.859375 6.988281 -7.015625 6.648438 -6.195312 C 6.523438 -5.898438 6.386719 -5.585938 6.265625 -5.285156 C 6.183594 -5.066406 6.089844 -4.847656 5.992188 -4.605469 L 5.691406 -3.894531 L 5.558594 -4.179688 C 5.394531 -4.507812 5.242188 -4.808594 5.09375 -5.121094 C 4.765625 -5.773438 4.46875 -6.402344 4.101562 -6.988281 C 3.488281 -7.953125 2.777344 -8.867188 2.03125 -9.792969 C 1.839844 -10.023438 1.578125 -10.160156 1.320312 -10.160156 C 1.183594 -10.160156 1.046875 -10.121094 0.925781 -10.050781 C 0.558594 -9.859375 0.421875 -9.480469 0.53125 -9.015625 C 0.625 -8.621094 0.804688 -8.253906 0.980469 -7.871094 C 1.199219 -7.4375 1.429688 -6.988281 1.648438 -6.550781 C 1.90625 -6.046875 2.164062 -5.542969 2.410156 -5.027344 C 2.695312 -4.441406 2.96875 -3.855469 3.242188 -3.269531 C 3.5 -2.683594 3.773438 -2.097656 4.058594 -1.527344 C 4.234375 -1.144531 4.425781 -0.84375 4.628906 -0.613281 C 4.890625 -0.339844 5.214844 -0.191406 5.558594 -0.203125 C 5.910156 -0.21875 6.238281 -0.394531 6.46875 -0.707031 C 6.59375 -0.871094 6.699219 -1.0625 6.824219 -1.347656 C 7.816406 -3.59375 8.796875 -5.855469 9.792969 -8.105469 L 10.09375 -8.796875 C 10.324219 -9.328125 10.1875 -9.847656 9.765625 -10.121094 Z M 9.765625 -10.121094 "/></g></g></g><g fill="#fffbf1" fill-opacity="1"><g transform="translate(32.449373, 49.978264)"><g><path d="M 5.789062 -10.148438 C 5.71875 -10.160156 5.652344 -10.160156 5.570312 -10.160156 C 5.433594 -10.160156 5.285156 -10.148438 5.132812 -10.121094 L 5 -10.105469 C 2.886719 -9.832031 1.5 -8.648438 0.75 -6.484375 C 0.300781 -5.1875 0.449219 -3.570312 1.128906 -2.371094 C 1.742188 -1.308594 2.75 -0.597656 4.03125 -0.339844 L 4.074219 -0.328125 C 4.277344 -0.285156 4.480469 -0.246094 4.683594 -0.21875 C 6.101562 -0.0546875 7.21875 -0.464844 8.089844 -1.5 L 8.363281 -1.796875 C 8.582031 -2.054688 8.8125 -2.328125 9.03125 -2.585938 C 9.644531 -3.324219 9.984375 -4.234375 10.09375 -5.476562 C 9.914062 -8.554688 8.238281 -9.5625 5.789062 -10.148438 Z M 7.613281 -5.257812 C 7.558594 -5.132812 7.503906 -5.011719 7.449219 -4.875 C 7.3125 -4.578125 7.179688 -4.277344 7 -3.976562 C 6.878906 -3.773438 6.714844 -3.609375 6.566406 -3.445312 C 6.496094 -3.378906 6.429688 -3.308594 6.375 -3.242188 C 5.992188 -2.832031 5.476562 -2.601562 4.917969 -2.601562 C 4.78125 -2.601562 4.65625 -2.613281 4.523438 -2.640625 C 3.800781 -2.777344 3.214844 -3.28125 2.957031 -3.976562 C 2.574219 -5.039062 2.75 -6.046875 3.5 -7.164062 C 3.976562 -7.886719 4.507812 -8.007812 5.296875 -7.601562 C 5.597656 -7.449219 5.910156 -7.300781 6.304688 -7.152344 C 7.164062 -6.796875 7.519531 -6.320312 7.628906 -5.339844 L 7.628906 -5.296875 Z M 7.613281 -5.257812 "/></g></g></g><g fill="#fffbf1" fill-opacity="1"><g transform="translate(43.002694, 49.978264)"><g><path d="M 8.851562 -9.546875 C 8.703125 -9.914062 8.402344 -10.121094 8.007812 -10.148438 C 7.574219 -10.175781 7.246094 -9.996094 7.070312 -9.628906 C 6.917969 -9.355469 6.824219 -9.042969 6.78125 -8.703125 C 6.726562 -8.363281 6.699219 -8.007812 6.671875 -7.667969 C 6.648438 -7.273438 6.621094 -6.863281 6.550781 -6.457031 L 6.523438 -6.25 C 6.386719 -5.339844 6.238281 -4.398438 5.980469 -3.488281 C 5.855469 -3.050781 5.613281 -2.765625 5.285156 -2.640625 C 4.929688 -2.507812 4.496094 -2.585938 4.046875 -2.875 C 3.351562 -3.335938 2.957031 -4.019531 2.875 -4.902344 C 2.847656 -5.296875 2.804688 -5.707031 2.777344 -6.101562 C 2.722656 -6.714844 2.667969 -7.339844 2.601562 -7.953125 C 2.5625 -8.417969 2.492188 -8.785156 2.398438 -9.113281 C 2.273438 -9.519531 1.960938 -9.765625 1.578125 -9.738281 C 1.199219 -9.710938 0.941406 -9.507812 0.816406 -9.085938 C 0.761719 -8.921875 0.722656 -8.769531 0.707031 -8.636719 C 0.652344 -7.96875 0.597656 -7.300781 0.53125 -6.621094 L 0.503906 -6.144531 L 0.542969 -6.144531 L 0.542969 -6.007812 C 0.542969 -5.882812 0.542969 -5.761719 0.542969 -5.640625 C 0.542969 -5.394531 0.542969 -5.132812 0.558594 -4.890625 C 0.625 -3.132812 1.390625 -1.796875 2.804688 -0.914062 C 3.703125 -0.367188 4.710938 -0.203125 5.652344 -0.476562 C 6.59375 -0.75 7.355469 -1.417969 7.816406 -2.34375 C 8.035156 -2.792969 8.238281 -3.269531 8.320312 -3.730469 C 8.566406 -5.214844 8.796875 -6.78125 9.03125 -8.675781 C 9.058594 -8.894531 9.003906 -9.195312 8.851562 -9.546875 Z M 8.851562 -9.546875 "/></g></g></g><g fill="#fffbf1" fill-opacity="1"><g transform="translate(52.507483, 49.978264)"><g><path d="M 10.351562 -2.109375 C 10.132812 -2.453125 9.792969 -2.601562 9.371094 -2.546875 C 9.097656 -2.519531 8.8125 -2.425781 8.566406 -2.34375 C 7.382812 -1.960938 5.964844 -1.660156 4.480469 -2.382812 C 3.242188 -2.996094 2.585938 -4.207031 2.832031 -5.476562 C 2.914062 -5.882812 3.039062 -6.414062 3.308594 -6.835938 C 4.5625 -8.839844 5.964844 -9.398438 7.859375 -8.636719 C 8.117188 -8.539062 8.347656 -8.472656 8.554688 -8.445312 C 8.824219 -8.417969 9.058594 -8.5 9.195312 -8.691406 C 9.316406 -8.867188 9.328125 -9.097656 9.222656 -9.328125 C 9.097656 -9.589844 8.894531 -9.847656 8.621094 -10.078125 C 7.898438 -10.679688 6.988281 -10.976562 6.0625 -10.976562 C 5.257812 -10.976562 4.441406 -10.746094 3.71875 -10.28125 C 2.136719 -9.273438 1.144531 -7.953125 0.722656 -6.347656 C 0.175781 -4.222656 0.625 -2.480469 2.042969 -1.15625 C 3.105469 -0.164062 4.523438 0.410156 6.238281 0.542969 C 7.410156 0.476562 8.457031 0.230469 9.453125 -0.21875 C 9.75 -0.355469 10.066406 -0.640625 10.351562 -1.007812 C 10.597656 -1.335938 10.597656 -1.742188 10.351562 -2.109375 Z M 10.351562 -2.109375 "/></g></g></g><g fill="#fffbf1" fill-opacity="1"><g transform="translate(63.496551, 49.978264)"><g><path d="M 9.398438 -1.238281 C 9.273438 -3.554688 9.140625 -6.007812 8.976562 -8.742188 C 8.949219 -9.152344 8.894531 -9.519531 8.8125 -9.859375 C 8.742188 -10.148438 8.527344 -10.324219 8.226562 -10.351562 C 7.84375 -10.40625 7.628906 -10.175781 7.519531 -9.96875 C 7.4375 -9.804688 7.367188 -9.617188 7.339844 -9.425781 C 7.285156 -9.03125 7.257812 -8.636719 7.230469 -8.28125 C 7.203125 -7.859375 7.191406 -7.449219 7.164062 -7.027344 L 7.125 -6.304688 L 2.492188 -6.304688 L 2.453125 -6.878906 C 2.4375 -7.097656 2.425781 -7.3125 2.398438 -7.546875 C 2.371094 -8.050781 2.34375 -8.566406 2.273438 -9.070312 C 2.21875 -9.546875 1.933594 -9.847656 1.527344 -9.875 C 1.117188 -9.902344 0.789062 -9.601562 0.679688 -9.125 C 0.597656 -8.675781 0.476562 -8.117188 0.503906 -7.601562 C 0.585938 -5.53125 0.707031 -3.296875 0.886719 -0.558594 C 0.914062 -0.0273438 1.238281 0.339844 1.6875 0.339844 C 1.703125 0.339844 1.703125 0.339844 1.703125 0.339844 C 2.152344 0.328125 2.453125 -0.0273438 2.507812 -0.597656 C 2.519531 -0.761719 2.519531 -0.953125 2.519531 -1.117188 L 2.519531 -1.171875 C 2.519531 -1.714844 2.507812 -2.273438 2.507812 -2.832031 L 2.492188 -3.773438 C 2.492188 -3.882812 2.492188 -3.992188 2.492188 -4.125 L 2.492188 -4.46875 L 7.152344 -4.46875 L 7.136719 -4.140625 C 7.136719 -4.019531 7.136719 -3.894531 7.152344 -3.773438 C 7.152344 -3.527344 7.164062 -3.28125 7.164062 -3.039062 C 7.191406 -2.371094 7.21875 -1.675781 7.273438 -0.996094 C 7.300781 -0.679688 7.410156 -0.328125 7.585938 0 C 7.777344 0.367188 8.105469 0.542969 8.527344 0.492188 C 8.933594 0.4375 9.222656 0.191406 9.316406 -0.203125 C 9.382812 -0.503906 9.410156 -0.859375 9.398438 -1.238281 Z M 9.398438 -1.238281 "/></g></g></g><g fill="#fffbf1" fill-opacity="1"><g transform="translate(73.341771, 49.978264)"><g><path d="M 6.046875 -2.464844 C 5.855469 -2.453125 5.664062 -2.410156 5.476562 -2.355469 C 5.324219 -2.300781 5.160156 -2.261719 5.011719 -2.234375 C 4.386719 -2.136719 3.828125 -2.070312 3.308594 -2.042969 C 3.1875 -2.03125 3.066406 -2.125 3.011719 -2.179688 C 2.957031 -2.234375 2.847656 -2.328125 2.847656 -2.453125 C 2.820312 -2.832031 2.820312 -3.226562 2.820312 -3.609375 C 2.820312 -3.746094 2.820312 -3.882812 2.820312 -4.003906 L 2.820312 -4.152344 L 2.96875 -4.152344 C 3.226562 -4.167969 3.488281 -4.179688 3.746094 -4.195312 C 4.371094 -4.222656 4.972656 -4.25 5.570312 -4.304688 C 5.855469 -4.332031 6.183594 -4.425781 6.496094 -4.578125 C 6.753906 -4.699219 7.042969 -4.957031 7.015625 -5.40625 C 6.972656 -5.789062 6.742188 -6.0625 6.375 -6.144531 C 5.953125 -6.238281 5.460938 -6.265625 4.957031 -6.222656 C 4.5625 -6.183594 4.152344 -6.101562 3.730469 -6.019531 C 3.542969 -5.980469 3.351562 -5.9375 3.144531 -5.910156 L 2.96875 -5.882812 L 2.96875 -6.550781 C 2.96875 -6.90625 2.96875 -7.246094 2.984375 -7.585938 C 2.984375 -7.941406 2.984375 -8.117188 3.105469 -8.238281 C 3.226562 -8.347656 3.40625 -8.347656 3.746094 -8.335938 L 4.101562 -8.308594 C 4.65625 -8.28125 5.230469 -8.253906 5.789062 -8.28125 C 6.671875 -8.335938 7.257812 -8.839844 7.230469 -9.519531 C 7.230469 -9.820312 7.097656 -10.105469 6.863281 -10.308594 C 6.605469 -10.542969 6.25 -10.679688 5.84375 -10.679688 C 5.800781 -10.679688 5.761719 -10.679688 5.734375 -10.679688 C 4.875 -10.625 4.003906 -10.5 3.171875 -10.378906 L 2.574219 -10.296875 C 2.371094 -10.269531 2.136719 -10.160156 1.960938 -10.066406 C 1.402344 -9.75 1.199219 -9.382812 1.308594 -8.867188 C 1.320312 -8.757812 1.308594 -8.636719 1.28125 -8.527344 L 1.28125 -8.457031 C 1.210938 -8.078125 1.128906 -7.683594 1.0625 -7.285156 C 0.925781 -6.46875 0.761719 -5.625 0.652344 -4.78125 C 0.503906 -3.785156 0.382812 -2.628906 0.695312 -1.5 C 0.941406 -0.613281 1.472656 -0.0820312 2.273438 0.0820312 C 3.648438 0.367188 4.929688 0.21875 6.089844 -0.355469 C 6.347656 -0.476562 6.59375 -0.667969 6.796875 -0.886719 C 7.109375 -1.226562 7.191406 -1.59375 7.015625 -1.960938 C 6.796875 -2.425781 6.359375 -2.492188 6.046875 -2.464844 Z M 6.046875 -2.464844 "/></g></g></g><g fill="#fffbf1" fill-opacity="1"><g transform="translate(81.035479, 49.978264)"><g><path d="M 7.925781 -2.804688 C 7.492188 -3.050781 7.082031 -3.308594 6.648438 -3.582031 C 6.457031 -3.703125 6.25 -3.828125 6.0625 -3.949219 L 5.855469 -4.074219 L 6.0625 -4.207031 C 6.210938 -4.289062 6.347656 -4.386719 6.484375 -4.46875 C 6.753906 -4.628906 7.015625 -4.792969 7.246094 -4.972656 C 8.238281 -5.734375 8.609375 -6.699219 8.375 -7.832031 C 8.117188 -9.042969 7.339844 -9.847656 6.144531 -10.132812 C 5.011719 -10.40625 3.9375 -10.351562 2.957031 -9.957031 C 2.875 -9.929688 2.640625 -9.847656 2.4375 -9.914062 C 2.21875 -9.996094 2.03125 -10.039062 1.878906 -10.039062 C 1.742188 -10.039062 1.621094 -9.996094 1.527344 -9.941406 C 1.320312 -9.832031 1.183594 -9.574219 1.101562 -9.179688 C 0.558594 -6.304688 0.382812 -3.703125 0.570312 -1.253906 C 0.613281 -0.613281 0.980469 -0.191406 1.5 -0.175781 C 2.042969 -0.164062 2.398438 -0.558594 2.480469 -1.210938 C 2.535156 -1.578125 2.5625 -1.960938 2.601562 -2.355469 L 2.683594 -3.144531 L 2.875 -3.050781 C 2.941406 -3.011719 3.011719 -2.984375 3.066406 -2.957031 C 3.171875 -2.902344 3.269531 -2.859375 3.351562 -2.804688 C 3.648438 -2.640625 3.9375 -2.464844 4.222656 -2.289062 C 4.765625 -1.949219 5.324219 -1.605469 5.882812 -1.28125 C 6.304688 -1.035156 6.742188 -0.789062 7.191406 -0.667969 C 7.804688 -0.492188 8.429688 -0.816406 8.636719 -1.417969 C 8.867188 -2.125 8.375 -2.5625 7.925781 -2.804688 Z M 2.96875 -5.953125 L 2.777344 -5.925781 L 2.792969 -6.117188 C 2.820312 -6.277344 2.820312 -6.457031 2.804688 -6.621094 C 2.804688 -7.125 2.792969 -7.640625 3.351562 -8.023438 C 4.058594 -8.484375 4.863281 -8.566406 5.761719 -8.265625 C 6.046875 -8.171875 6.222656 -7.980469 6.25 -7.75 C 6.292969 -7.492188 6.15625 -7.21875 5.882812 -7.042969 C 5.054688 -6.457031 4.101562 -6.101562 2.96875 -5.953125 Z M 2.96875 -5.953125 "/></g></g></g></svg>