<svg xmlns="http://www.w3.org/2000/svg" width="3000" height="3001" fill="none" viewBox="0 0 3000 3001" id="business-data-analysis"><g clip-path="url(#clip0_101_35611)"><path fill="#F1F1F1" d="M1188.65 543.685H1962.29V885.872H1188.65V543.685Z"></path><path fill="#F15846" d="M2668.97 2270.68C2640.55 2307.64 2587.22 2304.54 2560.9 2297.7 2558.89 2297.18 2557.72 2295.09 2558.16 2293.07 2585.29 2169.12 2683.69 2153.93 2747.57 2164.31 2752.1 2165.04 2752.48 2176.18 2748.64 2178.69 2723.14 2195.36 2697.12 2234.09 2668.97 2270.68zM2447.5 2257.78C2466.92 2291.46 2518.63 2294.09 2548.72 2290.59 2553.35 2290.06 2556.26 2285.42 2554.98 2280.95 2520.04 2158.2 2432.98 2142.72 2378.31 2152.8 2370.96 2154.16 2370.43 2164.22 2376.71 2168.27 2405.49 2186.84 2425.41 2219.47 2447.5 2257.78z"></path><path fill="#3E3D3D" fill-rule="evenodd" d="M2549.38 2377.36V1983.1H2565.41V2377.36H2549.38Z" clip-rule="evenodd"></path><path fill="#53B3CC" fill-rule="evenodd" d="M2847.59 795.156C2788.71 667.969 2654.61 585.245 2507 598.511C2319.14 615.395 2180.54 781.374 2197.42 969.235C2214.31 1157.1 2380.29 1295.7 2568.15 1278.82C2610.91 1274.97 2651.12 1263.4 2687.52 1245.61L2546.25 942.066L2847.59 795.156Z" clip-rule="evenodd"></path><path fill="#F1F1F1" fill-rule="evenodd" d="M2731.45 1217.62L2608.15 969.098L2860.31 836.58C2867.43 859.399 2872.25 883.317 2874.48 908.093C2885.77 1033.75 2827.5 1149.61 2731.45 1217.62Z" clip-rule="evenodd"></path><path fill="#fff" d="M1132.85 487.894H1906.49V830.08H1132.85V487.894Z"></path><path fill="#3E3D3D" fill-rule="evenodd" d="M1124.84 479.879H1914.51V838.096H1124.84V479.879ZM1140.87 495.91V822.065H1898.48V495.91H1140.87Z" clip-rule="evenodd"></path><path fill="#3E3D3D" fill-rule="evenodd" d="M1768.88 611.212H1277.91V595.181H1768.88V611.212ZM1768.88 733.952H1277.91V717.921H1768.88V733.952Z" clip-rule="evenodd"></path><path fill="#F15846" fill-rule="evenodd" d="M791.043 1492.78C799.415 1478.28 817.957 1473.31 832.457 1481.68L918.482 1531.35C932.982 1539.72 937.95 1558.26 929.579 1572.76V1572.76C922.721 1584.64 924.818 1599.54 933.744 1609.96C958.762 1639.14 977.784 1672.48 990.283 1708.02C994.839 1720.97 1006.72 1730.25 1020.45 1730.25V1730.25C1037.22 1730.25 1050.82 1743.84 1050.82 1760.61L1050.82 1859.88C1050.82 1876.63 1037.24 1890.21 1020.48 1890.21V1890.21C1006.77 1890.21 994.918 1899.46 990.352 1912.39C984.131 1930 976.213 1947.29 966.538 1964.04C956.864 1980.8 945.852 1996.3 933.715 2010.49C924.803 2020.91 922.719 2035.8 929.574 2047.68V2047.68C937.951 2062.19 932.98 2080.74 918.47 2089.12L832.51 2138.75C817.983 2147.13 799.408 2142.16 791.021 2127.63V2127.63C784.154 2115.74 770.186 2110.09 756.688 2112.62C719.666 2119.56 681.28 2119.76 643.499 2112.68C630.018 2110.16 616.062 2115.8 609.204 2127.68V2127.68C600.832 2142.18 582.29 2147.14 567.79 2138.77L481.766 2089.11C467.265 2080.73 462.297 2062.19 470.669 2047.69V2047.69C477.527 2035.81 475.43 2020.91 466.503 2010.5C441.487 1981.32 422.466 1947.97 409.967 1912.44C405.41 1899.48 393.533 1890.21 379.8 1890.21V1890.21C363.025 1890.21 349.426 1876.61 349.426 1859.84L349.426 1760.58C349.426 1743.83 363.009 1730.24 379.763 1730.24V1730.24C393.473 1730.24 405.331 1720.99 409.898 1708.06C416.118 1690.46 424.037 1673.17 433.711 1656.41C443.386 1639.66 454.399 1624.15 466.538 1609.96C475.449 1599.55 477.534 1584.65 470.679 1572.78V1572.78C462.303 1558.27 467.274 1539.72 481.782 1531.34L567.745 1481.71C582.271 1473.32 600.846 1478.3 609.233 1492.83V1492.83C616.099 1504.72 630.067 1510.37 643.564 1507.84C680.585 1500.9 718.97 1500.7 756.749 1507.77C770.23 1510.3 784.185 1504.66 791.043 1492.78V1492.78ZM850.787 1897.21C802.746 1980.42 696.348 2008.93 613.139 1960.89C529.93 1912.85 501.421 1806.45 549.461 1723.24C597.502 1640.03 703.901 1611.52 787.11 1659.57C870.318 1707.61 898.828 1814 850.787 1897.21Z" clip-rule="evenodd"></path><path fill="#46A4BC" d="M1496.8 1623.41C1333.81 1607.96 1149.02 1616.97 1076.99 1623.41C1070.82 1640.57 1058.47 1676.18 1058.47 1681.33C1058.47 1687.76 1095.51 1867.96 1095.51 1893.71C1095.51 1914.3 1317.76 1949.48 1428.89 1964.5C1519.43 1857.24 1659.78 1638.85 1496.8 1623.41Z"></path><path fill="#EFCB96" fill-rule="evenodd" d="M1504.46 1458.66C1554.36 1423.92 1589.29 1251.45 1504.46 1011.13C1419.62 770.806 1186.33 910.992 1080.28 1011.13L961.761 1262.48L1042.85 1415.75L1110.54 1458.08V1793.41H1452.73V1458.66H1504.46Z" clip-rule="evenodd"></path><path fill="#EFCB96" d="M2295.75 1475.94C2311.82 1520.27 2296.79 1546.82 2287.27 1554.55L2336.5 1638.34L2467.78 1672.42C2477.97 1653.84 2508.52 1607.56 2549.26 1571.12C2600.18 1525.56 2626.49 1438.1 2627.61 1399.21C2628.52 1368.1 2607.43 1358.87 2596.77 1358.15C2599.03 1337.19 2577.72 1326.27 2566.78 1323.43C2558.4 1298.72 2531.41 1295.88 2518.96 1297.55L2563 1181.18C2567.26 1169.93 2562.54 1157.25 2551.96 1151.52L2542.34 1146.32C2531.24 1140.31 2517.37 1143.91 2510.6 1154.57L2365.62 1382.65L2310.17 1275.04C2302.74 1260.62 2285.7 1254.03 2270.5 1259.68L2268.91 1260.27C2253.95 1265.83 2245.34 1281.55 2248.87 1297.12C2261.53 1352.97 2282.16 1438.45 2295.75 1475.94Z"></path><path fill="#53B3CC" d="M533.575 2280.85C490.119 2435.87 508.743 2541.29 539.783 2578.49C551.594 2592.65 598.516 2641.03 653.829 2697.23H1841.74C1842.82 2545.57 1846.55 2377.15 1849.66 2268.45C1938.64 2328.39 2049.55 2431.91 2104.18 2421.99C2158.81 2412.07 2193.16 2359.98 2203.51 2335.18L2497.88 1681.83C2448.22 1582.61 2316.1 1556.61 2274.72 1544.21L2040.39 1897.55C1999.01 1854.15 1953.95 1804.63 1849.66 1735.18C1745.37 1665.73 1570.3 1635.97 1502.01 1629.77C1483.39 1675.24 1425.04 1766.18 1290.94 1766.18C1156.85 1766.18 1098.5 1675.24 1079.87 1629.77C881.22 1685.57 750.854 1722.78 682.566 1815.79C614.279 1908.8 577.031 2125.83 533.575 2280.85Z"></path><path fill="#3E3D3D" d="M1109.68 1478.56C1046.33 1465.58 937.604 1403.76 933.048 1262.88C926.802 1069.7 945.541 913.917 1076.72 901.454C1082.96 853.68 1119.19 755.639 1214.14 745.668C1332.82 733.205 1482.74 745.668 1557.69 708.28C1632.65 670.891 1651.39 708.28 1676.38 733.205C1701.36 758.131 1720.1 982.463 1495.23 1007.39C1441.07 1013.39 1398.51 1014.7 1364.05 1013.91C1312 1013.82 1205.39 1029.82 1195.4 1094.63C1182.91 1175.64 1195.4 1256.65 1170.41 1256.65C1145.43 1256.65 1164.17 1213.03 1114.2 1175.64C1087.13 1173.56 1032.99 1186.85 1032.99 1256.65C1032.99 1309.13 1070.67 1329.67 1100.87 1335.74C1114.61 1338.5 1126.69 1349.61 1126.69 1363.62V1463.76C1126.69 1473.07 1118.8 1480.42 1109.68 1478.56Z"></path><path fill="#3E3D3D" fill-rule="evenodd" d="M-5.86157 2697.23C-5.86157 2692.8 -2.27285 2689.21 2.15406 2689.21H2959.09C2963.51 2689.21 2967.1 2692.8 2967.1 2697.23C2967.1 2701.65 2963.51 2705.24 2959.09 2705.24H2.15406C-2.27285 2705.24 -5.86157 2701.65 -5.86157 2697.23Z" clip-rule="evenodd"></path><path fill="#E5E5E5" d="M1095.66 2607.96H1519.67L1549.43 2697.23H1125.42L1095.66 2607.96Z"></path><path fill="#E5E5E5" d="M194.127 2078.14C187.342 2052.69 206.52 2027.73 232.852 2027.73H997.921C1016.08 2027.73 1031.97 2039.94 1036.65 2057.48L1207.24 2697.23H359.218L194.127 2078.14Z"></path><path fill="#F15846" d="M2628.06 1975.66C2639.39 2032.32 2590.94 2095.72 2561.66 2124.13C2559.14 2126.58 2555.32 2126.99 2552.42 2125.02C2508.86 2095.57 2459.8 2010.39 2505.32 1945.9C2523.54 1920.09 2537.23 1888.02 2546.1 1860.02C2548.84 1851.36 2572.75 1849.11 2577.17 1857.06C2594.68 1888.56 2618.41 1927.42 2628.06 1975.66Z"></path><path fill="#F15846" fill-rule="evenodd" d="M2027.08 1086.36C2031.61 1078.84 2041.38 1076.42 2048.9 1080.95L2093.51 1107.84C2101.02 1112.38 2103.44 1122.15 2098.91 1129.66V1129.66C2095.2 1135.82 2096.15 1143.66 2100.73 1149.2C2113.55 1164.75 2123.19 1182.42 2129.39 1201.17C2131.65 1208.01 2137.79 1212.99 2144.99 1213.12V1213.12C2153.78 1213.29 2160.77 1220.55 2160.61 1229.34L2159.62 1281.38C2159.45 1290.16 2152.2 1297.15 2143.42 1296.98V1296.98C2136.23 1296.85 2129.92 1301.58 2127.4 1308.31C2123.97 1317.48 2119.64 1326.46 2114.41 1335.15C2109.17 1343.84 2103.24 1351.85 2096.74 1359.17C2091.96 1364.55 2090.72 1372.33 2094.2 1378.63V1378.63C2098.45 1386.32 2095.66 1396 2087.97 1400.24L2042.41 1425.41C2034.71 1429.66 2025.03 1426.87 2020.77 1419.17V1419.17C2017.29 1412.86 2010.02 1409.76 2002.92 1410.96C1983.45 1414.23 1963.32 1413.95 1943.59 1409.87C1936.54 1408.41 1929.17 1411.23 1925.46 1417.39V1417.39C1920.93 1424.91 1911.16 1427.33 1903.64 1422.8L1859.03 1395.91C1851.51 1391.37 1849.09 1381.6 1853.63 1374.09V1374.09C1857.34 1367.93 1856.39 1360.09 1851.81 1354.55C1838.99 1339 1829.34 1321.33 1823.14 1302.58C1820.88 1295.74 1814.75 1290.76 1807.55 1290.63V1290.63C1798.76 1290.46 1791.77 1283.2 1791.93 1274.41L1792.92 1222.37C1793.08 1213.59 1800.34 1206.6 1809.12 1206.77V1206.77C1816.31 1206.9 1822.61 1202.17 1825.13 1195.44C1828.57 1186.27 1832.89 1177.29 1838.13 1168.6C1843.37 1159.91 1849.3 1151.89 1855.8 1144.57C1860.58 1139.2 1861.82 1131.41 1858.34 1125.12V1125.12C1854.09 1117.43 1856.88 1107.76 1864.57 1103.51L1910.13 1078.34C1917.83 1074.09 1927.52 1076.88 1931.77 1084.58V1084.58C1935.25 1090.88 1942.52 1093.98 1949.62 1092.79C1969.09 1089.52 1989.22 1089.8 2008.95 1093.88C2016 1095.34 2023.37 1092.52 2027.08 1086.36V1086.36ZM2054.39 1298.97C2028.38 1342.11 1972.32 1356 1929.18 1329.99C1886.03 1303.98 1872.14 1247.92 1898.15 1204.78C1924.16 1161.64 1980.22 1147.75 2023.36 1173.76C2066.51 1199.76 2080.4 1255.83 2054.39 1298.97Z" clip-rule="evenodd"></path><path fill="#FAC22F" fill-rule="evenodd" d="M309.429 1348.56C313.006 1342.63 320.716 1340.72 326.65 1344.29L361.851 1365.52C367.785 1369.09 369.695 1376.8 366.118 1382.74V1382.74C363.188 1387.6 363.938 1393.78 367.55 1398.16C377.672 1410.43 385.28 1424.37 390.173 1439.17C391.957 1444.56 396.798 1448.49 402.479 1448.6V1448.6C409.418 1448.73 414.937 1454.46 414.806 1461.4L414.029 1502.47C413.898 1509.4 408.173 1514.91 401.242 1514.78V1514.78C395.571 1514.67 390.593 1518.41 388.602 1523.72C385.891 1530.96 382.48 1538.05 378.346 1544.9C374.213 1551.76 369.536 1558.09 364.404 1563.86C360.636 1568.1 359.657 1574.25 362.4 1579.21V1579.21C365.752 1585.28 363.55 1592.92 357.481 1596.27L321.53 1616.13C315.455 1619.49 307.809 1617.28 304.453 1611.21V1611.21C301.705 1606.23 295.97 1603.79 290.366 1604.73C274.995 1607.31 259.113 1607.09 243.538 1603.87C237.98 1602.72 232.163 1604.94 229.233 1609.81V1609.81C225.656 1615.74 217.946 1617.65 212.012 1614.07L176.81 1592.85C170.877 1589.27 168.967 1581.56 172.544 1575.63V1575.63C175.474 1570.77 174.723 1564.59 171.112 1560.21C160.989 1547.94 153.38 1534 148.487 1519.2C146.703 1513.8 141.862 1509.87 136.181 1509.77V1509.77C129.241 1509.64 123.722 1503.9 123.853 1496.96L124.63 1455.9C124.761 1448.97 130.486 1443.45 137.417 1443.59V1443.59C143.089 1443.69 148.067 1439.96 150.058 1434.65C152.769 1427.41 156.18 1420.32 160.314 1413.46C164.448 1406.6 169.126 1400.28 174.259 1394.5C178.028 1390.26 179.006 1384.11 176.264 1379.15V1379.15C172.912 1373.08 175.114 1365.45 181.181 1362.09L217.134 1342.23C223.21 1338.88 230.856 1341.08 234.212 1347.16V1347.16C236.959 1352.13 242.694 1354.58 248.298 1353.64C263.668 1351.05 279.549 1351.27 295.124 1354.49C300.681 1355.64 306.499 1353.42 309.429 1348.56V1348.56ZM330.983 1516.35C310.456 1550.4 266.214 1561.36 232.165 1540.83C198.117 1520.31 187.154 1476.07 207.681 1442.02C228.207 1407.97 272.449 1397.01 306.498 1417.53C340.547 1438.06 351.509 1482.3 330.983 1516.35Z" clip-rule="evenodd"></path><path fill="#FAC22F" d="M336.9 517.65H463.36V859.836H336.9V517.65Z"></path><path fill="#F15846" d="M552.628 644.109H679.088V859.835H552.628V644.109Z"></path><path fill="#53B3CC" d="M768.355 592.038H894.815V859.836H768.355V592.038Z"></path><path fill="#F1F1F1" fill-rule="evenodd" d="M850.179 1035.22H344.339V1019.19H850.179V1035.22ZM712.561 1202.6H344.339V1186.57H712.561V1202.6Z" clip-rule="evenodd"></path><path fill="#3E3D3D" fill-rule="evenodd" d="M3000 1637.77H2650.38V1621.74H3000V1637.77zM2836.35 1771.67H2650.38V1755.64H2836.35V1771.67zM2017.5 606.915C2017.5 602.488 2021.09 598.9 2025.52 598.9H2207.86L2340.44 761.79C2343.24 765.224 2342.72 770.272 2339.29 773.067 2335.85 775.861 2330.8 775.344 2328.01 771.91L2200.24 614.931H2025.52C2021.09 614.931 2017.5 611.342 2017.5 606.915z" clip-rule="evenodd"></path><path fill="#3E3D3D" d="M2062.71 606.916C2062.71 627.457 2046.06 644.11 2025.52 644.11 2004.97 644.11 1988.32 627.457 1988.32 606.916 1988.32 586.374 2004.97 569.722 2025.52 569.722 2046.06 569.722 2062.71 586.374 2062.71 606.916zM2828.91 1484.7C2828.91 1505.24 2812.26 1521.89 2791.71 1521.89 2771.17 1521.89 2754.52 1505.24 2754.52 1484.7 2754.52 1464.16 2771.17 1447.5 2791.71 1447.5 2812.26 1447.5 2828.91 1464.16 2828.91 1484.7z"></path><path fill="#3E3D3D" fill-rule="evenodd" d="M2791.72 1045.23C2796.14 1045.23 2799.73 1048.82 2799.73 1053.25V1484.7C2799.73 1489.12 2796.14 1492.71 2791.72 1492.71C2787.29 1492.71 2783.7 1489.12 2783.7 1484.7V1053.25C2783.7 1048.82 2787.29 1045.23 2791.72 1045.23Z" clip-rule="evenodd"></path><path fill="#46A4BC" fill-rule="evenodd" d="M1855 2057.49L1855 2265.77L1838.97 2265.77L1838.97 2057.49L1855 2057.49Z" clip-rule="evenodd"></path><path fill="#FAC22F" fill-rule="evenodd" d="M2129.66 321.963H842.742V281.884H2129.66V321.963Z" clip-rule="evenodd"></path><path fill="#3E3D3D" d="M2346.65 2390.71C2344.05 2375.98 2355.38 2362.48 2370.33 2362.48H2751.54C2766.61 2362.48 2777.96 2376.18 2775.16 2390.99L2717.26 2697.23H2400.75L2346.65 2390.71Z"></path></g><defs><clipPath id="clip0_101_35611"><rect width="3000" height="3000" fill="#fff" transform="translate(0 .618)"></rect></clipPath></defs></svg>