<svg xmlns="http://www.w3.org/2000/svg" xmlns:xlink="http://www.w3.org/1999/xlink" viewBox="0 0 360 216"><defs><style>.cls-1{fill:#b2e8ca;}.cls-14,.cls-2{fill:#99e0b9;}.cls-3{fill:#33c172;}.cls-4{fill:#e5f7ed;}.cls-5{fill:url(#linear-gradient);}.cls-6{fill:#6b3e2a;}.cls-7{fill:#e5a677;}.cls-8{fill:#b26746;}.cls-9{fill:#33b7d9;}.cls-10{fill:#fff;}.cls-11{fill:#41342e;}.cls-12{fill:#00a5cf;}.cls-13{fill:#ccefdc;}.cls-14{opacity:0.5;}.cls-15{fill:#8f5338;}.cls-16{fill:none;}</style><linearGradient id="linear-gradient" x1="181.51" y1="114.76" x2="182.02" y2="115.27" gradientUnits="userSpaceOnUse"><stop offset="0" stop-color="#606062"/><stop offset="0.35" stop-color="#4b4b4d"/><stop offset="0.7" stop-color="#3d3d3f"/><stop offset="1" stop-color="#38383a"/></linearGradient></defs><title>Asset 151</title><g id="Layer_2" data-name="Layer 2"><g id="Layer_1-2" data-name="Layer 1"><path class="cls-1" d="M157.08,132.75l63.22-10.24a12.24,12.24,0,0,0,10.27-11.57l1.78-42.39L128.62,85.35,143.68,125A12.24,12.24,0,0,0,157.08,132.75Z"/><path class="cls-2" d="M170.11,111.23c1.1,0,2.69,1.07,4.33,1.11,6.63.16,6.17,6.65,5.43,8.5a5.43,5.43,0,0,0-.37,2.88l.63,1.06.19-.16,1.67.92a23.25,23.25,0,0,1,5.58,5.55l-9.92,1.61-.79-4.25-.27-.51.11-.1c-.21-.26-.48-.57-.77-.87l-.46,0a7.15,7.15,0,0,1-1.11-.1c-2.84-.49-5.82-6.35-5.63-10.27a6.19,6.19,0,0,1,.1-.9,4,4,0,0,1,.53-1.37h0c-.9-1.52-.85-2.44.2-3a1.2,1.2,0,0,1,.57-.13"/><polygon class="cls-2" points="232.1 74.55 130.75 90.97 128.62 85.35 232.35 68.55 232.1 74.55"/><rect class="cls-1" x="118.48" y="67.24" width="122.44" height="9.77" rx="2.78" transform="translate(-9.22 29.66) rotate(-9.2)"/><path class="cls-2" d="M204.64,73,232,76.34l-.45,10.79-52.51-6.32a5.38,5.38,0,0,1-4.18-3Z"/><path class="cls-2" d="M142.8,95.06l3.9-.63a1.48,1.48,0,0,1,1.64,1l7.52,23.79a1.48,1.48,0,0,1-1.17,1.9l-3.9.63a1.48,1.48,0,0,1-1.64-1L141.63,97A1.48,1.48,0,0,1,142.8,95.06Z"/><path class="cls-2" d="M157.86,92.62l3.88-.62a1.47,1.47,0,0,1,1.66,1.08l6.09,24a1.47,1.47,0,0,1-1.19,1.81l-3.88.63a1.47,1.47,0,0,1-1.66-1.09l-6.09-24A1.48,1.48,0,0,1,157.86,92.62Z"/><path class="cls-2" d="M203,85.31l3.89-.63A1.48,1.48,0,0,1,208.6,86l1.8,24.72a1.47,1.47,0,0,1-1.23,1.55l-3.88.63a1.46,1.46,0,0,1-1.7-1.34l-1.81-24.72A1.48,1.48,0,0,1,203,85.31Z"/><path class="cls-2" d="M222.8,110.09l-3.9.64a1.48,1.48,0,0,1-1.71-1.43l-.37-25a1.46,1.46,0,0,1,1.23-1.47l3.91-.64a1.47,1.47,0,0,1,1.7,1.43l.38,25A1.47,1.47,0,0,1,222.8,110.09Z"/><path class="cls-2" d="M172.92,90.19l3.87-.63a1.46,1.46,0,0,1,1.67,1.17L183.13,115a1.48,1.48,0,0,1-1.21,1.73l-3.87.62a1.47,1.47,0,0,1-1.68-1.17l-4.66-24.26A1.46,1.46,0,0,1,172.92,90.19Z"/><path class="cls-2" d="M188,87.75l3.87-.63a1.47,1.47,0,0,1,1.69,1.26l3.23,24.49a1.46,1.46,0,0,1-1.22,1.64l-3.87.63a1.48,1.48,0,0,1-1.69-1.26l-3.23-24.49A1.46,1.46,0,0,1,188,87.75Z"/><path class="cls-3" d="M239.48,84.71A5.38,5.38,0,0,0,240.12,74l-59.77-7.2a5.38,5.38,0,1,0-1.29,10.69l59.77,7.2A4.82,4.82,0,0,0,239.48,84.71Z"/><path class="cls-4" d="M124,200.15c3.11-2.13,35.91-5.45,74-2.39,32.85,2.64,47.88.46,47.92,2.76s-29.83,1.91-65.41,4.55C138.53,208.18,120,202.87,124,200.15Z"/><path class="cls-5" d="M181.76,115.38a.36.36,0,0,0,0-.72.36.36,0,0,0,0,.72Z"/><path class="cls-6" d="M159.11,200.17l11.11-.19a1.91,1.91,0,0,0,1.8-1.35h0a1.9,1.9,0,0,0,0-1.2l-1.05-2.92-3.17-.28-.38.4a8,8,0,0,1-2.89,1.9l-3.56,1.34S158.64,198.5,159.11,200.17Z"/><polygon class="cls-7" points="167.6 191.8 167.67 194.34 170.98 194.62 171.21 191.99 167.6 191.8"/><path class="cls-8" d="M166.28,193.13s-3-11.54-4.73-23.71a3.59,3.59,0,0,1,1.33-3.32c3.66-2.9,13.07-9.94,22.46-13.68l13.24-2.64-2.13,15.09a185.46,185.46,0,0,1-24.86,6.65s1,15,.5,21.45Z"/><path class="cls-6" d="M220.05,201.61l5.69-9.52a1.9,1.9,0,0,0-.2-2.24h0a1.87,1.87,0,0,0-1-.6l-3-.65-1.91,2.54.14.53a7.88,7.88,0,0,1,.1,3.45l-.73,3.73S218.38,201.13,220.05,201.61Z"/><polygon class="cls-7" points="217.4 190 219.59 191.28 221.57 188.62 219.45 187.04 217.4 190"/><path class="cls-8" d="M182.34,152.74s4.72,15.4,11.74,25.36a6.17,6.17,0,0,0,2.66,2.13c4.28,1.85,16.14,7.1,21.14,10.66l2.08-3.75s-9-8.83-17.85-13.17c0,0-.68-16.4-3-24Z"/><path class="cls-9" d="M178.65,123.51l1.73,31c3.62,6.37,12.64,4.85,18.84.86a2.42,2.42,0,0,0,1-2.76c-1.92-6.11-8.88-26.89-16-31.76Z"/><path class="cls-7" d="M177.32,121.67a9,9,0,0,1,1.49,1.92l.1.12c.74-.61,2-1.64,3.8-2.92l-.83-1.79-.15-.08a2.59,2.59,0,0,1-.19.33,4.71,4.71,0,0,1-3.37,2.4A4,4,0,0,1,177.32,121.67Z"/><polygon class="cls-10" points="178.46 123.3 182.61 119.97 184.16 120.89 179.68 126.3 178.46 123.3"/><path class="cls-7" d="M172.27,111.07c1-3.08,4-3.44,6.59-3,2.77.49,2.5,3.35,1.81,7.26-.12.68-.3,2.63,1.21,3.66-1.26,2.92-3.23,3.64-5.52,3.24-2.77-.48-5-6.35-4.31-10.26A5.77,5.77,0,0,1,172.27,111.07Z"/><path class="cls-11" d="M173,109.7s2,0,2.2.78-.88,4.21,1.59,5.33c0,0,0-1.63,1.15-1.3s1.42,2.45.5,3.14c0,0,.1,1.54,3.51,1.43a5.81,5.81,0,0,1,.74-2.88c1-1.85,2.27-8.34-4.34-8.51-1.94,0-3.62-1.54-4.77-1S172.25,108.19,173,109.7Z"/><path class="cls-7" d="M154.16,131.5s-.18,1.25-3.29,1.1a6.24,6.24,0,0,0-2.35.34,7.09,7.09,0,0,1-2.43.52c-1.22-.09,3.06-1.5,3.08-2s-4.91-.23-4.95-.79,4.64-.24,4.73-.6-4.71-1-4.58-1.71,4.5,1,4.79.37-3.72-1.7-3.46-2.51,3.71,1.68,5.66,1.36c.52-.09,1.09-.29,1.15-.89a15.75,15.75,0,0,1,0-1.82c.11-.51.17-.91.77-.94.76,0-.44,1.55,1.38,5.16A5.59,5.59,0,0,1,154.16,131.5Z"/><path class="cls-10" d="M155.78,129l-1.33-.25-1,3.47s.44.24,1.23.6Z"/><path class="cls-12" d="M179.35,136.14l7-1.26,5,2a23.08,23.08,0,0,1-11.59,6.07Z"/><path class="cls-9" d="M185.25,127s-15.94,4.92-29.45,2l-1.21,4s17,9.14,32,5.68S185.25,127,185.25,127Z"/><path class="cls-1" d="M101.52,21.24a5.48,5.48,0,1,1,4.83,7.62,4,4,0,0,1-.24,2.45,4.08,4.08,0,1,1-7.51-3.2.47.47,0,0,1,.05-.1h0l2.74-6.45h0C101.44,21.46,101.47,21.35,101.52,21.24Z"/><path class="cls-13" d="M101.52,21.24a5.48,5.48,0,1,0-8.84,1.81,4,4,0,0,0-1.6,1.87,4.08,4.08,0,0,0,7.52,3.19.76.76,0,0,1,0-.11h0l2.74-6.45h0Z"/><path class="cls-14" d="M141.31,66.35l-1.2-1.24a.36.36,0,0,1,0-.49.35.35,0,0,1,.49,0l1.2,1.24a.35.35,0,0,1,0,.49.33.33,0,0,1-.24.1A.36.36,0,0,1,141.31,66.35Zm-2.39-2.49-1.2-1.25a.35.35,0,0,1,0-.49.36.36,0,0,1,.49,0l1.2,1.25a.36.36,0,0,1,0,.49.39.39,0,0,1-.24.1A.34.34,0,0,1,138.92,63.86Zm-2.4-2.49-1.2-1.25a.36.36,0,0,1,0-.49.35.35,0,0,1,.49,0l1.2,1.25a.35.35,0,0,1,0,.49.36.36,0,0,1-.24.09A.35.35,0,0,1,136.52,61.37ZM105.86,60a9.69,9.69,0,0,1-1.77-.26.35.35,0,0,1-.25-.42.34.34,0,0,1,.41-.25,9.12,9.12,0,0,0,1.65.24.35.35,0,0,1,.33.36.35.35,0,0,1-.35.33Zm1.4-.37a.35.35,0,0,1,.3-.38,8.84,8.84,0,0,0,1.62-.36.35.35,0,0,1,.44.22.34.34,0,0,1-.22.43,8.84,8.84,0,0,1-1.75.39h-.05A.35.35,0,0,1,107.26,59.67Zm-4.86-.47a9.88,9.88,0,0,1-1.56-.87.35.35,0,0,1-.09-.49.35.35,0,0,1,.48-.08,9.3,9.3,0,0,0,1.45.81.35.35,0,0,1,.17.46.33.33,0,0,1-.31.2A.32.32,0,0,1,102.4,59.2Zm31.73-.32a15,15,0,0,0-1.26-1.13.35.35,0,1,1,.43-.54c.46.37.9.77,1.32,1.18a.36.36,0,0,1,0,.49.35.35,0,0,1-.25.1A.33.33,0,0,1,134.13,58.88Zm-23.56-.14a.35.35,0,0,1,.14-.47,8.58,8.58,0,0,0,1.39-.92.35.35,0,0,1,.49.06.34.34,0,0,1-.06.48,8.76,8.76,0,0,1-1.49,1,.32.32,0,0,1-.16,0A.36.36,0,0,1,110.57,58.74ZM99.46,57.18,99.28,57l-1-1.07a.34.34,0,0,1,0-.49.35.35,0,0,1,.49,0l1,1.08.17.17a.34.34,0,0,1,0,.49.33.33,0,0,1-.24.1A.35.35,0,0,1,99.46,57.18Zm14-.39a.34.34,0,0,1,.1-.48,14.32,14.32,0,0,1,1.51-.9.35.35,0,0,1,.47.15.34.34,0,0,1-.15.46,16.26,16.26,0,0,0-1.45.86.35.35,0,0,1-.19.06A.33.33,0,0,1,113.42,56.79Zm18.08,0q-.72-.45-1.47-.84a.34.34,0,1,1,.31-.61,15.43,15.43,0,0,1,1.53.87.34.34,0,0,1,.1.48.34.34,0,0,1-.29.16A.3.3,0,0,1,131.5,56.76Zm-15.06-1.63a.35.35,0,0,1,.2-.45,17.23,17.23,0,0,1,1.67-.56.35.35,0,0,1,.19.67c-.54.15-1.08.33-1.61.53a.27.27,0,0,1-.12,0A.37.37,0,0,1,116.44,55.13Zm12,.11c-.53-.19-1.07-.37-1.62-.51a.34.34,0,0,1-.24-.42.35.35,0,0,1,.42-.25,16.43,16.43,0,0,1,1.68.54.33.33,0,0,1,.2.44.34.34,0,0,1-.32.23Zm-31.4-.58-.9-.94-.29-.33a.34.34,0,0,1,0-.48.35.35,0,0,1,.49,0l.29.31.89.95a.36.36,0,0,1,0,.49.38.38,0,0,1-.24.09A.34.34,0,0,1,97.08,54.66Zm22.67-.52a.35.35,0,0,1,.29-.4,17.33,17.33,0,0,1,1.75-.19.35.35,0,1,1,0,.69,15.68,15.68,0,0,0-1.68.18h-.06A.35.35,0,0,1,119.75,54.14Zm5.46.25a15.84,15.84,0,0,0-1.69-.16.35.35,0,0,1,0-.7,17.2,17.2,0,0,1,1.76.18.34.34,0,0,1,.29.39.35.35,0,0,1-.34.3ZM94.8,52a14.6,14.6,0,0,1-.9-1.53.35.35,0,0,1,.16-.46.34.34,0,0,1,.46.15,14.22,14.22,0,0,0,.85,1.46.34.34,0,0,1-.09.48.35.35,0,0,1-.2,0A.32.32,0,0,1,94.8,52Zm-1.58-3.17a13.88,13.88,0,0,1-.46-1.71.35.35,0,1,1,.68-.13,13.4,13.4,0,0,0,.44,1.62.35.35,0,0,1-.22.44l-.11,0A.34.34,0,0,1,93.22,48.82Zm-.69-3.47q0-.43,0-.87t0-.9a.35.35,0,0,1,.37-.32.34.34,0,0,1,.32.37c0,.28,0,.57,0,.85s0,.55,0,.83a.35.35,0,0,1-.32.37h0A.35.35,0,0,1,92.53,45.35ZM93,42.23a.34.34,0,0,1-.27-.41,12.69,12.69,0,0,1,.46-1.71.34.34,0,0,1,.44-.21.33.33,0,0,1,.21.43A13.07,13.07,0,0,0,93.44,42a.34.34,0,0,1-.33.28Zm1-3.29a.36.36,0,0,1-.16-.47,15.71,15.71,0,0,1,.9-1.53.35.35,0,0,1,.57.39,13.09,13.09,0,0,0-.85,1.45.34.34,0,0,1-.31.19ZM95.93,36a.34.34,0,0,1,0-.49A11.78,11.78,0,0,1,97,34.48a.33.33,0,0,1,.48,0,.34.34,0,0,1,0,.48c-.35.32-.69.66-1,1a.33.33,0,0,1-.25.12A.32.32,0,0,1,95.93,36Z"/><path class="cls-15" d="M188.11,167.52c-4.46,1.29-10.31,2.83-16.52,4A90.13,90.13,0,0,0,186.54,164Z"/><rect class="cls-16" width="360" height="216" transform="translate(360 216) rotate(-180)"/></g></g></svg>