<?xml version="1.0" encoding="UTF-8"?>
<svg width="257px" height="105px" viewBox="0 0 257 105" version="1.1" xmlns="http://www.w3.org/2000/svg" xmlns:xlink="http://www.w3.org/1999/xlink">
    <!-- Generator: Sketch 52.6 (67491) - http://www.bohemiancoding.com/sketch -->
    <title>00 Header logo</title>
    <desc>Created with Sketch.</desc>
    <g id="Symbols" stroke="none" stroke-width="1" fill="none" fill-rule="evenodd">
        <g id="Header" transform="translate(-240.000000, -16.000000)">
            <g id="00-Header-logo" transform="translate(239.000000, 16.000000)">
                <g id="Group-7" transform="translate(0.146018, 0.135087)">
                    <path d="M73.5296195,0.226035224 C73.5041726,0.680056119 73.1808894,0.884853134 73.0224735,1.08387104 C72.5511681,1.58954269 72.1400752,2.12952776 71.722531,2.65650985 C71.2436991,3.26078746 70.6867345,3.80221731 70.2623805,4.45092179 C69.8172389,5.12924418 69.2470133,5.71040537 68.7434513,6.34068896 C68.2377389,6.9735009 67.8112345,7.67385612 67.2646637,8.25971284 C66.6163053,8.95356657 66.1898009,9.81176358 65.5478938,10.4871964 C64.7396858,11.3378084 64.239708,12.4062203 63.4788097,13.2763367 C62.0663274,14.8930412 60.9993496,16.7549964 59.7470752,18.4840322 C58.7087699,19.916889 57.7439381,21.404286 56.739323,22.8620651 C55.5884779,24.5329487 54.4301062,26.1984143 53.273885,27.8667696 C53.2215575,27.9422591 53.1548938,28.0144979 53.1255044,28.0982949 C52.7574204,29.1291427 51.9592478,29.885483 51.4245044,30.8090561 C51.370385,30.9051337 51.2678805,30.9780949 51.2323982,31.0777845 C50.9173584,31.9450113 50.2105796,32.5807128 49.834969,33.3879815 C49.4185,34.2830203 48.7041947,34.9869875 48.3776858,35.9217576 C48.3665752,35.9567934 48.3536726,35.9947188 48.3318097,36.0214472 C47.6952788,36.79368 47.3942168,37.7801009 46.7498009,38.5422203 C46.5455088,38.7845815 46.5784823,39.107489 46.3842257,39.3382919 C45.8082655,40.0209487 45.4695708,40.8542233 45.036615,41.6221218 C44.7251593,42.1729427 44.4040265,42.7364054 44.113,43.3067307 C43.8327257,43.8539397 43.5004823,44.3982591 43.2266593,44.950886 C42.8926239,45.6274024 42.4722124,46.2519069 42.1299336,46.9226442 C41.7295929,47.706074 41.3507566,48.5053964 40.9195929,49.2776293 C40.3572522,50.2868054 39.8694602,51.3414919 39.3949292,52.3997904 C38.6634204,54.0338322 37.8652478,55.6386173 37.1710133,57.2881904 C36.7781991,58.220071 36.3104779,59.1230561 36.0165841,60.0986412 C35.9004602,60.4862024 35.6925841,60.8376442 35.5442035,61.2168979 C34.8298982,63.0337039 34.159677,64.8660412 33.4933982,66.7012681 C32.9457522,68.2081696 32.4432655,69.7306024 31.955115,71.2537576 C31.7171327,71.9974561 31.5540575,72.7798024 31.3565752,73.5430054 C31.1375885,74.3788084 30.9479912,75.221474 30.7229115,76.0561934 C30.5605531,76.6586651 30.4573319,77.2781128 30.3089513,77.8849188 C30.0910398,78.7792352 29.9939115,79.6955845 29.8089735,80.5967636 C29.6369381,81.4401516 29.4684867,82.2889576 29.4043319,83.1543785 C29.361323,83.7247039 29.2559513,84.2914173 29.1710088,84.85488 C28.944854,86.3433606 28.8971858,87.8361755 28.8577611,89.3362143 C28.8240708,90.6282054 28.995031,91.8931069 29.2534425,93.1377815 C29.4824646,94.2459248 29.9691814,95.3024173 30.7035575,96.1624203 C31.6189292,97.2344442 32.7902035,97.8950681 34.2639735,97.8582263 C35.3499469,97.9506919 35.8287788,97.8766472 36.6355531,97.8611158 C37.7652522,97.8593099 38.7329513,97.5364024 39.731115,97.1661785 C40.7966593,96.7703099 41.8561106,96.3578263 42.899792,95.9066949 C43.8108628,95.5129934 44.6696062,95.0044322 45.5430442,94.5319904 C47.0813274,93.702689 48.5332345,92.7357725 49.9844248,91.7619934 C51.6807655,90.6224263 53.2849956,89.3622203 54.8963938,88.1121278 C55.8246681,87.3933516 56.6869956,86.587889 57.5955575,85.8405785 C59.2435133,84.4803218 60.7817965,82.9958143 62.3519779,81.5481487 C63.4594558,80.5266919 64.4988363,79.4279397 65.5672478,78.3620561 C65.6367788,78.2909009 65.7055929,78.2284143 65.7980619,78.3002919 C65.8858717,78.3696412 65.871177,78.4747487 65.8116814,78.5502382 C65.6185,78.7958501 65.4296195,79.0494084 65.2120664,79.2729875 C63.0877876,81.4531546 61.0570531,83.7293994 58.8302699,85.8055427 C57.5769204,86.9743666 56.3805575,88.2024263 55.0913673,89.3372979 C53.944823,90.3475576 52.809031,91.3737099 51.6589027,92.3814412 C50.8972876,93.049289 50.0912301,93.665486 49.3113363,94.3116621 C48.0049425,95.3937994 46.6379779,96.3950293 45.2563186,97.3727815 C43.6485044,98.5116263 41.9940973,99.5818442 40.2737434,100.545149 C38.907854,101.310158 37.5143673,102.015931 36.061385,102.599981 C34.8668142,103.079647 33.6424956,103.474793 32.3801858,103.711014 C31.590615,103.857659 30.7996106,104.019113 29.980292,103.986605 C28.418354,103.924841 26.9818584,103.503328 25.6955354,102.601787 C25.270823,102.373874 24.9263938,102.031462 24.543615,101.745396 C24.4998894,101.712528 24.4705,101.672796 24.4292832,101.630176 C23.6336195,100.683486 22.8920752,99.5468084 22.6705796,98.2284501 C22.5999735,97.8101875 22.493885,97.399871 22.4150354,96.9844979 C22.1376283,95.5101039 22.2336814,94.0263188 22.2824248,92.5512024 C22.3024956,91.9458412 22.4057168,91.3083337 22.5852788,90.7047785 C22.6695044,90.4234084 22.7114381,90.1261457 22.7436947,89.8335785 C22.8655531,88.7135158 23.1576549,87.626683 23.3737743,86.5250412 C23.6511814,85.09688 23.9970442,83.6813606 24.3769558,82.2734263 C24.7762212,80.7925307 25.1937655,79.3181367 25.664354,77.859274 C26.9417168,73.8973367 28.4524027,70.0267815 30.1068097,66.209683 C31.2985133,63.4599128 32.5669159,60.7473457 33.8840619,58.0586173 C35.1137566,55.5526531 36.4111903,53.0806412 37.7480487,50.6321069 C38.8100088,48.6859934 39.899208,46.7557725 41.0052522,44.8338591 C41.8442832,43.3768024 42.7066106,41.9349158 43.5764646,40.498086 C45.0212035,38.1138442 46.4913894,35.7462173 48.0185619,33.4129039 C49.2016637,31.6062113 50.3779558,29.7951845 51.6040664,28.0170263 C53.3014823,25.555489 55.0161018,23.1065934 56.779823,20.6920113 C58.096969,18.8889307 59.4349027,17.1028263 60.7835885,15.3246681 C61.8208186,13.958271 62.9021327,12.6258263 63.9705442,11.2843516 C64.8665619,10.158871 65.7650885,9.03375164 66.6786681,7.92308 C67.4395664,6.9977009 68.2198186,6.08785313 69.0022212,5.17981134 C70.2419513,3.74153672 71.489208,2.30868 72.7396903,0.879435224 C72.9289292,0.662357612 73.1550841,0.438056119 73.5296195,0.226035224" id="Fill-5" fill="#ED002E"></path>
                    <path d="M11.598023,103.983246 C11.598023,82.7154194 11.5872708,59.9540552 11.5872708,38.6851448 L11.5904965,37.6261239 L0.854053982,37.6261239 L0.858713274,36.9311866 L0.854053982,35.7244373 L19.1321128,35.7244373 C19.1331735,46.7661388 19.0743947,58.7931776 19.0743947,69.8348791 L19.0743947,103.990831" id="Fill-1" fill="#000333"></path>
                    <path d="M18.4987571,103.983246 C18.0765535,103.996972 17.6536332,103.987942 17.2307128,103.987942 C15.6128633,103.989025 13.9950137,103.989748 12.3771642,103.986858" id="Fill-3" fill="#000000"></path>
                </g>
                <g id="Group-2" transform="translate(79.000000, 56.000000)" fill="#0E1131">
                    <polygon id="Fill-8" points="7.70767909 12.5773455 7.70767909 2.49009925 2.05934 2.49009925 2.05934 0.437614179 17.1899492 0.437614179 17.1899492 2.49009925 11.5524532 2.49009925 11.5524532 12.5773455"></polygon>
                    <polygon id="Fill-10" points="19.6837663 12.5773455 19.6837663 0.437614179 23.529444 0.437614179 23.529444 5.21711418 31.0635748 5.21711418 31.0635748 0.437614179 34.9065417 0.437614179 34.9065417 12.5773455 31.0635748 12.5773455 31.0635748 7.26959925 23.529444 7.26959925 23.529444 12.5773455"></polygon>
                    <path d="M48.971909,7.77445821 L46.3478846,3.26946567 L43.7762683,7.77445821 L48.971909,7.77445821 Z M56.0488234,12.5774358 L51.8688175,12.5774358 L50.2044053,9.81881642 L42.594373,9.81881642 L41.0248378,12.5774358 L36.9433232,12.5774358 L44.3599873,0.436801493 L48.4270444,0.436801493 L56.0488234,12.5774358 Z" id="Fill-12"></path>
                    <polygon id="Fill-14" points="58.1282543 12.5773455 58.1282543 0.437614179 61.8700192 0.437614179 69.6625766 8.54280821 69.6625766 0.437614179 73.233563 0.437614179 73.233563 12.5773455 69.3761386 12.5773455 61.6992407 4.66087537 61.6992407 12.5773455"></polygon>
                    <path d="M86.1562508,8.1135291 L86.1562508,6.06736493 L94.4421681,6.06736493 L94.4421681,10.904656 C93.6370697,11.4012978 92.4687283,11.8392455 90.9407581,12.2175963 C89.412788,12.595947 87.866746,12.7819619 86.2990179,12.7819619 C84.3075063,12.7819619 82.5717105,12.5173873 81.0916306,11.9846261 C79.6097435,11.4518649 78.4974246,10.6906485 77.7519632,9.69826791 C77.0083089,8.70859627 76.6369335,7.63133507 76.6369335,6.46648433 C76.6369335,5.20230522 77.0525848,4.07718582 77.8829837,3.09654403 C78.7142862,2.1122903 79.9305179,1.36010373 81.5325824,0.833663433 C82.7515249,0.43273806 84.2749771,0.231372388 86.0911923,0.231372388 C88.4549829,0.231372388 90.3019202,0.545611194 91.6311006,1.17950672 C92.9584739,1.81159627 93.8150769,2.68387985 94.1954882,3.7999694 L90.3778218,4.25507388 C90.1094556,3.65729776 89.604349,3.18864851 88.8661162,2.84280522 C88.1251727,2.49696194 87.1989933,2.32629776 86.0911923,2.32629776 C84.4105155,2.32629776 83.0768171,2.66491716 82.0846757,3.34576791 C81.0934378,4.0239097 80.5982707,5.03164104 80.5982707,6.36715597 C80.5982707,7.80741716 81.1006665,8.88648433 82.1027475,9.6079694 C83.1093464,10.3285515 84.4249729,10.6906485 86.052338,10.6906485 C86.8574364,10.6906485 87.6634384,10.5886112 88.4757655,10.3863425 C89.2835747,10.1849769 89.9784351,9.94026791 90.5576361,9.65221567 L90.5576361,8.1135291 L86.1562508,8.1135291 Z" id="Fill-16"></path>
                    <polygon id="Fill-18" points="105.483311 12.5773455 105.483311 0.536942537 109.326278 0.536942537 109.326278 10.5311813 118.88716 10.5311813 118.88716 12.5773455"></polygon>
                    <path d="M124.808113,6.49845 C124.808113,7.87279328 125.306894,8.91574104 126.300843,9.62368134 C127.295695,10.3343306 128.56072,10.6901067 130.094112,10.6901067 C131.6266,10.6901067 132.884397,10.3388455 133.867503,9.63361418 C134.850608,8.92928582 135.340354,7.87279328 135.340354,6.46594254 C135.340354,5.07534552 134.862355,4.03691269 133.90455,3.35245 C132.949456,2.66708433 131.679008,2.32575597 130.094112,2.32575597 C128.510119,2.32575597 127.234251,2.67159925 126.261085,3.36599478 C125.292437,4.05768134 124.808113,5.10333806 124.808113,6.49845 M120.846775,6.58152463 C120.846775,5.34533806 121.135924,4.30690522 121.716932,3.46983806 C122.151559,2.84948731 122.739796,2.29595746 123.489775,1.80473358 C124.237947,1.31080075 125.05931,0.948703731 125.95025,0.711218657 C127.136663,0.392464925 128.505602,0.231733582 130.054354,0.231733582 C132.860904,0.231733582 135.105421,0.784360448 136.787905,1.8941291 C138.472196,3.00389776 139.315245,4.54709925 139.315245,6.52373358 C139.315245,8.48230821 138.482135,10.0164799 136.807783,11.1235396 C135.139757,12.2305993 132.90518,12.7841291 130.107666,12.7841291 C127.274912,12.7841291 125.024974,12.2333082 123.354237,11.1325694 C121.682596,10.0300246 120.846775,8.51481567 120.846775,6.58152463" id="Fill-20"></path>
                    <path d="M170.384724,8.1135291 L170.384724,6.06736493 L178.671545,6.06736493 L178.671545,10.904656 C177.865543,11.4012978 176.697202,11.8392455 175.169232,12.2175963 C173.641261,12.595947 172.092509,12.7819619 170.527491,12.7819619 C168.535076,12.7819619 166.797473,12.5173873 165.321008,11.9846261 C163.838217,11.4518649 162.724994,10.6906485 161.979533,9.69826791 C161.234975,8.70859627 160.862696,7.63133507 160.862696,6.46648433 C160.862696,5.20230522 161.281058,4.07718582 162.10965,3.09654403 C162.940952,2.1122903 164.158991,1.36010373 165.759249,0.833663433 C166.979095,0.43273806 168.50074,0.231372388 170.320569,0.231372388 C172.683456,0.231372388 174.530394,0.545611194 175.857767,1.17950672 C177.186947,1.81159627 178.04084,2.68387985 178.423962,3.7999694 L174.603584,4.25507388 C174.336122,3.65729776 173.830112,3.18864851 173.091879,2.84280522 C172.353646,2.49696194 171.427467,2.32629776 170.320569,2.32629776 C168.638989,2.32629776 167.303483,2.66491716 166.310438,3.34576791 C165.321911,4.0239097 164.826744,5.03164104 164.826744,6.36715597 C164.826744,7.80741716 165.32914,8.88648433 166.331221,9.6079694 C167.33782,10.3285515 168.650736,10.6906485 170.280811,10.6906485 C171.08591,10.6906485 171.891912,10.5886112 172.701528,10.3863425 C173.510241,10.1849769 174.206909,9.94026791 174.78611,9.65221567 L174.78611,8.1135291 L170.384724,8.1135291 Z" id="Fill-24"></path>
                    <polygon id="Fill-22" points="142.356637 12.5773455 142.356637 0.437614179 146.095691 0.437614179 153.888249 8.54280821 153.888249 0.437614179 157.459235 0.437614179 157.459235 12.5773455 153.604522 12.5773455 145.92672 4.66087537 145.92672 12.5773455"></polygon>
                </g>
                <g id="Group" transform="translate(79.000000, 76.000000)" fill="#0E1131">
                    <path d="M8.36106479,2.56345746 L9.55470676,2.56345746 L9.55470676,9.30785299 C9.55470676,10.4799276 9.45079394,11.4118082 9.24748626,12.1016888 C9.04237141,12.7933754 8.67280323,13.3541291 8.13697455,13.785756 C7.60385664,14.2191888 6.90267105,14.4340993 6.03432136,14.4340993 C5.19217578,14.4340993 4.50183327,14.2444724 3.96871536,13.8688306 C3.43017591,13.4922858 3.04795747,12.9477858 2.81934928,12.2326216 C2.59074109,11.5201664 2.47508162,10.5422336 2.47508162,9.30785299 L2.47508162,2.56345746 L3.66601281,2.56345746 L3.66601281,9.29882313 C3.66601281,10.3137784 3.7373964,11.06145 3.88558511,11.5409351 C4.02835227,12.0204201 4.27774303,12.39245 4.63375736,12.6507037 C4.98706092,12.9107634 5.42078397,13.0407933 5.93040855,13.0407933 C6.80779413,13.0407933 7.43127101,12.7843455 7.80445355,12.269644 C8.17673249,11.7531366 8.36106479,10.7634649 8.36106479,9.29882313 L8.36106479,2.56345746 Z" id="Fill-27"></path>
                    <polygon id="Fill-29" points="22.839734 14.2361649 22.839734 2.56237388 24.0586765 2.56237388 28.7880649 11.7294784 28.7880649 2.56237388 29.9283951 2.56237388 29.9283951 14.2361649 28.7076454 14.2361649 23.9800642 5.06273955 23.9800642 14.2361649"></polygon>
                    <polygon id="Fill-31" points="43.4470906 14.2369776 44.6407326 14.2369776 44.6407326 2.56318657 43.4470906 2.56318657"></polygon>
                    <path d="M60.6258665,14.2361649 L57.1380104,2.56237388 L58.4283364,2.56237388 L60.7686337,11.0414037 C60.9556768,11.7222545 61.1129014,12.358859 61.2394039,12.9539261 C61.3785567,12.3173216 61.5393957,11.6807172 61.7246316,11.0414037 L64.1552878,2.56237388 L65.3715195,2.56237388 L61.8466162,14.2361649 L60.6258665,14.2361649 Z" id="Fill-33"></path>
                    <polygon id="Fill-34" points="77.7795226 14.2361649 77.7795226 2.56237388 84.2844648 2.56237388 84.2844648 3.94213507 78.9704538 3.94213507 78.9704538 7.51524701 83.9501366 7.51524701 83.9501366 8.88507537 78.9704538 8.88507537 78.9704538 12.8591127 84.4940976 12.8591127 84.4940976 14.2361649"></polygon>
                    <path d="M98.664462,7.71372313 L101.221621,7.71372313 C101.769196,7.71372313 102.193883,7.64238731 102.501104,7.49429776 C102.807421,7.34982015 103.040547,7.11594701 103.202289,6.79538731 C103.359514,6.47302164 103.438126,6.1244694 103.438126,5.74611866 C103.438126,5.19439478 103.28542,4.74290224 102.976392,4.38712612 C102.667364,4.03044701 102.177619,3.85255896 101.512577,3.85255896 L98.664462,3.85255896 L98.664462,7.71372313 Z M97.4735308,14.2368873 L97.4735308,2.56309627 L101.464686,2.56309627 C102.267978,2.56309627 102.874286,2.66693955 103.292648,2.87733507 C103.710107,3.08682761 104.045339,3.45795448 104.292019,3.9889097 C104.543216,4.51896194 104.668815,5.10499925 104.668815,5.74611866 C104.668815,6.57686493 104.46099,7.27577537 104.047146,7.84285 C103.634205,8.40992463 102.997175,8.77021567 102.131536,8.92462612 C102.447792,9.12147687 102.685436,9.31471567 102.848986,9.50614851 C103.197771,9.92152164 103.527582,10.4380291 103.83932,11.0583799 L105.404337,14.2368873 L103.906186,14.2368873 L102.715255,11.8060515 C102.366469,11.107141 102.080935,10.5716709 101.856844,10.200544 C101.630947,9.82941716 101.429446,9.56845448 101.252343,9.41855896 C101.074336,9.27137239 100.891811,9.16662612 100.709285,9.1070291 C100.573747,9.07000672 100.351464,9.05194701 100.045147,9.05194701 L98.664462,9.05194701 L98.664462,14.2368873 L97.4735308,14.2368873 Z" id="Fill-35"></path>
                    <path d="M117.443495,10.485797 L118.565754,10.3584761 C118.620873,10.9427075 118.742857,11.4221925 118.937129,11.7933194 C119.130497,12.1698642 119.4332,12.4714612 119.844333,12.7026254 C120.254563,12.9355955 120.71449,13.0484687 121.226825,13.0484687 C121.67862,13.0484687 122.080717,12.9608791 122.429503,12.787506 C122.777385,12.6123269 123.034005,12.3703269 123.204783,12.0660209 C123.372851,11.7617149 123.458692,11.4267075 123.458692,11.0673194 C123.458692,10.6998045 123.377369,10.3819537 123.214723,10.1074463 C123.050269,9.83293881 122.781903,9.60448358 122.401492,9.41756567 C122.162041,9.29566269 121.628923,9.10603582 120.802138,8.85049104 C119.975354,8.59223731 119.396153,8.34933433 119.063632,8.1208791 C118.634426,7.82831194 118.313652,7.46621493 118.103116,7.03278209 C117.891676,6.60115522 117.785052,6.11715522 117.785052,5.58168507 C117.785052,4.99113284 117.916073,4.44031194 118.172692,3.92741642 C118.431119,3.41813284 118.807916,3.02804328 119.303986,2.7607597 C119.800057,2.49708806 120.34944,2.36344627 120.953941,2.36344627 C121.623501,2.36344627 122.209931,2.50250597 122.720459,2.78152836 C123.230084,3.06055075 123.620434,3.47050597 123.895126,4.01049104 C124.169817,4.55318507 124.317102,5.16631194 124.336077,5.85167761 L123.195747,5.96184179 C123.13611,5.22590896 122.927381,4.66876716 122.57227,4.29041642 C122.21716,3.91387164 121.694885,3.72514776 121.005446,3.72514776 C120.282574,3.72514776 119.759396,3.89761791 119.428682,4.23894627 C119.100679,4.58027463 118.934418,4.99293881 118.934418,5.47784179 C118.934418,5.89772985 119.052788,6.24086418 119.285915,6.5117597 C119.514523,6.78355821 120.111796,7.06077463 121.081347,7.34431194 C122.049092,7.62784925 122.71323,7.87707313 123.071052,8.08927463 C123.597845,8.40261045 123.982774,8.7990209 124.232164,9.27940896 C124.483362,9.76160299 124.608961,10.3124239 124.608961,10.9399985 C124.608961,11.5603493 124.469809,12.1463866 124.197828,12.6954015 C123.923137,13.2444164 123.527365,13.6715284 123.013222,13.9785433 C122.500887,14.2828493 121.921686,14.4345507 121.280137,14.4345507 C120.46781,14.4345507 119.783792,14.2801403 119.232603,13.9731254 C118.68322,13.6643045 118.251304,13.2028791 117.937759,12.5843343 C117.62331,11.9666925 117.45976,11.2650731 117.443495,10.485797" id="Fill-36"></path>
                    <polygon id="Fill-37" points="137.754745 14.2369776 138.944773 14.2369776 138.944773 2.56318657 137.754745 2.56318657"></polygon>
                    <polygon id="Fill-38" points="154.64862 14.2361649 154.64862 3.94213507 151.682135 3.94213507 151.682135 2.56237388 158.816879 2.56237388 158.816879 3.94213507 155.838647 3.94213507 155.838647 14.2361649"></polygon>
                    <path d="M173.886947,14.2361649 L173.886947,9.29051567 L170.419874,2.56237388 L171.868328,2.56237388 L173.642075,6.0822097 C173.970078,6.73958284 174.275491,7.39966493 174.556507,8.05703806 C174.826681,7.44752313 175.15378,6.75854552 175.539613,5.99462015 L177.282637,2.56237388 L178.669648,2.56237388 L175.080589,9.29051567 L175.080589,14.2361649 L173.886947,14.2361649 Z" id="Fill-39"></path>
                </g>
            </g>
        </g>
    </g>
</svg>